<svg width="14" height="19" viewBox="0 0 14 19" fill="none" xmlns="http://www.w3.org/2000/svg">
<path d="M6.04688 18.2222C6.1875 18.4683 6.43359 18.5737 6.75 18.5737C7.03125 18.5737 7.27734 18.4683 7.45312 18.2222L9.80859 14.8472C10.9688 13.1597 11.7422 12.0347 12.1289 11.437C12.6562 10.5933 13.0078 9.89014 13.2188 9.32764C13.3945 8.76514 13.5 8.09717 13.5 7.32373C13.5 6.12842 13.1836 5.00342 12.5859 3.94873C11.9531 2.9292 11.1445 2.12061 10.125 1.48779C9.07031 0.890137 7.94531 0.57373 6.75 0.57373C5.51953 0.57373 4.39453 0.890137 3.375 1.48779C2.32031 2.12061 1.51172 2.9292 0.914062 3.94873C0.28125 5.00342 0 6.12842 0 7.32373C0 8.09717 0.0703125 8.76514 0.28125 9.32764C0.457031 9.89014 0.808594 10.5933 1.37109 11.437C1.72266 12.0347 2.49609 13.1597 3.69141 14.8472C4.64062 16.2183 5.41406 17.3433 6.04688 18.2222ZM6.75 10.1362C5.97656 10.1362 5.30859 9.89014 4.74609 9.32764C4.18359 8.76514 3.9375 8.09717 3.9375 7.32373C3.9375 6.55029 4.18359 5.91748 4.74609 5.35498C5.30859 4.79248 5.97656 4.51123 6.75 4.51123C7.52344 4.51123 8.15625 4.79248 8.71875 5.35498C9.28125 5.91748 9.5625 6.55029 9.5625 7.32373C9.5625 8.09717 9.28125 8.76514 8.71875 9.32764C8.15625 9.89014 7.52344 10.1362 6.75 10.1362Z" fill="#00AB88"/>
</svg>
