<svg width="30" height="30" viewBox="0 0 30 30" fill="none" xmlns="http://www.w3.org/2000/svg">
<rect x="-1" y="1" width="28" height="28" rx="14" transform="matrix(-1 1.74846e-07 1.74846e-07 1 28 1.74846e-07)" stroke="#00AB88" stroke-width="2"/>
<g clip-path="url(#clip0)">
<path d="M18.919 14.4224L13.9025 9.40603C13.5834 9.08677 13.066 9.08677 12.747 9.40603C12.4281 9.72501 12.4281 10.2424 12.747 10.5613L17.1859 15L12.7472 19.4385C12.4282 19.7576 12.4282 20.2749 12.7472 20.5939C13.0662 20.913 13.5835 20.913 13.9026 20.5939L18.9191 15.5775C19.0786 15.418 19.1583 15.209 19.1583 15C19.1583 14.7909 19.0784 14.5818 18.919 14.4224Z" fill="#00AB88"/>
</g>
<defs>
<clipPath id="clip0">
<rect width="11.6667" height="11.6667" fill="white" transform="matrix(1 -8.74228e-08 -8.74228e-08 -1 10 20.8333)"/>
</clipPath>
</defs>
</svg>
