<svg width="40" height="40" viewBox="0 0 40 40" fill="none" xmlns="http://www.w3.org/2000/svg">
<g clip-path="url(#clip0)">
<path d="M25.6589 21.7947C24.0154 22.3147 21.8968 22.6998 19.2159 22.6998C16.5423 22.6998 14.4281 22.3169 12.7864 21.7991C6.78653 28.4998 12.9151 35.0856 14.8393 36.8711C15.0601 37.0759 14.9932 37.4225 14.7128 37.5466C14.0132 37.8561 13.7697 38.3483 13.7045 38.7744C13.637 39.2169 14.0137 39.6094 14.4889 39.6094H17.3101C18.4986 39.6094 19.0343 38.8747 19.1781 37.7886H19.2401C19.3839 38.8747 19.9197 39.6094 21.1081 39.6094H23.96C24.4351 39.6094 24.8118 39.2167 24.7443 38.7744C24.6793 38.3483 24.4357 37.8561 23.7362 37.5466C23.4556 37.4225 23.3889 37.0759 23.6096 36.8711C25.5343 35.0851 31.6653 28.497 25.6589 21.7947Z" fill="#F9BD55"/>
<path d="M19.3702 26.4844H19.0485C17.8141 26.4844 16.8135 27.485 16.8135 28.7194V28.7547C16.8135 28.7547 19.0389 33.523 19.2093 36.7388C19.3796 33.5228 21.605 28.7547 21.605 28.7547C21.6247 27.5067 20.6185 26.4844 19.3702 26.4844Z" fill="#F4DBCE"/>
<path d="M19.2091 36.7388C19.1957 36.9921 19.1949 37.2358 19.2091 37.4667C19.2233 37.236 19.2225 36.9922 19.2091 36.7388Z" fill="#F4DBCE"/>
<path d="M30.0444 14.6475C31.1139 14.6475 32.3171 13.6586 32.3171 13.6586C30.7191 13.3921 30.3905 11.8391 29.5347 9.84456C33.0533 8.08675 32.1613 2.68331 31.6772 0.635655C31.6146 0.370343 31.2725 0.302843 31.1089 0.520812C30.6872 1.08237 29.7896 1.85362 27.9169 2.28581C26.1082 2.70316 25.091 3.63441 24.5494 4.36066C22.0049 3.33628 19.2158 3.48722 19.2158 3.48722C19.2158 3.48722 16.4266 3.33628 13.8822 4.36066C13.3404 3.63441 12.3232 2.70316 10.5144 2.28581C8.64176 1.85362 7.7441 1.08237 7.32238 0.520812C7.15863 0.302843 6.81676 0.370499 6.7541 0.635655C6.27004 2.68316 5.37801 8.08675 8.8966 9.84456C8.04082 11.8389 7.71223 13.3919 6.11426 13.6586C6.11426 13.6586 7.31738 14.6475 8.38691 14.6475C8.38691 14.6475 7.85223 15.9189 6.3816 16.2014C6.3816 16.2014 7.18379 17.6141 9.72379 17.6141C9.72379 17.6141 8.9216 18.7443 7.98582 19.0268C7.98582 19.0268 10.9269 22.6997 19.2157 22.6997C27.5044 22.6997 30.4455 19.0268 30.4455 19.0268C29.5097 18.7443 28.7075 17.6141 28.7075 17.6141C31.2475 17.6141 32.0497 16.2014 32.0497 16.2014C30.5791 15.9189 30.0444 14.6475 30.0444 14.6475Z" fill="#F9BD55"/>
<path d="M19.2964 15.8618C19.2964 15.8618 19.2915 17.4595 17.4443 17.5939C17.6086 19.1598 18.3746 20.3453 19.2964 20.3453C20.2181 20.3453 20.9842 19.1598 21.1484 17.5939C19.3012 17.4595 19.2964 15.8618 19.2964 15.8618Z" fill="#52565B"/>
<path d="M18.063 19.5186C18.3935 20.0328 18.8242 20.3455 19.2964 20.3455C19.7688 20.3455 20.1994 20.0328 20.5299 19.5186C20.1996 19.0036 19.7689 18.6907 19.2964 18.6907C18.8239 18.6905 18.3933 19.0036 18.063 19.5186Z" fill="#FD605B"/>
<path d="M27.2669 37.3516C28.7411 36.5772 33.53 33.5495 28.133 29.2053C27.5733 32.8514 24.7947 35.7716 23.6097 36.8711C23.3889 37.0759 23.4556 37.4225 23.7363 37.5466C24.4358 37.8561 24.6794 38.3483 24.7444 38.7744C24.8119 39.2169 24.4352 39.6094 23.96 39.6094H27.0923C27.5737 39.6094 27.9469 39.2074 27.8744 38.7595C27.8197 38.4219 27.6517 38.0447 27.2337 37.7508C27.0873 37.648 27.1072 37.4355 27.2669 37.3516Z" fill="#F9BD55"/>
<path d="M33.3118 22.324C32.2168 22.1682 31.2166 22.9848 31.1657 24.0896C31.0366 26.8871 30.2232 28.8509 29.2354 30.2186C29.8924 30.9215 30.286 31.5842 30.4814 32.2018C33.0386 29.9546 34.2869 26.7656 34.8619 24.6914C35.1657 23.5961 34.4371 22.4842 33.3118 22.324Z" fill="#F9BD55"/>
<path d="M31.6774 0.635762C31.6733 0.618574 31.6652 0.604668 31.659 0.589355C31.3188 1.27857 30.048 3.59014 28.0085 4.26998C25.6021 5.07217 26.9389 6.80998 26.9389 6.80998L26.2705 7.21107C26.2705 7.21107 26.6716 9.08264 28.2758 9.08264L29.6397 9.78654C33.0324 7.97311 32.1565 2.66217 31.6774 0.635762Z" fill="#F98080"/>
<path d="M10.4231 4.26974C8.38355 3.58989 7.11277 1.27833 6.77261 0.589111C6.76636 0.60458 6.75824 0.618486 6.75418 0.635518C6.27511 2.66192 5.39918 7.97286 8.79184 9.78646L10.1557 9.08255C11.76 9.08255 12.1611 7.21099 12.1611 7.21099L11.4926 6.80989C11.4926 6.80989 12.8295 5.07192 10.4231 4.26974Z" fill="#F98080"/>
<path d="M20.632 14.2167C20.632 14.8676 19.9472 15.7881 19.2962 15.7881C18.6453 15.7881 17.9604 14.8676 17.9604 14.2167C17.9604 13.5657 18.6453 14.0595 19.2962 14.0595C19.9472 14.0595 20.632 13.5657 20.632 14.2167Z" fill="#52565B"/>
<path d="M19.2179 27.4169C20.1725 27.4169 20.9464 26.643 20.9464 25.6883C20.9464 24.7336 20.1725 23.9597 19.2179 23.9597C18.2632 23.9597 17.4893 24.7336 17.4893 25.6883C17.4893 26.643 18.2632 27.4169 19.2179 27.4169Z" fill="#F9E63A"/>
<path d="M19.216 22.6999C16.8797 22.6999 14.9705 22.4074 13.4307 21.9882C13.8669 23.1929 15.7277 24.1442 18.0946 24.3763C18.3968 24.1173 18.7888 23.9598 19.218 23.9598C19.6472 23.9598 20.0393 24.1173 20.3414 24.3763C22.7093 24.144 24.5705 23.1921 25.0058 21.9868C23.4652 22.4068 21.5547 22.6999 19.216 22.6999Z" fill="#039BE6"/>
<path d="M11.1818 37.3516C9.70762 36.5772 4.91872 33.5495 10.3157 29.2053C10.8754 32.8514 13.654 35.7716 14.839 36.8711C15.0598 37.0759 14.9931 37.4225 14.7125 37.5466C14.0129 37.8561 13.7693 38.3483 13.7043 38.7744C13.6368 39.2169 14.0136 39.6094 14.4887 39.6094H11.3564C10.875 39.6094 10.5018 39.2074 10.5743 38.7595C10.629 38.4219 10.797 38.0447 11.215 37.7508C11.3614 37.648 11.3415 37.4355 11.1818 37.3516Z" fill="#F9BD55"/>
<path d="M27.0923 40.0001H23.96C23.7442 40.0001 23.5694 39.8252 23.5694 39.6094C23.5694 39.3937 23.7442 39.2188 23.96 39.2188C24.088 39.2188 24.2059 39.1668 24.2837 39.0762C24.3269 39.0258 24.3748 38.9429 24.3583 38.8332C24.2939 38.4115 24.0387 38.1074 23.5781 37.9037C23.3223 37.7905 23.143 37.563 23.0981 37.2951C23.0544 37.0337 23.1462 36.7679 23.3439 36.5846C24.4872 35.5237 27.2048 32.6752 27.7467 29.1458C27.768 29.0077 27.8612 28.8916 27.9914 28.841C28.1216 28.7904 28.2689 28.8132 28.3776 28.9008C30.2733 30.4266 31.1591 31.9733 31.0108 33.4979C30.8089 35.5719 28.7364 36.9841 27.6536 37.5862C27.9811 37.8802 28.1892 38.2599 28.26 38.6969C28.3111 39.0123 28.2195 39.3349 28.0089 39.5826C27.783 39.8479 27.4489 40.0001 27.0923 40.0001ZM25.0856 39.2188H27.0922C27.2194 39.2188 27.3366 39.1669 27.4137 39.0763C27.4501 39.0337 27.5083 38.9435 27.4886 38.8219C27.4376 38.5074 27.2808 38.2616 27.0087 38.0702C26.8297 37.9441 26.7311 37.7399 26.745 37.5237C26.7592 37.3035 26.8862 37.1099 27.0848 37.0055C27.9719 36.5396 30.0544 35.2576 30.233 33.4222C30.3414 32.308 29.722 31.1374 28.3903 29.9368C27.6014 33.3912 25.0059 36.1079 23.8751 37.1573C23.8681 37.1677 23.8717 37.1794 23.8941 37.1893C24.7834 37.5827 25.0573 38.2363 25.1303 38.7154C25.1564 38.8855 25.1401 39.0579 25.0856 39.2188ZM27.4483 37.6974C27.4484 37.6973 27.4484 37.6973 27.4483 37.6974V37.6974Z" fill="black"/>
<path d="M14.4891 40H11.3568C11.0001 40 10.6662 39.8478 10.4404 39.5828C10.2298 39.3353 10.1382 39.0125 10.1893 38.6972C10.2601 38.2601 10.468 37.8804 10.7957 37.5864C9.71272 36.9844 7.64022 35.5722 7.43835 33.4981C7.28991 31.9734 8.17585 30.4267 10.0715 28.9009C10.1801 28.8132 10.3274 28.7903 10.4577 28.8411C10.5879 28.8917 10.6813 29.0078 10.7024 29.1459C11.2443 32.6753 13.9619 35.5237 15.1054 36.5847C15.303 36.7681 15.3949 37.0337 15.3512 37.2951C15.3063 37.5631 15.1268 37.7906 14.8712 37.9037C14.4107 38.1075 14.1555 38.4115 14.0912 38.8333C14.0744 38.9429 14.1224 39.0258 14.1655 39.0761C14.2433 39.1669 14.3615 39.2187 14.4894 39.2187C14.7052 39.2187 14.8801 39.3936 14.8801 39.6094C14.8801 39.8251 14.7049 40 14.4891 40ZM10.0585 29.9368C8.72679 31.1376 8.10726 32.3081 8.21585 33.4225C8.3946 35.2578 10.4769 36.5397 11.364 37.0056C11.5626 37.1098 11.6894 37.3036 11.7038 37.5236C11.7177 37.7398 11.6193 37.9442 11.4401 38.0703C11.168 38.2615 11.0112 38.5073 10.9602 38.822C10.9405 38.9436 10.9988 39.0336 11.0351 39.0764C11.1121 39.167 11.2293 39.2189 11.3566 39.2189H13.3632C13.3087 39.0578 13.2926 38.8856 13.3185 38.7154C13.3915 38.2365 13.6654 37.5828 14.5548 37.1894C14.5771 37.1795 14.5807 37.1679 14.5804 37.1653C13.4433 36.1086 10.8476 33.3914 10.0585 29.9368Z" fill="black"/>
<path d="M21.1081 40C20.2759 40 19.6554 39.688 19.2636 39.0727C18.5509 37.9536 18.6778 35.8338 19.6406 32.7718C20.3384 30.5524 21.2418 28.6088 21.2509 28.5894C21.3422 28.3941 21.5745 28.3096 21.77 28.4007C21.9654 28.4918 22.05 28.7243 21.9587 28.9197C20.9901 30.9955 18.7361 36.7903 19.9225 38.653C20.165 39.0336 20.5526 39.2186 21.1079 39.2186C21.3237 39.2186 21.4986 39.3935 21.4986 39.6092C21.4986 39.825 21.3239 40 21.1081 40Z" fill="black"/>
<path d="M17.3103 39.9999C17.0945 39.9999 16.9197 39.825 16.9197 39.6093C16.9197 39.3935 17.0945 39.2186 17.3103 39.2186C17.8656 39.2186 18.2534 39.0336 18.4958 38.653C19.682 36.7904 17.4281 30.9954 16.4595 28.9198C16.3684 28.7243 16.4528 28.4918 16.6483 28.4007C16.8439 28.3096 17.0763 28.394 17.1673 28.5894C17.1764 28.6088 18.0798 30.5524 18.7777 32.7718C19.7405 35.8336 19.8673 37.9536 19.1547 39.0727C18.763 39.6879 18.1423 39.9999 17.3103 39.9999Z" fill="black"/>
<path d="M30.4817 32.5922C30.4467 32.5922 30.4114 32.5875 30.3769 32.5778C30.2498 32.5423 30.1491 32.4452 30.1094 32.3194C29.9206 31.723 29.5306 31.1058 28.9505 30.485C28.823 30.3486 28.8098 30.1409 28.9191 29.9895C30.0417 28.4353 30.6664 26.4441 30.7758 24.0712C30.805 23.4389 31.1025 22.8436 31.592 22.4383C32.0856 22.0294 32.733 21.8472 33.3672 21.937C34.0152 22.0292 34.5922 22.3961 34.9505 22.9434C35.3084 23.4905 35.4136 24.1655 35.2389 24.7956C34.6125 27.0548 33.3234 30.2247 30.7398 32.4952C30.6675 32.5584 30.5755 32.5922 30.4817 32.5922ZM29.7333 30.1873C30.1188 30.6328 30.42 31.0817 30.6338 31.5291C32.8022 29.4194 33.9223 26.6195 34.4859 24.5867C34.6006 24.1733 34.5316 23.7301 34.2967 23.3712C34.0616 23.0119 33.6825 22.7711 33.2572 22.7105C32.8403 22.6517 32.415 22.7714 32.0903 23.04C31.7653 23.3092 31.5756 23.6883 31.5564 24.1073C31.4455 26.5061 30.8325 28.5495 29.7333 30.1873Z" fill="black"/>
<path d="M19.2156 23.0905C10.8356 23.0905 7.80579 19.4269 7.68094 19.271C7.59985 19.1698 7.57438 19.0349 7.61282 18.911C7.65141 18.7873 7.74876 18.6904 7.87297 18.653C8.25985 18.5362 8.63188 18.2352 8.91235 17.9562C6.80454 17.6932 6.07516 16.4532 6.04188 16.3944C5.97969 16.2849 5.97407 16.1523 6.02688 16.0379C6.07969 15.9235 6.18422 15.8416 6.30782 15.8179C7.02172 15.6807 7.47813 15.2755 7.74016 14.949C6.77219 14.6973 5.91016 13.9963 5.86626 13.9604C5.74797 13.863 5.69735 13.7057 5.73688 13.5576C5.77641 13.4096 5.89891 13.2984 6.04985 13.2732C7.11891 13.0948 7.50422 12.2484 8.14704 10.6423C8.22829 10.4393 8.31141 10.2316 8.39985 10.0176C6.95297 9.15085 6.12422 7.59351 5.93501 5.3821C5.77219 3.4782 6.14001 1.53492 6.37391 0.545855C6.43797 0.275386 6.64641 0.0719484 6.91797 0.0152297C7.19094 -0.0419578 7.46626 0.0617922 7.63469 0.286323C8.02188 0.801636 8.85094 1.50101 10.6022 1.90507C12.3434 2.30695 13.3989 3.16523 14.0095 3.89257C16.4348 2.99554 18.9406 3.0832 19.2156 3.09601C19.4911 3.08304 21.9967 2.9957 24.4217 3.89257C25.0323 3.16523 26.0878 2.30695 27.8291 1.90507C29.5803 1.50101 30.4095 0.801636 30.7966 0.286167C30.9652 0.0617922 31.2406 -0.0416453 31.5133 0.0152297C31.7848 0.0719484 31.9933 0.275386 32.0573 0.545855C32.2911 1.53492 32.6591 3.4782 32.4963 5.3821C32.307 7.59351 31.4783 9.15085 30.0314 10.0176C30.1198 10.2316 30.203 10.4393 30.2842 10.6423C30.927 12.2484 31.3123 13.0949 32.3814 13.2732C32.5325 13.2984 32.6548 13.4096 32.6944 13.5576C32.7339 13.7055 32.6834 13.863 32.565 13.9604C32.5211 13.9963 31.6591 14.6973 30.6911 14.949C30.9531 15.2755 31.4094 15.6807 32.1233 15.8179C32.247 15.8416 32.3516 15.9235 32.4042 16.0379C32.4569 16.1523 32.4514 16.2849 32.3892 16.3944C32.3559 16.4532 31.6266 17.6932 29.5188 17.9562C29.7992 18.2352 30.1713 18.5362 30.5581 18.653C30.6823 18.6905 30.7797 18.7873 30.8183 18.911C30.8567 19.0349 30.8313 19.1698 30.7502 19.271C30.6253 19.4271 27.5955 23.0905 19.2156 23.0905ZM8.65672 19.1485C9.65844 20.051 12.8066 22.3093 19.2156 22.3093C25.6534 22.3093 28.7825 20.0532 29.7767 19.1499C28.9939 18.6838 28.4183 17.8816 28.3889 17.8402C28.3042 17.7212 28.2933 17.5648 28.3603 17.4349C28.4273 17.3051 28.5613 17.2235 28.7073 17.2235C30.1322 17.2235 30.9442 16.7568 31.3564 16.4007C30.1639 15.9085 29.7059 14.8505 29.6841 14.799C29.6334 14.6784 29.6464 14.5404 29.7188 14.4313C29.7911 14.3223 29.9133 14.2568 30.0442 14.2568C30.5239 14.2568 31.0545 14.0115 31.4522 13.7771C30.4905 13.2609 30.0517 12.1643 29.5586 10.9326C29.4384 10.6323 29.3141 10.3216 29.1755 9.99867C29.0939 9.80851 29.1747 9.58773 29.3598 9.49523C32.5247 7.91414 31.8267 3.04773 31.3305 0.870698C30.8339 1.47507 29.8648 2.23726 28.0044 2.66648C26.3027 3.05914 25.3564 3.93148 24.8622 4.59414C24.7561 4.73632 24.568 4.78914 24.4031 4.72304C21.9731 3.74476 19.2634 3.87585 19.2363 3.87726C19.2225 3.87789 19.2081 3.87789 19.1944 3.87726C19.1677 3.87585 16.4572 3.74476 14.0275 4.72304C13.8628 4.78914 13.6744 4.73632 13.5684 4.59414C13.0742 3.93148 12.128 3.05914 10.4263 2.66648C8.56563 2.2371 7.59657 1.47507 7.10016 0.870698C6.60391 3.04789 5.90594 7.91429 9.07079 9.49523C9.25594 9.58773 9.33688 9.80851 9.25516 9.99867C9.11657 10.3216 8.99219 10.6323 8.87204 10.9326C8.37907 12.1643 7.94032 13.2609 6.97844 13.7771C7.3761 14.0115 7.90672 14.2568 8.38657 14.2568C8.51735 14.2568 8.63954 14.3223 8.71204 14.4313C8.78438 14.5404 8.79735 14.6784 8.74672 14.799C8.72501 14.8507 8.26688 15.9088 7.07407 16.4009C7.48547 16.7562 8.29782 17.2235 9.7236 17.2235C9.86969 17.2235 10.0036 17.3051 10.0706 17.4349C10.1377 17.5648 10.1267 17.7212 10.042 17.8402C10.013 17.8815 9.43844 18.6823 8.65672 19.1485Z" fill="black"/>
<path d="M29.64 10.1774C29.5005 10.1774 29.3656 10.1025 29.2951 9.97082C29.1934 9.78051 29.2653 9.54394 29.4555 9.44222C30.7933 8.72707 31.5555 7.31988 31.7211 5.25973C31.8248 3.96879 31.6708 2.65473 31.4945 1.67551C30.8515 2.69332 29.7133 4.11363 28.132 4.64051C27.4883 4.8552 27.1056 5.14817 26.9945 5.51145C26.8391 6.01973 27.2444 6.56645 27.2484 6.57191C27.3164 6.6602 27.3433 6.77348 27.3226 6.88285C27.302 6.99223 27.2353 7.0877 27.1398 7.14504L26.7308 7.39051C26.8903 7.83644 27.3211 8.69223 28.2758 8.69223C28.4915 8.69223 28.6664 8.86707 28.6664 9.08285C28.6664 9.29863 28.4915 9.47348 28.2758 9.47348C26.757 9.47348 26.0501 8.04723 25.8886 7.29301C25.8536 7.12973 25.9262 6.96207 26.0695 6.87613L26.4061 6.67426C26.2448 6.34082 26.0822 5.82379 26.2475 5.28316C26.4367 4.6641 26.9876 4.19863 27.885 3.89957C29.7784 3.26848 30.9842 1.07411 31.3087 0.416606C31.3769 0.278637 31.52 0.1952 31.6733 0.199106C31.827 0.204731 31.9631 0.300043 32.0211 0.442543C32.0287 0.45895 32.0461 0.496606 32.0576 0.545981C32.288 1.51989 32.6515 3.43535 32.5 5.32238C32.3119 7.66473 31.4115 9.28269 29.824 10.1311C29.7651 10.1625 29.7022 10.1774 29.64 10.1774Z" fill="black"/>
<path d="M23.9598 40H21.1079C20.4488 40 19.6702 39.7983 19.209 38.9861C18.7476 39.7984 17.9691 40 17.3101 40H14.4888C14.1329 40 13.7988 39.8487 13.5724 39.5851C13.3637 39.3422 13.271 39.0251 13.3184 38.7154C13.3915 38.2364 13.6652 37.5828 14.5548 37.1893C14.577 37.1795 14.5805 37.1679 14.5802 37.1653C13.486 36.1483 11.5076 34.0476 10.4757 31.3164C9.14961 27.8059 9.82899 24.5162 12.4952 21.5386C12.5974 21.4242 12.7574 21.3803 12.9037 21.4265C14.7605 22.0123 16.8843 22.3092 19.2157 22.3092C21.5527 22.3092 23.6807 22.0108 25.5407 21.4223C25.6873 21.3759 25.8471 21.4197 25.9495 21.534C28.6185 24.5123 29.2995 27.8029 27.9735 31.3145C26.9418 34.0467 24.9627 36.1479 23.8749 37.1573C23.868 37.1678 23.8716 37.1795 23.894 37.1893C24.7834 37.5828 25.0571 38.2364 25.1302 38.7154C25.1776 39.0251 25.0849 39.3422 24.8762 39.5851C24.6498 39.8487 24.3159 40 23.9598 40ZM19.1779 37.3979H19.2399C19.4359 37.3979 19.6015 37.5431 19.6273 37.7373C19.7629 38.7618 20.2196 39.2187 21.108 39.2187H23.9599C24.0879 39.2187 24.2059 39.1667 24.2837 39.0761C24.3268 39.0258 24.3748 38.9428 24.3582 38.8331C24.2938 38.4114 24.0387 38.1073 23.578 37.9036C23.3223 37.7904 23.1429 37.5629 23.098 37.295C23.0543 37.0336 23.1462 36.7679 23.3437 36.5845C25.252 34.8139 30.9991 28.5875 25.5321 22.2422C23.6551 22.8051 21.5316 23.0903 19.2157 23.0903C16.9054 23.0903 14.7866 22.8065 12.913 22.2464C7.45211 28.5903 13.1973 34.8145 15.1049 36.5845C15.3026 36.7679 15.3945 37.0336 15.3507 37.295C15.3059 37.5629 15.1265 37.7903 14.8709 37.9036C14.4102 38.1073 14.1551 38.4114 14.0907 38.8331C14.074 38.9428 14.122 39.0258 14.1652 39.0761C14.243 39.1667 14.361 39.2187 14.489 39.2187H17.3102C18.1987 39.2187 18.6554 38.7618 18.7909 37.7373C18.8163 37.5431 18.982 37.3979 19.1779 37.3979Z" fill="black"/>
<path d="M19.2179 27.8075C18.0493 27.8075 17.0986 26.8569 17.0986 25.6883C17.0986 24.5197 18.0493 23.5691 19.2179 23.5691C20.3864 23.5691 21.3371 24.5197 21.3371 25.6883C21.3371 26.8569 20.3864 27.8075 19.2179 27.8075ZM19.2179 24.3503C18.48 24.3503 17.8799 24.9505 17.8799 25.6883C17.8799 26.4261 18.48 27.0263 19.2179 27.0263C19.9557 27.0263 20.5558 26.4261 20.5558 25.6883C20.5558 24.9505 19.9557 24.3503 19.2179 24.3503Z" fill="black"/>
<path d="M20.3412 24.767C20.2484 24.767 20.1581 24.7338 20.087 24.6729C19.8443 24.4649 19.5358 24.3506 19.2178 24.3506C18.8998 24.3506 18.5911 24.4651 18.3484 24.6731C18.2676 24.7423 18.1623 24.7751 18.0561 24.7652C15.5143 24.5159 13.5543 23.4781 13.0629 22.1213C13.0133 21.9841 13.044 21.8309 13.1429 21.7235C13.2417 21.6162 13.3923 21.5732 13.5328 21.6113C15.234 22.0745 17.1459 22.3095 19.2156 22.3095C21.2868 22.3095 23.2003 22.0741 24.9028 21.6099C25.0434 21.5716 25.1937 21.6148 25.2926 21.722C25.3915 21.8291 25.4225 21.9824 25.3729 22.1196C24.8825 23.4771 22.9223 24.5156 20.3793 24.7652C20.3665 24.7663 20.3539 24.767 20.3412 24.767ZM14.3418 22.6102C15.0831 23.2784 16.422 23.7946 17.9778 23.9712C18.3379 23.7109 18.772 23.5691 19.2178 23.5691C19.6637 23.5691 20.0976 23.7109 20.4578 23.9712C22.0147 23.7945 23.3543 23.2777 24.0951 22.609C22.5929 22.9288 20.9565 23.0907 19.2156 23.0907C17.4768 23.0906 15.8423 22.9293 14.3418 22.6102Z" fill="black"/>
<path d="M19.2179 27.8075C18.0493 27.8075 17.0986 26.8568 17.0986 25.6882C17.0986 25.4725 17.2735 25.2976 17.4893 25.2976H20.9464C21.1622 25.2976 21.3371 25.4725 21.3371 25.6882C21.3371 26.8568 20.3864 27.8075 19.2179 27.8075ZM17.938 26.0789C18.1055 26.6267 18.616 27.0262 19.2179 27.0262C19.8197 27.0262 20.3302 26.6267 20.4977 26.0789H17.938Z" fill="black"/>
<path d="M19.1978 26.5503C18.982 26.5503 18.8071 26.3754 18.8071 26.1596V25.6882C18.8071 25.4725 18.982 25.2976 19.1978 25.2976C19.4135 25.2976 19.5884 25.4725 19.5884 25.6882V26.1596C19.5884 26.3754 19.4135 26.5503 19.1978 26.5503Z" fill="black"/>
<path d="M19.2962 16.1786C18.407 16.1786 17.5698 15.0733 17.5698 14.2166C17.5698 13.9514 17.6533 13.7517 17.8176 13.6231C18.0883 13.4111 18.4278 13.4955 18.7562 13.5769C18.9387 13.6222 19.1275 13.6689 19.2962 13.6689C19.465 13.6689 19.6537 13.6222 19.8362 13.5769C20.1645 13.4955 20.504 13.4112 20.7748 13.6231C20.9394 13.7517 21.0226 13.9516 21.0226 14.2166C21.0226 15.0733 20.1855 16.1786 19.2962 16.1786ZM18.3547 14.2856C18.4026 14.7653 18.9258 15.3975 19.2962 15.3975C19.6667 15.3975 20.19 14.7655 20.2378 14.2856C20.1689 14.2992 20.0873 14.3195 20.024 14.3352C19.8175 14.3864 19.5603 14.4502 19.2962 14.4502C19.0322 14.4502 18.775 14.3864 18.5684 14.3352C18.5051 14.3195 18.4236 14.2992 18.3547 14.2856Z" fill="black"/>
<path d="M21.3172 17.991C21.2544 17.991 21.1903 17.9887 21.1248 17.984C18.937 17.8278 18.9059 15.8826 18.9058 15.8629C18.9051 15.6471 19.0795 15.4718 19.2953 15.4712H19.2964C19.5108 15.4712 19.685 15.644 19.687 15.8582C19.6894 15.9873 19.7522 17.1026 21.1805 17.2048C21.5615 17.2317 21.8533 17.1488 22.0683 16.9503C22.484 16.5663 22.4945 15.8673 22.4945 15.8603C22.4962 15.6453 22.6759 15.4762 22.8867 15.4721C23.1017 15.4729 23.2758 15.6468 23.2758 15.862C23.2758 15.9042 23.2681 16.9006 22.6036 17.5195C22.267 17.8326 21.8348 17.991 21.3172 17.991Z" fill="black"/>
<path d="M17.276 17.991C16.7582 17.991 16.3261 17.8328 15.9896 17.5193C15.325 16.9006 15.3174 15.9038 15.3174 15.8618C15.3174 15.646 15.4922 15.4712 15.708 15.4712C15.9238 15.4712 16.0986 15.646 16.0986 15.8618C16.0986 15.8673 16.1091 16.5663 16.5249 16.9503C16.7399 17.1488 17.0303 17.2326 17.4127 17.2048C18.8855 17.0996 18.906 15.9112 18.9061 15.8607C18.9068 15.6454 19.0816 15.4712 19.2968 15.4712H19.2978C19.5136 15.4718 19.688 15.6471 19.6874 15.8629C19.6874 15.8824 19.6563 17.8276 17.4683 17.984C17.4028 17.9885 17.3388 17.991 17.276 17.991Z" fill="black"/>
<path d="M19.2963 20.736C18.1687 20.736 17.2474 19.4606 17.0559 17.6345C17.0448 17.5294 17.077 17.4242 17.1448 17.3431C17.2126 17.262 17.3105 17.2119 17.4159 17.2042C18.8421 17.1003 18.9034 15.9847 18.9057 15.8577C18.9096 15.6445 19.0835 15.4727 19.2963 15.4727H19.2993C19.5127 15.4742 19.6851 15.6452 19.687 15.8583C19.6895 15.9877 19.7524 17.1006 21.1768 17.2042C21.2823 17.2119 21.3801 17.262 21.4479 17.3431C21.5159 17.4242 21.5479 17.5294 21.5368 17.6345C21.3452 19.4606 20.424 20.736 19.2963 20.736ZM17.8862 17.9281C18.0963 19.0906 18.6813 19.9549 19.2963 19.9549C19.9113 19.9549 20.4963 19.0906 20.7065 17.9281C19.9879 17.7834 19.5559 17.42 19.2963 17.0375C19.0368 17.42 18.6049 17.7834 17.8862 17.9281Z" fill="black"/>
<path d="M35.3253 16.0217C35.2948 16.0217 35.2639 16.0182 35.233 16.0107C30.1645 14.7819 25.6538 15.0747 25.6089 15.0778C25.3925 15.0919 25.2072 14.9302 25.1923 14.715C25.1775 14.4999 25.34 14.3133 25.5552 14.2985C25.6013 14.2955 30.2328 13.9947 35.417 15.2514C35.6267 15.3022 35.7555 15.5135 35.7047 15.7232C35.6614 15.9017 35.5014 16.0217 35.3253 16.0217Z" fill="black"/>
<path d="M34.909 19.8461C34.8482 19.8461 34.7867 19.8318 34.729 19.8018C30.1025 17.3947 25.6529 16.5986 25.6086 16.5907C25.3961 16.5536 25.2539 16.3512 25.2911 16.1386C25.3283 15.9261 25.5304 15.784 25.7433 15.8211C25.7889 15.829 30.3573 16.6465 35.0896 19.1087C35.2811 19.2082 35.3554 19.4442 35.2559 19.6356C35.1862 19.7695 35.05 19.8461 34.909 19.8461Z" fill="black"/>
<path d="M3.42462 16.0217C3.24853 16.0217 3.08869 15.9017 3.04525 15.723C2.99447 15.5133 3.12322 15.3022 3.33291 15.2513C8.51728 13.9945 13.1485 14.2952 13.1948 14.2983C13.4099 14.3131 13.5724 14.4997 13.5576 14.7149C13.5429 14.93 13.3563 15.0917 13.1412 15.0778C13.0959 15.0747 8.57915 14.7833 3.51697 16.0106C3.48603 16.0181 3.45494 16.0217 3.42462 16.0217Z" fill="black"/>
<path d="M3.84123 19.846C3.70014 19.846 3.56404 19.7694 3.49435 19.6355C3.39482 19.4441 3.4692 19.2084 3.6606 19.1087C8.3931 16.6465 12.9615 15.829 13.007 15.821C13.22 15.7841 13.4219 15.926 13.459 16.1385C13.4962 16.351 13.354 16.5534 13.1417 16.5907C13.0972 16.5985 8.64185 17.3977 4.02107 19.8018C3.96373 19.8318 3.90201 19.846 3.84123 19.846Z" fill="black"/>
<path d="M21.585 13.0245C21.3698 13.0245 21.195 12.8504 21.1943 12.6351C21.1917 11.8086 21.862 11.134 22.6884 11.1314C23.0932 11.1292 23.4657 11.2847 23.7498 11.567C24.0337 11.8492 24.1909 12.2251 24.1923 12.6254C24.1929 12.8412 24.0187 13.0167 23.8029 13.0173C23.8025 13.0173 23.802 13.0173 23.8017 13.0173C23.5865 13.0173 23.4117 12.8432 23.4111 12.6279C23.4104 12.4361 23.3353 12.2562 23.1992 12.1211C23.0637 11.9865 22.8842 11.9125 22.6934 11.9125C22.6926 11.9125 22.6918 11.9125 22.6911 11.9125C22.2953 11.9137 21.9743 12.2368 21.9756 12.6325C21.9762 12.8482 21.802 13.0236 21.5862 13.0243C21.5857 13.0245 21.5853 13.0245 21.585 13.0245Z" fill="black"/>
<path d="M16.9281 13.0209C16.7124 13.0209 16.5375 12.846 16.5375 12.6303C16.5375 12.2345 16.2155 11.9126 15.8197 11.9126C15.4239 11.9126 15.1021 12.2346 15.1021 12.6303C15.1021 12.846 14.9272 13.0209 14.7114 13.0209C14.4956 13.0209 14.3208 12.846 14.3208 12.6303C14.3208 11.8037 14.9933 11.1313 15.8197 11.1313C16.6463 11.1313 17.3188 11.8038 17.3188 12.6303C17.3188 12.846 17.1439 13.0209 16.9281 13.0209Z" fill="black"/>
<path d="M8.7917 10.1775C8.72951 10.1775 8.66655 10.1626 8.6078 10.1312C7.02045 9.28261 6.11998 7.66479 5.93186 5.32245C5.7803 3.43526 6.14389 1.51979 6.3742 0.546044C6.38592 0.496669 6.40326 0.459013 6.41139 0.440888C6.46936 0.298388 6.60514 0.203857 6.75889 0.198232C6.91186 0.192919 7.05498 0.278544 7.12311 0.416513C7.44764 1.07401 8.65389 3.26839 10.5469 3.89948C11.4442 4.19854 11.9951 4.66417 12.1844 5.28308C12.3497 5.8237 12.187 6.34089 12.0256 6.67417L12.3622 6.87604C12.5055 6.96198 12.5781 7.12964 12.5431 7.29292C12.3815 8.04714 11.6745 9.47339 10.1559 9.47339C9.94014 9.47339 9.7653 9.29854 9.7653 9.08276C9.7653 8.86698 9.94014 8.69214 10.1559 8.69214C11.1042 8.69214 11.5384 7.83448 11.6998 7.38979L11.2919 7.14511C11.1964 7.08776 11.1298 6.99245 11.109 6.88292C11.0883 6.77339 11.1153 6.66026 11.1833 6.57198C11.1864 6.56792 11.5947 6.01792 11.4362 5.50792C11.3237 5.14636 10.9414 4.85448 10.3 4.64057C8.71905 4.1137 7.58045 2.69323 6.93733 1.67542C6.76108 2.65464 6.60701 3.96886 6.71076 5.25995C6.87639 7.32011 7.63858 8.72714 8.97639 9.44229C9.16655 9.54401 9.23842 9.78073 9.1367 9.97089C9.06608 10.1024 8.93108 10.1775 8.7917 10.1775Z" fill="black"/>
<path d="M19.2964 20.7359C18.7063 20.7359 18.1514 20.3786 17.7344 19.7296C17.6517 19.6011 17.6517 19.4362 17.7342 19.3076C18.1511 18.6578 18.7059 18.2998 19.2966 18.2998C19.8872 18.2998 20.442 18.6578 20.8589 19.3076C20.9414 19.4362 20.9413 19.6012 20.8588 19.7298C20.4414 20.3786 19.8866 20.7359 19.2964 20.7359ZM18.5452 19.5182C18.7217 19.732 18.9814 19.9546 19.2964 19.9546C19.6114 19.9546 19.8711 19.732 20.0478 19.5182C19.8713 19.3042 19.6117 19.0811 19.2964 19.0811C18.9813 19.0811 18.7216 19.3042 18.5452 19.5182Z" fill="black"/>
</g>
<defs>
<clipPath id="clip0">
<rect width="40" height="40" fill="white"/>
</clipPath>
</defs>
</svg>
