<svg width="18" height="18" viewBox="0 0 18 18" fill="none" xmlns="http://www.w3.org/2000/svg">
<path d="M9 2.34783C12.6681 2.34783 15.6522 5.3323 15.6522 9C15.6522 12.6685 12.6681 15.6522 9 15.6522C5.33191 15.6522 2.34783 12.6685 2.34783 9C2.34783 5.3323 5.33191 2.34783 9 2.34783ZM9 0C4.02965 0 0 4.02965 0 9C0 13.9707 4.02965 18 9 18C13.9703 18 18 13.9707 18 9C18 4.02965 13.9703 0 9 0Z" fill="#00AB88"/>
<path d="M8.17306 12.7105C7.93475 12.9484 7.61076 13.0826 7.27384 13.0826C6.93693 13.0826 6.61293 12.9484 6.37462 12.7105L3.58776 9.92319C3.09119 9.42663 3.09119 8.62133 3.58776 8.12476C4.08471 7.6278 4.88963 7.6278 5.38658 8.12476L7.04689 9.78467C7.17249 9.90989 7.37558 9.90989 7.50119 9.78467L11.9969 5.28898C12.4942 4.79202 13.2988 4.79202 13.7957 5.28898C14.2927 5.78593 14.2927 6.59085 13.7957 7.0878L8.17306 12.7105Z" fill="#00AB88"/>
</svg>
