<svg width="40" height="40" viewBox="0 0 40 40" fill="none" xmlns="http://www.w3.org/2000/svg">
<g clip-path="url(#clip0)">
<path d="M23.9778 12.0115C21.877 10.9612 21.1948 8.78978 20.9742 7.57025C20.8821 7.06197 20.4443 6.68994 19.9278 6.68994C19.4112 6.68994 18.9734 7.06197 18.8813 7.57025C18.6607 8.78963 17.9785 10.9612 15.8777 12.0115C12.8638 13.5185 12.8638 17.0976 15.501 18.2279C18.0749 19.331 19.9278 16.3912 19.9278 16.3912C19.9278 16.3912 21.7806 19.3309 24.3545 18.2279C26.9918 17.0976 26.9918 13.5185 23.9778 12.0115Z" fill="#F4DBCE"/>
<path d="M21.6758 12.6057C21.6758 13.4574 20.7797 14.3462 19.928 14.3462C19.0763 14.3462 18.1802 13.4574 18.1802 12.6057C18.1802 11.754 19.0763 12.0973 19.928 12.0973C20.7797 12.0971 21.6758 11.754 21.6758 12.6057Z" fill="#7D3D1A"/>
<path d="M23.2072 18.8623C21.7872 18.8623 20.6044 17.8979 19.9279 17.0588C19.0532 18.1432 17.3321 19.4376 15.3472 18.5868C14.0299 18.0223 13.2193 16.8637 13.1788 15.4876C13.133 13.9293 14.1002 12.4635 15.7032 11.6621C17.6558 10.6857 18.2918 8.63572 18.4971 7.50072C18.623 6.80447 19.2249 6.29932 19.9279 6.29932C20.631 6.29932 21.2327 6.80463 21.3586 7.50072C21.564 8.63572 22.1999 10.6857 24.1526 11.6621C25.7554 12.4635 26.7227 13.9293 26.6769 15.4876C26.6365 16.8637 25.8258 18.0223 24.5085 18.5868C24.0591 18.7795 23.623 18.8621 23.2072 18.8623ZM19.9279 16.0006C20.0619 16.0006 20.1868 16.0693 20.2583 16.1829C20.2624 16.1893 20.7044 16.879 21.4291 17.4248C22.3454 18.1149 23.2779 18.2645 24.2008 17.8688C25.2311 17.4273 25.8647 16.5285 25.8961 15.4648C25.9329 14.2142 25.131 13.0248 23.8033 12.361C21.5465 11.2326 20.8213 8.91869 20.5901 7.63994C20.5315 7.31588 20.253 7.08072 19.928 7.08072C19.603 7.08072 19.3246 7.31588 19.266 7.6401C19.0347 8.91885 18.3096 11.2326 16.0527 12.361C14.7251 13.0249 13.9232 14.2142 13.9599 15.4649C13.9911 16.5287 14.6249 17.4274 15.6552 17.869C17.8968 18.8298 19.581 16.2096 19.5977 16.1831C19.669 16.0695 19.7938 16.0006 19.9279 16.0006Z" fill="black"/>
<path d="M19.9277 14.737C18.8484 14.737 17.7891 13.6814 17.7891 12.6059C17.7891 12.293 17.883 12.0488 18.0681 11.88C18.3961 11.5811 18.8698 11.6252 19.3711 11.6717C19.5558 11.6889 19.7466 11.7067 19.9275 11.7067C20.1084 11.7067 20.2992 11.6889 20.4839 11.6717C20.9852 11.625 21.4587 11.5809 21.7869 11.88C21.972 12.0488 22.0659 12.293 22.0659 12.6059C22.0661 13.6814 21.0069 14.737 19.9277 14.737ZM18.8245 12.4198C18.7133 12.4198 18.6233 12.4294 18.5944 12.4575C18.5942 12.4577 18.5705 12.49 18.5705 12.6059C18.5705 13.2367 19.2934 13.9558 19.9278 13.9558C20.5622 13.9558 21.285 13.2367 21.285 12.6059C21.285 12.4902 21.2613 12.4578 21.2609 12.4575C21.1923 12.3906 20.7789 12.4291 20.5566 12.4498C20.3544 12.4688 20.145 12.4881 19.9278 12.4881C19.7106 12.4881 19.5014 12.4686 19.2991 12.4498C19.1702 12.4378 18.9775 12.4198 18.8245 12.4198Z" fill="black"/>
<path d="M19.894 16.8836C19.6783 16.8836 19.5034 16.7088 19.5034 16.493V14.6528C19.5034 14.4371 19.6783 14.2622 19.894 14.2622C20.1098 14.2622 20.2847 14.4371 20.2847 14.6528V16.493C20.2847 16.7088 20.1098 16.8836 19.894 16.8836Z" fill="black"/>
<path d="M26.3847 0.805601C26.1342 0.799195 25.9119 0.802164 25.7149 0.812789C24.9778 0.852789 24.7006 1.81201 25.3085 2.23076C25.911 2.64591 26.5569 3.4242 26.5842 4.85795C26.6358 7.56841 27.9389 15.1086 29.8683 14.4967C31.3596 14.0237 28.5022 11.6223 31.7308 8.42701C34.9592 5.2317 29.1088 0.875914 26.3847 0.805601Z" fill="#EAA250"/>
<path d="M13.4801 0.805601C13.7305 0.799195 13.9529 0.802164 14.1499 0.812789C14.8869 0.852789 15.1641 1.81201 14.5563 2.23076C13.9538 2.64591 13.3079 3.4242 13.2805 4.85795C13.229 7.56841 11.9258 15.1086 9.99647 14.4967C8.50522 14.0237 11.3626 11.6223 8.13397 8.42701C4.90569 5.2317 10.7562 0.875914 13.4801 0.805601Z" fill="#EAA250"/>
<path d="M26.5843 4.8578C26.557 3.42405 25.9111 2.64577 25.3086 2.23061C24.9703 1.99764 24.9068 1.59749 25.0436 1.28124C23.7589 0.513425 22.5447 0.353269 21.6217 0.397644C20.4925 0.451862 19.3629 0.451862 18.2337 0.397644C17.3128 0.353425 16.1015 0.512956 14.8198 1.27671C14.959 1.59358 14.8962 1.99655 14.5564 2.23077C13.9539 2.64592 13.3079 3.42421 13.2806 4.85796C13.2332 7.34717 12.1301 13.9089 10.4561 14.4898C10.7768 16.1745 12.6551 17.243 14.8392 17.8561C12.8896 16.455 13.1417 13.3797 15.8776 12.0117C17.9784 10.9614 18.6606 8.78999 18.8812 7.57046C18.9732 7.06217 19.4111 6.69014 19.9276 6.69014C20.4442 6.69014 20.882 7.06217 20.974 7.57046C21.1946 8.78983 21.8768 10.9614 23.9776 12.0117C26.7136 13.3797 26.9656 16.455 25.0161 17.8561C27.2017 17.2425 29.0809 16.173 29.3998 14.4864C27.7307 13.8847 26.6317 7.34249 26.5843 4.8578Z" fill="#EAA250"/>
<path d="M29.6471 14.9224C29.4385 14.9224 29.1925 14.8625 28.9324 14.6758C28.1672 14.1269 27.4946 12.6106 26.9333 10.1696C26.4552 8.08971 26.2149 5.96221 26.1941 4.86549C26.1743 3.82315 25.8018 3.04502 25.0872 2.55252C24.6724 2.26674 24.493 1.76658 24.6307 1.2783C24.7693 0.786272 25.1868 0.450334 25.6943 0.422834C25.9078 0.411115 26.1436 0.408615 26.3953 0.415178C28.4341 0.467834 31.8594 2.65158 32.8021 5.03112C33.3393 6.38721 33.0641 7.65768 32.006 8.70471C30.1882 10.5038 30.4443 11.9771 30.6311 13.0528C30.7555 13.7689 30.8966 14.5806 29.9868 14.8691C29.8916 14.8994 29.7764 14.9224 29.6471 14.9224ZM26.13 1.19299C25.9908 1.19299 25.8593 1.19627 25.7363 1.20299C25.4791 1.2169 25.4004 1.42627 25.3824 1.49002C25.3649 1.55237 25.3236 1.76674 25.5303 1.90908C26.1722 2.35143 26.9439 3.2208 26.9752 4.85049C27.0244 7.4394 28.0772 13.1006 29.3879 14.041C29.5579 14.163 29.671 14.1496 29.7505 14.1244C29.9605 14.0578 30.0044 14.0106 29.8613 13.1866C29.6694 12.083 29.3485 10.2356 31.4563 8.14955C32.2861 7.32846 32.4944 6.37596 32.0757 5.31893C31.1972 3.10174 27.9979 1.23815 26.3752 1.19612C26.2911 1.19408 26.2094 1.19299 26.13 1.19299Z" fill="black"/>
<path d="M10.2182 14.9222C10.0887 14.9222 9.97367 14.8992 9.87867 14.8689C8.96883 14.5805 9.10992 13.7688 9.2343 13.0527C9.42117 11.9769 9.67727 10.5038 7.85945 8.70456C6.80148 7.65737 6.52617 6.38706 7.06336 5.03097C8.00617 2.65159 11.4315 0.467841 13.4702 0.415185C13.7216 0.408623 13.9577 0.411123 14.1713 0.422685C14.6788 0.450185 15.0963 0.786123 15.2349 1.27815C15.3724 1.76644 15.1932 2.26659 14.7784 2.55237C14.0637 3.04487 13.6912 3.823 13.6715 4.8655C13.6507 5.96222 13.4104 8.08972 12.9323 10.1696C12.371 12.6108 11.6984 14.1269 10.9332 14.6758C10.6729 14.8624 10.4268 14.9222 10.2182 14.9222ZM13.7354 1.19284C13.656 1.19284 13.5743 1.19394 13.4905 1.19612C11.8677 1.238 8.66836 3.10175 7.78977 5.31894C7.37102 6.37597 7.5793 7.32831 8.40914 8.14956C10.517 10.2357 10.1959 12.083 10.0041 13.1866C9.86086 14.0108 9.90492 14.0578 10.1149 14.1244C10.1945 14.1499 10.3074 14.1632 10.4776 14.0411C11.058 13.6247 11.6751 12.1499 12.1705 9.99456C12.6362 7.96909 12.8701 5.90831 12.8901 4.85081C12.9212 3.22112 13.6929 2.35175 14.3349 1.90925C14.5416 1.7669 14.5004 1.55253 14.4829 1.49019C14.4649 1.42644 14.3862 1.2169 14.129 1.203C14.0063 1.19612 13.8745 1.19284 13.7354 1.19284ZM13.4802 0.805654H13.4818H13.4802Z" fill="black"/>
<path d="M25.0161 18.2468C24.8692 18.2468 24.7305 18.1634 24.6642 18.0254C24.5821 17.8546 24.6344 17.6495 24.7883 17.5388C25.5635 16.9818 25.9642 16.1145 25.888 15.1593C25.7964 14.014 25.0171 12.9681 23.8031 12.361C21.5464 11.2326 20.8213 8.91884 20.5899 7.64009C20.5313 7.31603 20.2528 7.08072 19.9278 7.08072C19.6028 7.08072 19.3244 7.31588 19.2658 7.64009C19.0346 8.91884 18.3094 11.2326 16.0525 12.361C14.8386 12.9681 14.0592 14.0142 13.9677 15.1593C13.8913 16.1145 14.2922 16.9818 15.0674 17.5388C15.2213 17.6495 15.2736 17.8546 15.1914 18.0254C15.1092 18.1962 14.9163 18.2834 14.7338 18.2321C11.995 17.4634 10.3831 16.1945 10.0724 14.5629C10.0361 14.3724 10.145 14.1843 10.3281 14.1207C10.5441 14.0457 11.3103 13.5485 12.0989 10.2974C12.5888 8.27775 12.8678 6.02853 12.8902 4.85056C12.9213 3.22088 13.693 2.3515 14.335 1.909C14.5255 1.77775 14.5227 1.57103 14.4624 1.43369C14.3831 1.25322 14.4506 1.04197 14.62 0.941031C15.7621 0.260562 16.985 -0.0541253 18.2525 0.007281C19.3642 0.0607185 20.4914 0.0607185 21.603 0.007281C22.8749 -0.0535002 24.0999 0.261969 25.2441 0.945875C25.4124 1.0465 25.48 1.25619 25.4022 1.43619C25.3431 1.57291 25.3413 1.77869 25.5303 1.90884C26.1724 2.35134 26.9441 3.22072 26.9752 4.85025C27.0292 7.69025 28.2205 13.6457 29.5325 14.1185C29.713 14.1837 29.8196 14.3701 29.7839 14.5585C29.475 16.1921 27.8631 17.4623 25.1221 18.2317C25.0866 18.2421 25.0511 18.2468 25.0161 18.2468ZM10.9086 14.6876C11.2571 15.7765 12.3842 16.5199 13.5897 17.0176C13.278 16.4424 13.1342 15.7804 13.1888 15.0971C13.3024 13.6768 14.2422 12.3928 15.703 11.6624C17.6556 10.686 18.2916 8.63603 18.4969 7.50103C18.6228 6.80478 19.2246 6.29963 19.9277 6.29963C20.6308 6.29963 21.2325 6.80494 21.3585 7.50103C21.5638 8.63603 22.2 10.6862 24.1524 11.6624C25.6131 12.3928 26.553 13.6768 26.6666 15.0971C26.7213 15.7803 26.5774 16.4424 26.2656 17.0176C27.4731 16.519 28.6019 15.774 28.9483 14.682C27.1322 13.372 26.2327 6.90494 26.1939 4.86541C26.1741 3.82306 25.8016 3.04478 25.0871 2.55228C24.7261 2.30353 24.5463 1.89119 24.5924 1.47416C23.6556 0.969469 22.6631 0.738375 21.6405 0.78775C20.5041 0.842437 19.3516 0.842437 18.215 0.78775C17.1956 0.739 16.2067 0.967906 15.2728 1.469C15.3211 1.88775 15.1414 2.30212 14.7781 2.55228C14.0636 3.04478 13.6911 3.82291 13.6713 4.86541C13.6322 6.91244 12.7299 13.3892 10.9086 14.6876Z" fill="black"/>
<path d="M21.8172 18.1287C20.6492 17.5359 19.9276 16.3914 19.9276 16.3914C19.9276 16.3914 19.1754 17.5826 17.9648 18.1635L17.704 19.8265C17.4931 21.1712 18.5326 22.3865 19.8939 22.3865C21.2551 22.3865 22.2947 21.1712 22.0837 19.8265L21.8172 18.1287Z" fill="#FD605B"/>
<path d="M21.708 18.0686C21.7444 18.0886 21.7799 18.1095 21.8172 18.1284L22.0835 19.8263C22.1435 20.2088 22.0994 20.5795 21.9785 20.9161C22.8824 20.3633 23.615 19.4555 24.0483 18.3392C23.1543 18.6202 22.3574 18.425 21.708 18.0686Z" fill="#52565B"/>
<path d="M17.704 19.8266L17.9648 18.1636C17.9792 18.1568 17.9926 18.1488 18.007 18.1416C17.3982 18.443 16.6709 18.5932 15.8623 18.3558C16.2723 19.4032 16.9451 20.2683 17.7767 20.8246C17.68 20.513 17.6495 20.1744 17.704 19.8266Z" fill="#52565B"/>
<path d="M17.7765 20.8247C16.945 20.2684 16.2722 19.4033 15.8622 18.3559C15.7433 18.3211 15.6231 18.2805 15.5008 18.228C15.2575 18.1238 15.0372 17.9984 14.839 17.8561C13.8697 17.5839 12.9615 17.2216 12.2222 16.7561C12.7958 19.0675 15.1104 20.9072 18.0864 21.4513C17.9517 21.2613 17.8465 21.0503 17.7765 20.8247Z" fill="#039BE6"/>
<path d="M25.016 17.8558C24.8179 17.9982 24.5976 18.1235 24.3543 18.2277C24.2509 18.2721 24.1492 18.3076 24.0482 18.3393C23.6149 19.4554 22.8824 20.3633 21.9785 20.9162C21.9085 21.1108 21.8132 21.294 21.6938 21.4601C24.6876 20.9296 27.0224 19.0899 27.6067 16.7732C26.8721 17.2307 25.9735 17.5871 25.016 17.8558Z" fill="#039BE6"/>
<path d="M19.8939 22.7771C19.1308 22.7771 18.4086 22.4446 17.9126 21.8646C17.4166 21.2847 17.2 20.5197 17.3183 19.7658L17.579 18.103C17.5989 17.976 17.68 17.8669 17.7959 17.8113C18.8926 17.2849 19.5906 16.1935 19.5975 16.1825C19.669 16.0692 19.7937 16.0005 19.9278 16.0005C20.062 16.0005 20.1867 16.0694 20.2581 16.1828C20.2645 16.1928 20.9411 17.2458 21.994 17.7802C22.1059 17.8371 22.1837 17.9441 22.2031 18.068L22.4694 19.7658C22.5876 20.5197 22.3711 21.2846 21.875 21.8646C21.3792 22.4446 20.657 22.7771 19.8939 22.7771ZM18.3201 18.4203L18.0901 19.8869C18.0073 20.4149 18.159 20.9507 18.5064 21.3567C18.8539 21.7628 19.3595 21.9958 19.894 21.9958C20.4286 21.9958 20.9342 21.7628 21.2815 21.3567C21.6289 20.9507 21.7806 20.4149 21.6978 19.8869L21.4615 18.3803C20.7686 17.9855 20.2417 17.4325 19.9276 17.0475C19.6023 17.4456 19.0494 18.0238 18.3201 18.4203Z" fill="black"/>
<path d="M21.9787 21.3071C21.8909 21.3071 21.8034 21.2776 21.732 21.2193C21.6036 21.1146 21.555 20.9402 21.6111 20.7843C21.7162 20.4918 21.7453 20.1899 21.6978 19.8871L21.46 18.3705C21.3175 18.2535 21.2737 18.0483 21.3656 17.8808C21.4692 17.6918 21.7065 17.6224 21.8959 17.7262L21.8961 17.7263C22.5726 18.0977 23.2572 18.1787 23.9314 17.9668C24.0745 17.9219 24.2309 17.9629 24.3336 18.0726C24.4362 18.1823 24.4669 18.341 24.4125 18.4808C23.9511 19.669 23.1592 20.6523 22.1823 21.2496C22.1195 21.2882 22.049 21.3071 21.9787 21.3071ZM22.3086 18.7398L22.4695 19.7662C22.4828 19.851 22.492 19.936 22.4969 20.0207C22.8361 19.6919 23.1334 19.2996 23.3758 18.8598C23.0189 18.8808 22.6629 18.8408 22.3086 18.7398Z" fill="black"/>
<path d="M17.7767 21.2154C17.7011 21.2154 17.6255 21.1935 17.5595 21.1495C16.6656 20.5515 15.9338 19.61 15.4986 18.4984C15.4442 18.3596 15.4736 18.2021 15.5744 18.0921C15.675 17.9821 15.8294 17.9393 15.9723 17.9812C16.588 18.162 17.2145 18.0982 17.8338 17.7917C18.027 17.6959 18.2613 17.775 18.357 17.9681C18.4222 18.0995 18.4066 18.25 18.3292 18.3629L18.0902 19.8871C18.0467 20.1645 18.0669 20.441 18.15 20.709C18.1991 20.867 18.1433 21.0389 18.0105 21.1378C17.9413 21.1895 17.8591 21.2154 17.7767 21.2154ZM16.5295 18.8614C16.7456 19.2534 17.0056 19.6089 17.2994 19.9143C17.3042 19.865 17.3106 19.8156 17.3184 19.766L17.4766 18.7578C17.1619 18.8404 16.8464 18.875 16.5295 18.8614Z" fill="black"/>
<path d="M23.1812 9.12947C22.966 9.12947 22.7912 8.95541 22.7905 8.7401C22.7893 8.35228 22.9391 7.98728 23.2124 7.71213C23.4858 7.43713 23.8499 7.28494 24.2377 7.28369H24.2426C24.6285 7.28369 24.9916 7.43338 25.2655 7.70557C25.5407 7.97885 25.6927 8.34291 25.6941 8.73072C25.6947 8.9465 25.5205 9.12197 25.3048 9.1226C25.3043 9.1226 25.3038 9.1226 25.3035 9.1226C25.0883 9.1226 24.9135 8.94853 24.9129 8.73322C24.9123 8.55416 24.8419 8.38588 24.7149 8.25978C24.5879 8.13353 24.4208 8.06353 24.2402 8.06494C24.0612 8.06541 23.8929 8.13572 23.7666 8.26291C23.6404 8.38994 23.5712 8.55853 23.5718 8.7376C23.5724 8.95338 23.3982 9.12885 23.1824 9.12947C23.1821 9.12947 23.1816 9.12947 23.1812 9.12947Z" fill="black"/>
<path d="M16.7014 9.12603C16.4857 9.12603 16.3108 8.95119 16.3108 8.73541C16.3108 8.36572 16.01 8.06494 15.6402 8.06494C15.2704 8.06494 14.9697 8.36572 14.9697 8.73541C14.9697 8.95119 14.7949 9.12603 14.5791 9.12603C14.3633 9.12603 14.1885 8.95119 14.1885 8.73541C14.1885 7.93494 14.8397 7.28369 15.6402 7.28369C16.4408 7.28369 17.0921 7.93494 17.0921 8.73541C17.0921 8.95119 16.9172 9.12603 16.7014 9.12603Z" fill="black"/>
<path d="M18.0865 21.8417C18.0632 21.8417 18.0396 21.8397 18.0162 21.8353C14.8751 21.2611 12.4521 19.3044 11.8431 16.85C11.8046 16.6953 11.8642 16.5328 11.9932 16.4394C12.1225 16.3458 12.2954 16.3405 12.4303 16.4253C13.0935 16.8428 13.9395 17.1977 14.9446 17.4798C14.9885 17.4922 15.03 17.512 15.067 17.5386C15.246 17.6673 15.4439 17.7784 15.6546 17.8688C15.75 17.9097 15.8507 17.9453 15.9721 17.9809C16.0881 18.015 16.1817 18.1008 16.2259 18.2133C16.6034 19.1777 17.2314 19.9897 17.9937 20.4997C18.0681 20.5494 18.1231 20.6233 18.1496 20.7086C18.2068 20.8928 18.2928 21.0664 18.405 21.2245C18.4968 21.3541 18.5012 21.5264 18.4159 21.6605C18.3434 21.7747 18.2184 21.8417 18.0865 21.8417ZM12.9421 17.5853C13.6681 19.0486 15.1859 20.2252 17.1175 20.8147C16.4689 20.2631 15.932 19.5222 15.5698 18.6728C15.4917 18.6459 15.4185 18.6177 15.3468 18.5869C15.1062 18.4838 14.8782 18.3584 14.6687 18.2138C14.0342 18.0325 13.4568 17.8223 12.9421 17.5853Z" fill="black"/>
<path d="M21.6937 21.8509C21.5611 21.8509 21.4355 21.7832 21.3633 21.6684C21.2786 21.5339 21.2839 21.3615 21.3766 21.2324C21.4739 21.097 21.5526 20.9462 21.6109 20.7842C21.6411 20.7004 21.6987 20.6295 21.7747 20.5831C22.6062 20.0745 23.2845 19.2274 23.684 18.1981C23.727 18.0874 23.8178 18.0024 23.9311 17.9668C24.0355 17.934 24.1209 17.9029 24.2005 17.8689C24.4115 17.7784 24.6094 17.6673 24.7883 17.5389C24.8253 17.5121 24.8667 17.4923 24.9106 17.4799C25.9047 17.2009 26.7423 16.8517 27.4003 16.4418C27.5356 16.3578 27.7084 16.3639 27.837 16.4579C27.9658 16.5518 28.0245 16.7145 27.9856 16.869C27.3644 19.332 24.9215 21.2851 21.762 21.8449C21.7392 21.8489 21.7164 21.8509 21.6937 21.8509ZM24.343 18.6523C23.9865 19.4965 23.4609 20.2292 22.8212 20.7818C24.6965 20.1843 26.1692 19.0306 26.8845 17.5989C26.3775 17.8301 25.8097 18.0357 25.1865 18.2137C24.977 18.3582 24.7492 18.4837 24.5083 18.587C24.4551 18.6096 24.4008 18.6312 24.343 18.6523Z" fill="black"/>
<path d="M36.4092 23.5402L35.9138 23.2222C35.8633 23.1899 35.8539 23.1208 35.8923 23.0749C38.2456 20.2609 37.1984 17.073 36.9848 16.508C36.9659 16.458 36.9116 16.4328 36.8608 16.4495L36.4223 16.5939C36.3656 16.6127 36.3063 16.5763 36.2945 16.5177C35.7977 14.0405 33.9028 13.3313 33.3128 13.1683C33.2359 13.147 33.1688 13.2202 33.1934 13.2959C34.8384 18.3419 31.4405 22.1067 29.3906 23.8305C29.4133 24.0352 29.4334 24.2424 29.4508 24.452C30.822 24.4388 32.1744 24.7634 32.9425 25.8511C35.1691 25.0922 36.1791 23.9999 36.4338 23.6861C36.4709 23.6397 36.4592 23.5722 36.4092 23.5402Z" fill="#EAA250"/>
<path d="M32.9424 26.2415C32.818 26.2415 32.698 26.182 32.6233 26.0762C32.0349 25.2429 30.9714 24.8267 29.4546 24.8425C29.4533 24.8425 29.4521 24.8425 29.4508 24.8425C29.248 24.8425 29.0785 24.6868 29.0616 24.4843C29.0444 24.2782 29.0247 24.0745 29.0024 23.8732C28.988 23.7435 29.0394 23.6153 29.1393 23.5314C31.1852 21.8109 34.3843 18.209 32.8221 13.4168C32.7658 13.244 32.8086 13.0554 32.9338 12.9246C33.058 12.7946 33.2432 12.7437 33.4169 12.7917C34.0194 12.9581 35.9694 13.679 36.6046 16.1226L36.7389 16.0784C36.9886 15.9957 37.2574 16.124 37.3503 16.3696C37.5857 16.9921 38.6133 20.1668 36.3977 23.0685L36.6203 23.2115C36.738 23.287 36.8182 23.4092 36.8402 23.5468C36.8622 23.6839 36.8246 23.8243 36.7371 23.9323C36.4638 24.269 35.3916 25.4292 33.0685 26.2209C33.0269 26.2346 32.9844 26.2415 32.9424 26.2415ZM29.8078 24.0654C31.2728 24.1143 32.3702 24.5584 33.0774 25.3885C34.63 24.8162 35.5039 24.0949 35.9097 23.6837L35.7028 23.5509C35.5847 23.4751 35.5049 23.3521 35.4838 23.2134C35.4625 23.074 35.5024 22.9321 35.5928 22.8239C37.5589 20.4729 37.005 17.852 36.71 16.9101L36.5444 16.9646C36.4119 17.0084 36.2668 16.9931 36.1461 16.9228C36.0247 16.8521 35.9391 16.7324 35.9114 16.5943C35.5622 14.8528 34.4569 14.0703 33.7297 13.7368C34.283 15.8579 34.0472 17.957 33.0264 19.9843C32.1363 21.7518 30.811 23.121 29.8007 23.9939C29.803 24.0178 29.8053 24.0415 29.8078 24.0654Z" fill="black"/>
<path d="M22.4029 38.6407C22.453 38.348 22.5313 38.033 22.654 37.7636C22.8493 37.3344 22.9619 36.8758 22.9619 36.4083V27.4832C22.9619 26.4101 22.3488 25.4754 21.4377 24.9694C20.9818 24.7596 20.4719 24.6383 19.9329 24.6304C19.3938 24.6383 18.884 24.7596 18.428 24.9694C17.5171 25.4752 16.9038 26.4101 16.9038 27.4832V36.4083C16.9038 36.8758 17.0165 37.3344 17.2118 37.7636C17.3343 38.033 17.4127 38.348 17.4629 38.6407C17.4735 38.7024 17.4763 38.7632 17.4729 38.8227C18.2382 39.0974 19.066 39.2513 19.9329 39.2513C20.7997 39.2513 21.6277 39.0976 22.3929 38.8227C22.3894 38.7632 22.3922 38.7022 22.4029 38.6407Z" fill="#F4DBCE"/>
<path d="M30.7361 37.1531L32.6797 32.5482C35.0692 25.8421 32.2962 24.4242 29.4498 24.4518C29.7355 27.8917 29.2819 31.977 26.9739 36.0418C26.6984 36.527 26.8306 37.1265 27.2792 37.477C27.5605 37.6968 27.8659 37.9742 28.115 38.2952C28.4895 38.7777 28.1972 39.4363 27.6294 39.5796L27.6586 39.609H33.4895C34.1375 36.8462 30.7361 37.1531 30.7361 37.1531Z" fill="#EAA250"/>
<path d="M11.7502 38.2952C11.9994 37.9742 12.3047 37.6968 12.586 37.477C13.0346 37.1265 13.1668 36.527 12.8913 36.0418C10.5832 31.9771 10.1297 27.8917 10.4154 24.4518C7.56911 24.4242 4.79614 25.8421 7.18551 32.5482L9.12911 37.1531C9.12911 37.1531 5.7277 36.846 6.37567 39.609H12.2066L12.2358 39.5796C11.668 39.4363 11.3757 38.7777 11.7502 38.2952Z" fill="#EAA250"/>
<path d="M27.5667 16.9192C26.923 19.167 24.6248 20.9411 21.6942 21.4604V21.4603C21.2949 22.0165 20.6441 22.3865 19.8941 22.3865C19.1399 22.3865 18.4855 22.0125 18.0867 21.4511C15.2006 20.9236 12.9367 19.1773 12.2794 16.9642C10.9417 20.0987 8.38766 28.1108 12.8913 36.0418C13.1667 36.527 13.0345 37.1265 12.5859 37.477C12.3047 37.6968 11.9992 37.9742 11.7502 38.2953C11.3278 38.8395 11.7527 39.609 12.4656 39.609H16.5969C17.1394 39.609 17.5497 39.1479 17.4628 38.6406C17.4127 38.3479 17.3344 38.0329 17.2117 37.7636C17.0164 37.3343 16.9038 36.8758 16.9038 36.4083V27.4831C16.9038 25.8879 18.2558 24.5937 19.9328 24.569C21.6098 24.5939 22.9619 25.8879 22.9619 27.4831V36.4083C22.9619 36.8758 22.8492 37.3343 22.6539 37.7636C22.5314 38.0329 22.453 38.3479 22.4028 38.6406C22.3159 39.1481 22.7263 39.609 23.2688 39.609H27.4C28.1128 39.609 28.5378 38.8395 28.1155 38.2953C27.8663 37.9742 27.5609 37.6968 27.2797 37.477C26.8311 37.1265 26.6989 36.527 26.9744 36.0418C31.5 28.0717 28.8988 20.0206 27.5667 16.9192Z" fill="#EAA250"/>
<path d="M33.4898 39.9998H27.6589C27.5547 39.9998 27.455 39.9583 27.3815 39.8844L27.3523 39.855C27.2536 39.7555 27.2158 39.6105 27.2533 39.4753C27.2908 39.3402 27.3979 39.2355 27.534 39.2012C27.6912 39.1616 27.8203 39.0461 27.8704 38.9002C27.9012 38.8108 27.9151 38.6748 27.8067 38.5352C27.6103 38.2822 27.352 38.0298 27.0389 37.7852C26.4355 37.3136 26.2653 36.4995 26.6344 35.8494C28.5853 32.4137 29.4017 28.59 29.0608 24.4847C29.0517 24.3765 29.0881 24.2695 29.1614 24.1892C29.2347 24.1089 29.3376 24.0628 29.4462 24.0617C31.2286 24.0442 32.5095 24.5661 33.255 25.6123C34.2772 27.047 34.2075 29.4248 33.0478 32.6798C33.0453 32.6869 33.0426 32.6937 33.0397 32.7006L31.3258 36.7612C31.9592 36.7975 32.9236 36.9686 33.497 37.6284C33.9456 38.1448 34.0711 38.8414 33.8701 39.6987C33.8287 39.875 33.6712 39.9998 33.4898 39.9998ZM28.5851 39.2186H33.1648C33.2228 38.7609 33.138 38.4069 32.9084 38.1417C32.3894 37.5423 31.1889 37.5059 30.7708 37.5423C30.6361 37.5547 30.5014 37.4937 30.4208 37.3831C30.3401 37.2723 30.3231 37.1275 30.3764 37.0014L32.3158 32.4069C33.3814 29.412 33.4833 27.2784 32.6189 26.0653C32.0861 25.3175 31.1626 24.9097 29.8712 24.8498C30.1351 28.9522 29.2756 32.7803 27.3139 36.2348C27.1348 36.5503 27.2195 36.9347 27.52 37.1692C27.8839 37.4536 28.188 37.7519 28.4239 38.0558C28.672 38.3755 28.7397 38.7759 28.6094 39.1544C28.6019 39.1761 28.5939 39.1973 28.5851 39.2186Z" fill="black"/>
<path d="M12.2068 39.9998H6.3757C6.19429 39.9998 6.03679 39.875 5.99539 39.6984C5.79429 38.8411 5.91992 38.1447 6.36851 37.6281C6.94179 36.9681 7.90632 36.7972 8.53976 36.7609L6.82586 32.7003C6.82289 32.6934 6.82023 32.6866 6.81773 32.6795C5.65804 29.4245 5.5882 27.0466 6.61054 25.612C7.35601 24.566 8.63257 24.0449 10.4193 24.0614C10.5279 24.0625 10.631 24.1086 10.7041 24.1889C10.7773 24.2692 10.8137 24.3763 10.8048 24.4844C10.4638 28.5897 11.2802 32.4134 13.2312 35.8491C13.6004 36.4992 13.4302 37.3134 12.8266 37.785C12.5137 38.0295 12.2552 38.282 12.0588 38.535C11.9504 38.6748 11.9643 38.8108 11.9951 38.9C12.0454 39.0461 12.1743 39.1614 12.3315 39.2011C12.4676 39.2355 12.5748 39.3402 12.6123 39.4752C12.6498 39.6103 12.6121 39.7553 12.5132 39.8548L12.484 39.8842C12.4107 39.9581 12.3109 39.9998 12.2068 39.9998ZM6.70086 39.2186H11.2805C11.2719 39.1975 11.264 39.1761 11.2565 39.1544C11.1262 38.7759 11.1937 38.3755 11.4419 38.0558C11.6777 37.752 11.9819 37.4536 12.3457 37.1694C12.6462 36.9345 12.731 36.5503 12.5519 36.2348C10.5902 32.7803 9.7307 28.9522 9.99461 24.8499C8.70289 24.9095 7.77976 25.3175 7.24695 26.0653C6.38257 27.2784 6.48445 29.4119 7.55007 32.4069L9.48945 37.0014C9.54273 37.1278 9.52586 37.2728 9.44507 37.3836C9.36429 37.4944 9.23101 37.5552 9.09445 37.5423C8.67617 37.5059 7.47648 37.5425 6.95742 38.1419C6.72773 38.4069 6.64289 38.7608 6.70086 39.2186Z" fill="black"/>
<path d="M19.9329 39.6418C19.0474 39.6418 18.1754 39.49 17.3408 39.1903C17.1777 39.1317 17.0727 38.9726 17.0829 38.7997C17.0847 38.7683 17.083 38.7368 17.0777 38.7062C17.0241 38.3934 16.9496 38.1304 16.8562 37.9251C16.6285 37.425 16.5132 36.9145 16.5132 36.4081V27.4828C16.5132 26.3125 17.1743 25.2184 18.2383 24.6276C18.2469 24.6228 18.2557 24.6184 18.2646 24.6143C18.7862 24.3742 19.3454 24.2481 19.9269 24.2395C20.5201 24.2481 21.0793 24.3742 21.6008 24.6143C21.6097 24.6184 21.6185 24.6229 21.6271 24.6276C22.6912 25.2186 23.3522 26.3126 23.3522 27.4828V36.4081C23.3522 36.9145 23.2368 37.425 23.0093 37.9251C22.9158 38.1303 22.8413 38.3933 22.7877 38.7062C22.7824 38.7368 22.7808 38.7683 22.7826 38.7997C22.7927 38.9726 22.6877 39.1317 22.5246 39.1903C21.6904 39.49 20.8183 39.6418 19.9329 39.6418ZM17.841 38.5351C19.1957 38.9675 20.6701 38.9675 22.0247 38.5351C22.0894 38.1728 22.1813 37.8589 22.2983 37.6017C22.4794 37.2039 22.5712 36.8023 22.5712 36.4083V27.4829C22.5712 26.6009 22.0694 25.7726 21.2607 25.3179C20.8424 25.1276 20.3938 25.0276 19.9269 25.0208C19.4715 25.0276 19.0229 25.1278 18.6047 25.3179C17.7962 25.7728 17.2943 26.6009 17.2943 27.4829V36.4083C17.2943 36.8023 17.386 37.2039 17.5671 37.6017C17.6843 37.8587 17.7763 38.1726 17.841 38.5351Z" fill="black"/>
<path d="M27.4 39.9999H23.2687C22.8855 39.9999 22.527 39.8356 22.2855 39.549C22.0559 39.2768 21.9584 38.9218 22.0178 38.5748C22.0828 38.1956 22.1772 37.8682 22.2984 37.6018C22.4795 37.204 22.5712 36.8024 22.5712 36.4084V27.4831C22.5712 26.1131 21.3851 24.981 19.9272 24.9596C18.4806 24.9812 17.2945 26.1132 17.2945 27.4831V36.4084C17.2945 36.8024 17.3862 37.204 17.5673 37.6018C17.6886 37.8682 17.783 38.1956 17.848 38.5748C17.9073 38.9218 17.8098 39.2768 17.5803 39.549C17.3386 39.8356 16.9803 39.9999 16.597 39.9999H12.4658C11.9684 39.9999 11.527 39.7296 11.3139 39.2945C11.112 38.8821 11.1598 38.4192 11.4417 38.0559C11.6776 37.7521 11.9817 37.4537 12.3455 37.1695C12.6459 36.9346 12.7308 36.5504 12.5517 36.2349C7.95483 28.1393 10.5787 19.9543 11.9201 16.811C11.9848 16.6596 12.1387 16.566 12.3017 16.5743C12.4661 16.5838 12.607 16.6952 12.6537 16.8531C13.2658 18.9137 15.4259 20.5676 18.157 21.0668C18.2572 21.0852 18.3462 21.1418 18.4053 21.2249C18.7531 21.7149 19.2958 21.996 19.8941 21.996C20.488 21.996 21.0284 21.7178 21.3769 21.2326C21.4362 21.1498 21.5258 21.0935 21.6261 21.0759C24.4059 20.5834 26.5903 18.9095 27.1911 16.8117C27.2366 16.6529 27.377 16.5398 27.5419 16.5293C27.7061 16.5192 27.8603 16.6132 27.9255 16.7649C29.2778 19.9135 31.9255 28.1135 27.3139 36.2348C27.1348 36.5502 27.2195 36.9346 27.52 37.1692C27.8839 37.4535 28.188 37.7518 28.4239 38.0557C28.7059 38.419 28.7536 38.882 28.5517 39.2943C28.3387 39.7296 27.8973 39.9999 27.4 39.9999ZM19.927 24.1785C21.8209 24.2062 23.3523 25.6887 23.3523 27.4831V36.4084C23.3523 36.9148 23.2369 37.4253 23.0094 37.9254C22.9159 38.1307 22.8414 38.3935 22.7878 38.7067C22.767 38.8279 22.8008 38.9482 22.8825 39.0454C22.9753 39.1556 23.1161 39.2187 23.2686 39.2187H27.3998C27.635 39.2187 27.7866 39.0804 27.85 38.9509C27.8903 38.8684 27.9384 38.7046 27.8067 38.5349C27.6103 38.282 27.352 38.0296 27.0389 37.7849C26.4355 37.3134 26.2653 36.4993 26.6344 35.8492C30.6889 28.709 28.9045 21.4846 27.5695 17.9696C26.6064 19.8626 24.498 21.3188 21.9123 21.8173C21.4189 22.4212 20.6758 22.7773 19.8939 22.7773C19.1061 22.7773 18.3597 22.4173 17.8662 21.8068C15.3286 21.3028 13.2473 19.8646 12.282 18.0056C10.9581 21.5121 9.18686 28.7274 13.2308 35.8492C13.6 36.4993 13.4298 37.3135 12.8262 37.7851C12.5133 38.0296 12.2548 38.2821 12.0584 38.5351C11.9267 38.7048 11.9748 38.8685 12.0151 38.951C12.0786 39.0806 12.23 39.2188 12.4653 39.2188H16.5966C16.7491 39.2188 16.8898 39.1557 16.9826 39.0456C17.0645 38.9484 17.0983 38.8281 17.0773 38.7068C17.0237 38.3938 16.9492 38.1309 16.8558 37.9256C16.6281 37.4254 16.5128 36.9149 16.5128 36.4085V27.4832C16.5131 25.6887 18.0445 24.2062 19.927 24.1785Z" fill="black"/>
</g>
<defs>
<clipPath id="clip0">
<rect width="40" height="40" fill="white"/>
</clipPath>
</defs>
</svg>
