<svg width="17" height="17" viewBox="0 0 17 17" fill="none" xmlns="http://www.w3.org/2000/svg">
<path d="M8.5 0C3.81318 0 0 3.81318 0 8.5C0 13.1868 3.81318 17 8.5 17C13.1868 17 17 13.1868 17 8.5C17 3.81318 13.1868 0 8.5 0ZM15.2174 11.3047C14.3818 13.2988 12.683 14.845 10.5905 15.4733C10.628 15.4037 10.6644 15.3333 10.6995 15.262C10.8793 14.8982 11.0682 14.6417 11.3852 14.3859C11.6278 14.19 12.1042 13.8865 12.0263 13.5039C11.9701 13.2273 11.6544 13.1138 11.4158 13.0462C11.0373 12.939 10.6323 12.9112 10.2417 12.8841C9.90337 12.8605 9.55206 12.8726 9.22179 12.7883C8.72752 12.6625 8.61611 12.2347 8.58484 11.7836C8.55697 11.3827 8.56294 10.9705 8.36578 10.6077C8.11189 10.1408 7.52756 10.008 7.04302 9.96342C6.63399 9.92598 6.22548 9.94571 5.81867 9.87755C5.42727 9.81201 5.05659 9.67454 4.65468 9.69012C4.13381 9.7102 3.89988 10.0632 3.67769 10.4715C3.56802 10.6732 2.87529 12.2238 2.46828 12.5714C1.76646 11.5353 1.32497 10.3094 1.23705 8.9883C1.29457 8.9728 1.35158 8.95133 1.40946 8.92251C1.63591 8.81007 1.79457 8.6071 2.04099 8.52673C2.27594 8.45019 2.57949 8.51807 2.81955 8.54159C3.05842 8.56496 3.301 8.58971 3.54007 8.55717C4.0173 8.49197 4.27016 8.16233 4.34639 7.70215C4.39169 7.42726 4.35635 7.15083 4.36453 6.87405C4.37746 6.44276 4.66049 6.28802 5.0505 6.25134C5.7872 6.18215 7.50566 6.37737 7.54045 5.24359C7.55527 4.75862 6.97807 4.50832 6.60213 4.37888C5.8701 4.12705 5.07027 4.21497 4.32156 4.04003C3.92332 3.94697 3.58744 3.69857 3.30579 3.40498C4.62799 2.05767 6.46783 1.2202 8.5 1.2202C8.93465 1.2202 9.36008 1.25855 9.77377 1.33201C9.56226 1.37131 9.35348 1.42713 9.15035 1.50917C8.07868 1.94124 8.04642 3.15706 8.51483 4.07043C8.80533 4.63689 9.27579 5.11147 9.76721 5.5061C10.2429 5.88797 10.7627 6.11364 11.2902 6.40331C11.99 6.7881 11.9055 7.793 12.0826 8.47007C12.2319 9.04107 12.5905 9.52277 13.1557 9.72044C13.4974 9.83984 13.8987 9.74665 14.1979 9.98473C14.4549 10.1886 14.5153 10.606 14.6621 10.8865C14.8084 11.1664 15.0031 11.2842 15.2174 11.3047Z" fill="#00AB88"/>
</svg>
