<svg width="54" height="55" viewBox="0 0 54 55" fill="none" xmlns="http://www.w3.org/2000/svg">
<path fill-rule="evenodd" clip-rule="evenodd" d="M4.06682 31.3572C2.38765 18.7524 11.1433 6.99595 23.737 5.42035C36.0909 3.84475 47.7251 12.6924 49.2843 25.2972C50.8435 37.7808 42.0879 49.5372 29.6141 51.1128C17.2602 52.6884 5.62604 43.8408 4.06682 31.3572ZM52.8825 30.5088C53.2423 26.7516 53.4822 5.05675 52.8825 2.14795C52.0429 -2.09406 45.3263 1.17834 42.8075 2.02674C35.7311 4.45075 39.0894 3.84475 32.3727 2.26915C27.815 1.17834 24.0968 1.42074 19.6591 2.51155C14.1418 3.96595 18.0998 4.57195 9.34419 1.66314C-1.69032 -1.97286 0.108788 -0.882061 0.108788 17.6616C0.108788 26.7516 -0.850734 34.266 4.06682 42.3864C7.78497 48.4464 13.782 52.8096 20.6186 54.3852C36.5706 57.7788 51.4432 46.7496 52.8825 30.5088Z" fill="#314357"/>
<path fill-rule="evenodd" clip-rule="evenodd" d="M21.9379 23.2369C19.5391 23.2369 16.6605 23.1157 14.2617 23.2369C11.1433 23.4793 11.3832 25.5397 11.3832 28.0849C11.3832 34.5085 11.9829 33.5389 22.0579 33.4177C22.0579 35.9629 21.9379 38.7505 22.0579 41.1745C22.1778 44.3257 24.5766 44.0833 27.0953 44.0833C33.3322 44.0833 32.1328 43.1137 32.1328 33.2965C42.0879 33.2965 42.8075 34.3873 42.8075 28.2061C42.8075 25.9033 43.1674 23.3581 40.1688 23.1157C37.89 22.8733 34.5316 23.1157 32.1328 23.1157C32.1328 13.1773 33.2123 12.3289 27.0953 12.3289C20.8585 12.5713 21.9379 13.5409 21.9379 23.2369Z" fill="#314357"/>
<path fill-rule="evenodd" clip-rule="evenodd" d="M4.06682 31.3572C2.38765 18.7524 11.1433 6.99595 23.737 5.42035C36.0909 3.84475 47.7251 12.6924 49.2843 25.2972C50.8435 37.7808 42.0879 49.5372 29.6141 51.1128C17.2602 52.6884 5.62604 43.8408 4.06682 31.3572ZM52.8825 30.5088C53.2423 26.7516 53.4822 5.05675 52.8825 2.14795C52.0429 -2.09406 45.3263 1.17834 42.8075 2.02674C35.7311 4.45075 39.0894 3.84475 32.3727 2.26915C27.815 1.17834 24.0968 1.42074 19.6591 2.51155C14.1418 3.96595 18.0998 4.57195 9.34419 1.66314C-1.69032 -1.97286 0.108788 -0.882061 0.108788 17.6616C0.108788 26.7516 -0.850734 34.266 4.06682 42.3864C7.78497 48.4464 13.782 52.8096 20.6186 54.3852C36.5706 57.7788 51.4432 46.7496 52.8825 30.5088Z" fill="white"/>
<path fill-rule="evenodd" clip-rule="evenodd" d="M21.9379 23.2369C19.5391 23.2369 16.6605 23.1157 14.2617 23.2369C11.1433 23.4793 11.3832 25.5397 11.3832 28.0849C11.3832 34.5085 11.9829 33.5389 22.0579 33.4177C22.0579 35.9629 21.9379 38.7505 22.0579 41.1745C22.1778 44.3257 24.5766 44.0833 27.0953 44.0833C33.3322 44.0833 32.1328 43.1137 32.1328 33.2965C42.0879 33.2965 42.8075 34.3873 42.8075 28.2061C42.8075 25.9033 43.1674 23.3581 40.1688 23.1157C37.89 22.8733 34.5316 23.1157 32.1328 23.1157C32.1328 13.1773 33.2123 12.3289 27.0953 12.3289C20.8585 12.5713 21.9379 13.5409 21.9379 23.2369Z" fill="#00AB88"/>
</svg>
