<svg width="55" height="55" viewBox="0 0 55 55" fill="none" xmlns="http://www.w3.org/2000/svg">
<path d="M27.5 55C42.6878 55 55 42.6878 55 27.5C55 12.3122 42.6878 0 27.5 0C12.3122 0 0 12.3122 0 27.5C0 42.6878 12.3122 55 27.5 55Z" fill="#EAB14D"/>
<path d="M27.4999 0C27.009 0 26.5212 0.0134277 26.0366 0.0387793C40.5442 0.799541 52.0734 12.8031 52.0734 27.5C52.0734 42.1969 40.5442 54.2005 26.0366 54.9612C26.5212 54.9866 27.009 55 27.4999 55C42.6878 55 54.9999 42.6878 54.9999 27.5C54.9999 12.3122 42.6878 0 27.4999 0Z" fill="#E49542"/>
<path d="M27.5001 48.9293C39.3351 48.9293 48.9293 39.3351 48.9293 27.5001C48.9293 15.665 39.3351 6.0708 27.5001 6.0708C15.665 6.0708 6.0708 15.665 6.0708 27.5001C6.0708 39.3351 15.665 48.9293 27.5001 48.9293Z" fill="#F4FBFF"/>
<path d="M27.5 6.0708C26.9065 6.0708 26.3191 6.09604 25.7378 6.14331C36.7484 7.03964 45.4049 16.2585 45.4049 27.5001C45.4049 38.7417 36.7484 47.9604 25.7378 48.8568C26.3191 48.9042 26.9065 48.9294 27.5 48.9294C39.3351 48.9294 48.9293 39.3352 48.9293 27.5002C48.9293 15.6652 39.3351 6.0708 27.5 6.0708Z" fill="#DAF1F4"/>
<path d="M27.5004 12.6663C27.042 12.6663 26.6704 12.2947 26.6704 11.8363V10.6181C26.6704 10.1598 27.042 9.78821 27.5004 9.78821C27.9587 9.78821 28.3304 10.1598 28.3304 10.6181V11.8363C28.3304 12.2947 27.9587 12.6663 27.5004 12.6663Z" fill="#2B4D66"/>
<path d="M38.5312 17.2729C38.3187 17.2729 38.1063 17.1918 37.9442 17.0298C37.6201 16.7056 37.6201 16.1802 37.9443 15.856L38.8058 14.9947C39.1298 14.6705 39.6554 14.6706 39.9796 14.9947C40.3036 15.3189 40.3036 15.8443 39.9794 16.1685L39.118 17.0299C38.9559 17.1918 38.7436 17.2729 38.5312 17.2729Z" fill="#2B4D66"/>
<path d="M44.2918 28.3301H43.0736C42.6151 28.3301 42.2437 27.9585 42.2437 27.5001C42.2437 27.0417 42.6152 26.6702 43.0736 26.6702H44.2918C44.7502 26.6702 45.1217 27.0417 45.1217 27.5001C45.1217 27.9585 44.7501 28.3301 44.2918 28.3301Z" fill="#2B4D66"/>
<path d="M39.3285 40.2224C39.1162 40.2224 38.9037 40.1413 38.7416 39.9793L37.8803 39.118C37.5562 38.7937 37.5562 38.2683 37.8803 37.944C38.2045 37.6201 38.7299 37.6201 39.0542 37.944L39.9155 38.8054C40.2396 39.1296 40.2396 39.655 39.9155 39.9793C39.7534 40.1413 39.5409 40.2224 39.3285 40.2224Z" fill="#2B4D66"/>
<path d="M27.4095 45.1219C26.9512 45.1219 26.5796 44.7504 26.5796 44.292V43.0738C26.5796 42.6154 26.9512 42.2439 27.4095 42.2439C27.8679 42.2439 28.2395 42.6155 28.2395 43.0738V44.292C28.2395 44.7504 27.8679 45.1219 27.4095 45.1219Z" fill="#2B4D66"/>
<path d="M15.5175 40.1584C15.3051 40.1584 15.0926 40.0773 14.9306 39.9152C14.6064 39.5911 14.6065 39.0656 14.9306 38.7414L15.792 37.8801C16.1162 37.5561 16.6416 37.556 16.9658 37.8802C17.2899 38.2043 17.2899 38.7298 16.9657 39.054L16.1043 39.9153C15.9423 40.0774 15.7298 40.1584 15.5175 40.1584Z" fill="#2B4D66"/>
<path d="M11.8362 28.2397H10.618C10.1597 28.2397 9.78809 27.8682 9.78809 27.4098C9.78809 26.9514 10.1597 26.5798 10.618 26.5798H11.8362C12.2946 26.5798 12.6661 26.9514 12.6661 27.4098C12.6662 27.8682 12.2946 28.2397 11.8362 28.2397Z" fill="#2B4D66"/>
<path d="M16.4428 17.209C16.2305 17.209 16.0181 17.128 15.856 16.9659L14.9946 16.1045C14.6705 15.7803 14.6704 15.2549 14.9945 14.9307C15.3187 14.6067 15.8441 14.6065 16.1683 14.9306L17.0297 15.7921C17.3538 16.1161 17.3539 16.6417 17.0298 16.9659C16.8676 17.1278 16.6552 17.209 16.4428 17.209Z" fill="#2B4D66"/>
<path d="M27.5001 28.3301H20.451C19.9927 28.3301 19.6211 27.9584 19.6211 27.5C19.6211 27.0416 19.9927 26.6701 20.451 26.6701H26.67V16.1108C26.67 15.6525 27.0416 15.2809 27.4999 15.2809C27.9583 15.2809 28.3299 15.6525 28.3299 16.1108V27.5C28.33 27.9584 27.9584 28.3301 27.5001 28.3301Z" fill="#2B4D66"/>
<path d="M36.015 32.7089C35.8871 32.7089 35.7576 32.6793 35.6361 32.6169L27.1205 28.2379C26.7129 28.0284 26.5524 27.528 26.7619 27.1203C26.9715 26.7127 27.4719 26.5521 27.8797 26.7618L36.3952 31.1406C36.8029 31.3503 36.9635 31.8506 36.7538 32.2582C36.6065 32.5445 36.3161 32.7089 36.015 32.7089Z" fill="#00AB88"/>
<path d="M27.4999 29.7152C28.7234 29.7152 29.7152 28.7234 29.7152 27.4999C29.7152 26.2765 28.7234 25.2847 27.4999 25.2847C26.2765 25.2847 25.2847 26.2765 25.2847 27.4999C25.2847 28.7234 26.2765 29.7152 27.4999 29.7152Z" fill="#365E7D"/>
</svg>
