<svg width="60" height="60" viewBox="0 0 60 60" fill="none" xmlns="http://www.w3.org/2000/svg">
<path d="M40.947 44.4145H19.0714C18.0959 44.4145 17.3044 43.6235 17.3044 42.6476V36.8939C12.3225 32.9942 9.375 26.9838 9.375 20.6342C9.375 9.25644 18.6314 0 30.0092 0C41.3869 0 50.6433 9.25644 50.6433 20.6342C50.6433 26.9838 47.6958 32.9942 42.7139 36.8939V42.6476C42.7139 43.6235 41.9225 44.4145 40.947 44.4145Z" fill="#FFF261"/>
<path d="M40.9471 44.4145C41.9226 44.4145 42.7141 43.6235 42.7141 42.6476V36.8939C47.6959 32.9942 50.6434 26.9843 50.6434 20.6342C50.6434 9.25644 41.387 0 30.0093 0V44.4145H40.9471Z" fill="#FDBF00"/>
<path d="M32.8004 60.0001H27.2175C21.7514 60.0001 17.3042 55.5529 17.3042 50.0868C17.3042 49.1113 18.0957 48.3198 19.0712 48.3198H40.9468C41.9223 48.3198 42.7137 49.1113 42.7137 50.0868C42.7137 55.5529 38.2666 60.0001 32.8004 60.0001Z" fill="#E1F1FA"/>
<path d="M40.9471 48.3198H30.0093V60.0001H32.8007C38.2669 60.0001 42.7136 55.5529 42.7136 50.0868C42.7141 49.1113 41.9226 48.3198 40.9471 48.3198Z" fill="#CDEBFC"/>
<path d="M42.7137 50.0867H17.3042V40.8806H42.7137V50.0867Z" fill="#1B3B6B"/>
<path d="M30.0093 40.8806H42.7141V50.0867H30.0093V40.8806Z" fill="#001035"/>
<path d="M26.9155 28.6126C26.4632 28.6126 26.0114 28.44 25.6662 28.0948L20.0934 22.522C19.4031 21.8322 19.4031 20.7134 20.0934 20.0231C20.7833 19.3332 21.902 19.3332 22.5923 20.0231L26.9159 24.3462L37.4266 13.8355C38.1165 13.1457 39.2357 13.1457 39.9256 13.8355C40.6159 14.5258 40.6159 15.6446 39.9256 16.3344L28.1652 28.0948C27.82 28.44 27.3677 28.6126 26.9155 28.6126Z" fill="#06CCAB"/>
<path d="M37.4269 13.8355L30.0093 21.2531V26.251L39.9258 16.3344C40.6157 15.6446 40.6157 14.5258 39.9258 13.8355C39.2355 13.1457 38.1167 13.1457 37.4269 13.8355Z" fill="#1CADB5"/>
</svg>
