<svg width="60" height="60" viewBox="0 0 60 60" fill="none" xmlns="http://www.w3.org/2000/svg">
<g clip-path="url(#clip0)">
<path d="M18.4671 31.1948C18.4291 31.1948 18.3911 31.1934 18.3526 31.1911L1.83378 30.1598C1.20527 30.1209 0.641301 29.7615 0.340092 29.209C0.0393415 28.6565 0.0430036 27.9877 0.350621 27.4384C0.437138 27.2837 2.51905 23.6129 6.48374 20.4113C11.8414 16.0854 18.0697 14.6823 24.4949 16.3541C25.0282 16.4928 25.4704 16.8645 25.6993 17.3657C25.9282 17.867 25.919 18.4447 25.6741 18.9382L20.1073 30.1767C19.7969 30.803 19.1592 31.1948 18.4671 31.1948Z" fill="#FF5B5B"/>
<path d="M31.7837 60.0001C31.4825 60.0001 31.1813 59.9259 30.908 59.7767C30.3555 59.4755 29.9962 58.9119 29.9568 58.2834L28.9259 41.7646C28.8801 41.029 29.2798 40.3373 29.9403 40.01L41.1789 34.4426C41.6728 34.1982 42.2501 34.189 42.7513 34.4179C43.253 34.6464 43.6243 35.089 43.763 35.6223C45.4352 42.0475 44.0321 48.2758 39.7058 53.6335C36.5047 57.5982 32.8334 59.6796 32.6787 59.7666C32.4008 59.9222 32.0923 60.0001 31.7837 60.0001Z" fill="#FF193D"/>
<path d="M57.1804 14.7725L45.3444 2.93655C44.8702 2.4623 44.1744 2.28561 43.5312 2.47558C35.6078 4.81933 29.1034 8.49517 24.1976 13.4006C23.1745 14.4241 22.1917 15.5333 21.2771 16.6969C18.6174 20.0784 16.3959 24.0765 14.6747 28.5805C13.5784 31.4511 12.6857 34.5264 12.0215 37.7207C10.8616 43.3003 10.7993 47.2994 10.797 47.4669C10.7911 47.9599 10.9842 48.4351 11.3331 48.7839C11.6764 49.1272 12.1424 49.3199 12.6276 49.3199H12.65C12.818 49.3181 16.8171 49.2558 22.3963 48.0959C25.5906 47.4317 28.6658 46.539 31.5369 45.4422C36.0404 43.721 40.0385 41.5 43.4191 38.8408C44.5836 37.9257 45.6928 36.9429 46.7164 35.9194C51.6222 31.0135 55.2981 24.5091 57.6414 16.5857C57.8318 15.9425 57.6546 15.2467 57.1804 14.7725Z" fill="#E1F1FA"/>
<path d="M23.6474 45.3379L14.7796 36.4701C14.125 35.8155 13.0845 35.7528 12.3557 36.3241C11.7895 36.7681 11.2507 37.2451 10.7545 37.7413C4.58426 43.9115 4.39337 53.472 4.38834 53.8757C4.38193 54.3692 4.57511 54.8443 4.92438 55.1931C5.2677 55.5369 5.73325 55.7296 6.21848 55.7296C6.22626 55.7296 6.23404 55.7296 6.24182 55.7292C6.64557 55.7242 16.2064 55.5333 22.3762 49.3631C22.8724 48.8668 23.3494 48.3281 23.7934 47.7618C24.3647 47.033 24.302 45.9925 23.6474 45.3379Z" fill="#FFF261"/>
<path d="M14.8164 28.2142L9.37585 33.6552C9.03253 33.9981 8.83936 34.4636 8.83936 34.9493C8.83936 35.4345 9.03253 35.9001 9.37585 36.2434L23.8737 50.7412C24.2165 51.0846 24.6821 51.2773 25.1678 51.2773C25.6535 51.2773 26.1186 51.0846 26.4619 50.7412L31.9024 45.3007L14.8164 28.2142Z" fill="#1B3B6B"/>
<path d="M38.5664 27.1349C37.075 27.1349 35.6724 26.554 34.6177 25.4993C32.4406 23.3222 32.4406 19.78 34.6177 17.6024C35.6724 16.5477 37.075 15.9668 38.5664 15.9668C40.0578 15.9668 41.4604 16.5477 42.515 17.6024C43.5697 18.6571 44.1506 20.0592 44.1506 21.5511C44.1506 23.0425 43.5697 24.4446 42.515 25.4993C41.4604 26.554 40.0578 27.1349 38.5664 27.1349Z" fill="#06CCAB"/>
<path d="M38.5662 28.9251C36.5964 28.9251 34.7447 28.1579 33.3522 26.7654C30.477 23.8902 30.477 19.2118 33.3522 16.3366C34.7447 14.9441 36.5968 14.1769 38.5662 14.1769C40.5359 14.1769 42.3876 14.9441 43.7805 16.3366C45.1735 17.7296 45.9403 19.5812 45.9403 21.551C45.9403 23.5208 45.1735 25.3724 43.7805 26.7654C42.3876 28.1579 40.5359 28.9251 38.5662 28.9251ZM38.5662 17.8376C37.5746 17.8376 36.6417 18.224 35.9404 18.9253C34.493 20.3732 34.493 22.7288 35.9404 24.1767C36.6417 24.878 37.5746 25.2644 38.5662 25.2644C39.5581 25.2644 40.4906 24.878 41.1919 24.1767C41.8932 23.4754 42.2795 22.543 42.2795 21.551C42.2795 20.559 41.8932 19.6266 41.1919 18.9253C40.4906 18.224 39.5581 17.8376 38.5662 17.8376Z" fill="#1B3B6B"/>
<path d="M59.5814 0.536501C59.2321 0.187227 58.7542 -0.00915384 58.2635 0.000459204C57.992 0.00366355 51.5215 0.112611 43.5317 2.47559L57.6418 16.5857C60.0048 8.59589 60.1138 2.1254 60.117 1.85395C60.1234 1.36048 59.9302 0.885317 59.5814 0.536501Z" fill="#FF5B5B"/>
<path d="M57.1808 14.7726L51.2629 8.85461L11.3335 48.784C11.6768 49.1273 12.1424 49.32 12.6276 49.32H12.6505C12.818 49.3182 16.817 49.2559 22.3967 48.096C25.591 47.4317 28.6658 46.5391 31.5369 45.4423C36.0408 43.7211 40.039 41.5 43.4195 38.8409C44.5836 37.9258 45.6933 36.943 46.7164 35.9194C51.6222 31.0136 55.2981 24.5092 57.6413 16.5858C57.8322 15.9426 57.6551 15.2468 57.1808 14.7726Z" fill="#CDEBFC"/>
<path d="M23.6473 45.338L19.2134 40.9041L4.92383 55.1932V55.1936C5.26761 55.5369 5.73315 55.7297 6.21838 55.7297H6.24127C6.64548 55.7246 16.2059 55.5333 22.3761 49.3631C22.8723 48.8669 23.3493 48.3281 23.7929 47.7618C24.3646 47.0331 24.3023 45.9926 23.6473 45.338Z" fill="#FDBF00"/>
<path d="M23.3596 36.7576L16.6245 43.4926L23.8737 50.7418C24.2165 51.0847 24.6821 51.2778 25.1678 51.2778C25.6534 51.2778 26.1185 51.0847 26.4619 50.7418L31.9024 45.3008L23.3596 36.7576Z" fill="#001035"/>
<path d="M42.5155 17.6024C42.515 17.6024 42.515 17.6024 42.515 17.6024L34.6182 25.4993H34.6186C35.6729 26.554 37.0754 27.1349 38.5668 27.1349C40.0582 27.1349 41.4608 26.554 42.5155 25.4993C43.5702 24.4446 44.1511 23.0425 44.1511 21.5511C44.1506 20.0597 43.5702 18.6571 42.5155 17.6024Z" fill="#1CADB5"/>
<path d="M43.7804 16.3367L41.1917 18.9253C41.893 19.6266 42.2793 20.5591 42.2793 21.5511C42.2793 22.543 41.893 23.4755 41.1917 24.1768C40.4904 24.8781 39.5579 25.2644 38.566 25.2644C37.574 25.2644 36.6415 24.8781 35.9402 24.1768C35.9402 24.1768 35.9402 24.1768 35.9402 24.1763L33.3516 26.765V26.7654C34.7445 28.158 36.5962 28.9252 38.566 28.9252C40.5357 28.9252 42.3874 28.158 43.7804 26.7654C45.1729 25.3725 45.9401 23.5208 45.9401 21.5511C45.9401 19.5813 45.1729 17.7296 43.7804 16.3367Z" fill="#001035"/>
<path d="M59.5806 0.536011L50.5864 9.53061L57.6415 16.5857C60.0045 8.59586 60.1134 2.12537 60.1166 1.85391C60.123 1.36044 59.9298 0.885285 59.5806 0.536011Z" fill="#FF193D"/>
</g>
<defs>
<clipPath id="clip0">
<rect width="60" height="60" fill="white"/>
</clipPath>
</defs>
</svg>
