<svg width="60" height="60" viewBox="0 0 60 60" fill="none" xmlns="http://www.w3.org/2000/svg">
<g clip-path="url(#clip0)">
<path d="M56.4 38.9841L46.1681 28.7522L37.4651 37.4552L28.7603 46.1601L38.9921 56.3903C43.8008 61.2025 51.5882 61.202 56.4 56.3903C61.1998 51.5922 61.1998 43.7821 56.4 38.9841Z" fill="#FFBB99"/>
<path d="M56.4002 38.9841L46.1684 28.7522L37.4653 37.4552L56.4002 56.3903C61.2001 51.5922 61.2001 43.7821 56.4002 38.9841Z" fill="#FF9680"/>
<path d="M21.0152 3.59903C16.2171 -1.19903 8.40702 -1.19903 3.60896 3.59903C-1.20234 8.4101 -1.20363 16.1977 3.60896 21.0069L13.8392 31.2387L22.544 22.5339L31.247 13.8309L21.0152 3.59903Z" fill="#FFBB99"/>
<path d="M21.0151 3.59903C16.217 -1.19903 8.40695 -1.19903 3.60889 3.59903L22.5439 22.5341L31.247 13.831L21.0151 3.59903Z" fill="#FF9680"/>
<path d="M56.4006 3.59948C51.6009 -1.19682 43.7924 -1.20022 38.9927 3.59948L3.60941 38.9846C-1.20413 43.7944 -1.20084 51.5804 3.60941 56.3908C8.42095 61.2023 16.207 61.2028 21.0156 56.3908L56.4006 21.0074C61.1987 16.2094 61.1987 8.39929 56.4006 3.59948Z" fill="#FFD9B3"/>
<path d="M21.0151 56.3903L56.4001 21.007C61.1981 16.2089 61.1981 8.39882 56.4001 3.59912L3.60889 56.3903C8.42043 61.2019 16.2065 61.2022 21.0151 56.3903Z" fill="#FFBB99"/>
<path d="M40.1178 16.6661C41.089 16.6661 41.8763 15.8788 41.8763 14.9076C41.8763 13.9365 41.089 13.1492 40.1178 13.1492C39.1467 13.1492 38.3594 13.9365 38.3594 14.9076C38.3594 15.8788 39.1467 16.6661 40.1178 16.6661Z" fill="#FFBB99"/>
<path d="M45.0915 21.6398C46.0627 21.6398 46.8499 20.8525 46.8499 19.8813C46.8499 18.9101 46.0627 18.1228 45.0915 18.1228C44.1203 18.1228 43.333 18.9101 43.333 19.8813C43.333 20.8525 44.1203 21.6398 45.0915 21.6398Z" fill="#FF9680"/>
<path d="M45.0915 11.6925C46.0627 11.6925 46.8499 10.9052 46.8499 9.93401C46.8499 8.96283 46.0627 8.17554 45.0915 8.17554C44.1203 8.17554 43.333 8.96283 43.333 9.93401C43.333 10.9052 44.1203 11.6925 45.0915 11.6925Z" fill="#FFBB99"/>
<path d="M50.0656 16.6661C51.0368 16.6661 51.8241 15.8788 51.8241 14.9076C51.8241 13.9365 51.0368 13.1492 50.0656 13.1492C49.0944 13.1492 48.3071 13.9365 48.3071 14.9076C48.3071 15.8788 49.0944 16.6661 50.0656 16.6661Z" fill="#FF9680"/>
<path d="M9.94256 46.8416C10.9137 46.8416 11.701 46.0544 11.701 45.0832C11.701 44.112 10.9137 43.3247 9.94256 43.3247C8.97138 43.3247 8.18408 44.112 8.18408 45.0832C8.18408 46.0544 8.97138 46.8416 9.94256 46.8416Z" fill="#FFBB99"/>
<path d="M14.9162 51.8153C15.8874 51.8153 16.6747 51.028 16.6747 50.0568C16.6747 49.0856 15.8874 48.2983 14.9162 48.2983C13.945 48.2983 13.1577 49.0856 13.1577 50.0568C13.1577 51.028 13.945 51.8153 14.9162 51.8153Z" fill="#FF9680"/>
<path d="M14.9162 41.8678C15.8874 41.8678 16.6747 41.0805 16.6747 40.1093C16.6747 39.1381 15.8874 38.3508 14.9162 38.3508C13.945 38.3508 13.1577 39.1381 13.1577 40.1093C13.1577 41.0805 13.945 41.8678 14.9162 41.8678Z" fill="#FFBB99"/>
<path d="M19.8898 46.8416C20.861 46.8416 21.6483 46.0544 21.6483 45.0832C21.6483 44.112 20.861 43.3247 19.8898 43.3247C18.9186 43.3247 18.1313 44.112 18.1313 45.0832C18.1313 46.0544 18.9186 46.8416 19.8898 46.8416Z" fill="#FF9680"/>
<path d="M41.3619 23.6125L38.8745 21.1251L36.387 18.6377C35.7002 17.9508 34.5873 17.9508 33.9004 18.6377L18.646 33.8921C17.9591 34.579 17.9591 35.6919 18.646 36.3787L21.1334 38.8661L23.6209 41.3536C24.3077 42.0404 25.4206 42.0404 26.1075 41.3536L41.3619 26.0991C42.0489 25.4123 42.0489 24.2994 41.3619 23.6125Z" fill="#F3F5F9"/>
<path d="M26.1073 41.3535L41.3618 26.099C42.0486 25.4122 42.0486 24.2993 41.3618 23.6124L38.8743 21.125L21.1333 38.866L23.6207 41.3535C24.3077 42.0403 25.4205 42.0403 26.1073 41.3535Z" fill="#E2DFF4"/>
</g>
<defs>
<clipPath id="clip0">
<rect width="60" height="60" fill="white"/>
</clipPath>
</defs>
</svg>
