<svg width="60" height="60" viewBox="0 0 60 60" fill="none" xmlns="http://www.w3.org/2000/svg">
<g clip-path="url(#clip0)">
<path d="M29.8829 58.1466C29.6087 58.1466 29.3349 58.0835 29.0832 57.9576C28.7861 57.8083 21.7269 54.2355 14.5729 47.716C10.3418 43.8598 6.96306 39.7697 4.53095 35.5587C1.44654 30.2198 -0.117188 24.6763 -0.117188 19.0819C-0.117188 9.59383 7.60164 1.875 17.0897 1.875C22.0107 1.875 26.641 3.96927 29.8829 7.57371C33.1243 3.96927 37.7551 1.875 42.676 1.875C52.1641 1.875 59.8829 9.59383 59.8829 19.0819C59.8829 24.6763 58.3187 30.2198 55.2348 35.5587C52.8027 39.7697 49.4239 43.8598 45.1928 47.716C38.0389 54.2355 30.9797 57.8083 30.6826 57.9576C30.4308 58.0835 30.1571 58.1466 29.8829 58.1466Z" fill="#FF5B5B"/>
<path d="M30.6825 57.9576C30.9796 57.8083 38.0388 54.2355 45.1927 47.716C49.4239 43.8598 52.8026 39.7697 55.2347 35.5587C58.3191 30.2198 59.8829 24.6758 59.8829 19.0819C59.8829 9.59383 52.164 1.875 42.676 1.875C37.755 1.875 33.1242 3.96927 29.8828 7.57371V58.1466C30.157 58.1466 30.4308 58.0835 30.6825 57.9576Z" fill="#FF193D"/>
<path d="M29.8828 45.9924C24.0308 45.9924 19.27 41.2316 19.27 35.3796C19.27 33.0221 20.7857 29.1059 23.9031 23.4072C26.1154 19.3633 28.2912 15.98 28.3827 15.838C28.7114 15.3281 29.2763 15.02 29.8828 15.02C30.4894 15.02 31.0542 15.3281 31.3829 15.838C31.4745 15.98 33.6502 19.3633 35.8626 23.4072C38.98 29.1059 40.4956 33.0221 40.4956 35.3796C40.4956 41.2316 35.7349 45.9924 29.8828 45.9924Z" fill="#FFB64C"/>
<path d="M40.4956 35.3796C40.4956 33.0221 38.98 29.1059 35.8626 23.4072C33.6502 19.3633 31.4745 15.98 31.3829 15.838C31.0542 15.3281 30.4894 15.02 29.8828 15.02V45.9924C35.7349 45.9924 40.4956 41.2316 40.4956 35.3796Z" fill="#FF9100"/>
<path d="M29.8827 45.9925C26.465 45.9925 23.6841 43.212 23.6841 39.7939C23.6841 37.0445 27.2803 31.2502 28.3826 29.5399C28.7112 29.03 29.2761 28.7219 29.8827 28.7219C30.4892 28.7219 31.0541 29.03 31.3828 29.5399C32.4851 31.2502 36.0813 37.0445 36.0813 39.7939C36.0813 43.212 33.3008 45.9925 29.8827 45.9925Z" fill="#FFEE6E"/>
<path d="M36.0814 39.7939C36.0814 37.0445 32.4852 31.2502 31.3829 29.5399C31.0542 29.03 30.4893 28.7219 29.8828 28.7219V45.9929C33.3009 45.9925 36.0814 43.212 36.0814 39.7939Z" fill="#FDBF00"/>
</g>
<defs>
<clipPath id="clip0">
<rect width="60" height="60" fill="white"/>
</clipPath>
</defs>
</svg>
