<svg width="148" height="45" viewBox="0 0 148 45" fill="none" xmlns="http://www.w3.org/2000/svg">
<path fill-rule="evenodd" clip-rule="evenodd" d="M3.26031 29.0089C2.14701 20.6518 7.9521 12.8572 16.3019 11.8125C24.4926 10.7679 32.2063 16.6339 33.24 24.9911C34.2738 33.2679 28.4687 41.0625 20.1985 42.1072C12.0077 43.1518 4.2941 37.2857 3.26031 29.0089ZM35.6257 28.4464C35.8643 25.9554 36.0233 11.5714 35.6257 9.64286C35.069 6.83036 30.6158 9.00001 28.9459 9.56251C24.2541 11.1696 26.4807 10.7679 22.0275 9.72322C19.0056 9.00001 16.5405 9.16072 13.5982 9.88393C9.94015 10.8482 12.5644 11.25 6.75927 9.32143C-0.556735 6.91072 0.636092 7.63393 0.636092 19.9286C0.636092 25.9554 -8.21948e-05 30.9375 3.26031 36.3214C5.72549 40.3393 9.70158 43.2322 14.2343 44.2768C24.8107 46.5268 34.6714 39.2143 35.6257 28.4464Z" fill="white"/>
<path fill-rule="evenodd" clip-rule="evenodd" d="M15.1091 23.625C13.5187 23.625 11.6102 23.5446 10.0198 23.625C7.95218 23.7857 8.11123 25.1518 8.11123 26.8393C8.11123 31.0982 8.50884 30.4554 15.1887 30.375C15.1887 32.0625 15.1091 33.9107 15.1887 35.5179C15.2682 37.6071 16.8586 37.4464 18.5286 37.4464C22.6637 37.4464 21.8685 36.8036 21.8685 30.2946C28.4688 30.2946 28.946 31.0179 28.946 26.9196C28.946 25.3929 29.1845 23.7054 27.1965 23.5446C25.6856 23.3839 23.4589 23.5446 21.8685 23.5446C21.8685 16.9554 22.5842 16.3929 18.5286 16.3929C14.3935 16.5536 15.1091 17.1964 15.1091 23.625Z" fill="white"/>
<path fill-rule="evenodd" clip-rule="evenodd" d="M3.26031 29.0089C2.14701 20.6518 7.9521 12.8572 16.3019 11.8125C24.4926 10.7679 32.2063 16.6339 33.24 24.9911C34.2738 33.2679 28.4687 41.0625 20.1985 42.1072C12.0077 43.1518 4.2941 37.2857 3.26031 29.0089ZM35.6257 28.4464C35.8643 25.9554 36.0233 11.5714 35.6257 9.64286C35.069 6.83036 30.6158 9.00001 28.9459 9.56251C24.2541 11.1696 26.4807 10.7679 22.0275 9.72322C19.0056 9.00001 16.5405 9.16072 13.5982 9.88393C9.94015 10.8482 12.5644 11.25 6.75927 9.32143C-0.556735 6.91072 0.636092 7.63393 0.636092 19.9286C0.636092 25.9554 -8.21948e-05 30.9375 3.26031 36.3214C5.72549 40.3393 9.70158 43.2322 14.2343 44.2768C24.8107 46.5268 34.6714 39.2143 35.6257 28.4464Z" fill="#314357"/>
<path fill-rule="evenodd" clip-rule="evenodd" d="M15.1091 23.625C13.5187 23.625 11.6102 23.5446 10.0198 23.625C7.95218 23.7857 8.11123 25.1518 8.11123 26.8393C8.11123 31.0982 8.50884 30.4554 15.1887 30.375C15.1887 32.0625 15.1091 33.9107 15.1887 35.5179C15.2682 37.6071 16.8586 37.4464 18.5286 37.4464C22.6637 37.4464 21.8685 36.8036 21.8685 30.2946C28.4688 30.2946 28.946 31.0179 28.946 26.9196C28.946 25.3929 29.1845 23.7054 27.1965 23.5446C25.6856 23.3839 23.4589 23.5446 21.8685 23.5446C21.8685 16.9554 22.5842 16.3929 18.5286 16.3929C14.3935 16.5536 15.1091 17.1964 15.1091 23.625Z" fill="#00AB88"/>
<path fill-rule="evenodd" clip-rule="evenodd" d="M49.3831 28.4464C49.3831 28.9286 49.3036 29.3304 49.065 29.6518C48.906 29.9732 48.5879 30.2143 48.2698 30.375C47.9517 30.5357 47.5541 30.6964 47.1565 30.7768C46.7589 30.8571 46.2817 30.9375 45.7251 30.9375C45.3275 30.9375 44.9299 30.9375 44.5323 30.9375C44.1347 30.9375 43.737 30.8571 43.2599 30.7768C43.1009 30.7768 43.0213 30.6964 42.9418 30.6161C42.9418 30.5357 42.8623 30.375 42.8623 30.2143V23.3839C42.8623 23.2232 42.9418 23.1429 43.0213 23.0625C43.1009 22.9821 43.1804 22.9821 43.3394 22.9821C43.6575 22.9018 44.0551 22.9018 44.4527 22.9018C44.8504 22.9018 45.3275 22.8214 45.7251 22.8214C46.2022 22.8214 46.6794 22.8214 47.1565 22.9018C47.5541 22.9821 47.9517 23.0625 48.2698 23.3036C48.5879 23.4643 48.8264 23.7054 48.9855 24.0268C49.1445 24.3482 49.2241 24.75 49.2241 25.1518V25.3125C49.2241 26.0357 48.906 26.5179 48.3493 26.8393C48.6674 26.9196 48.906 27.1607 49.065 27.4018C49.224 27.6428 49.3036 28.0446 49.3036 28.4464H49.3831ZM47.236 28.2857C47.236 28.0446 47.1565 27.8839 46.9974 27.7232C46.8384 27.5625 46.5998 27.4821 46.2022 27.4821H45.1684V29.1696C45.248 29.1696 45.3275 29.1696 45.407 29.1696C45.4865 29.1696 45.6456 29.1696 45.9637 29.1696C46.4408 29.1696 46.8384 29.0893 46.9974 28.9286C47.1565 28.7678 47.236 28.6071 47.236 28.3661V28.2857ZM47.236 25.1518C47.236 24.9107 47.1565 24.6696 46.9179 24.5893C46.6794 24.5089 46.3613 24.4286 45.8841 24.4286H45.566C45.407 24.4286 45.3275 24.4286 45.248 24.4286V26.0357H46.2817C46.6794 26.0357 46.9179 25.9553 47.077 25.7946C47.236 25.6339 47.236 25.4732 47.236 25.2321V25.1518ZM57.8124 27.2411C57.8124 27.4821 57.7329 27.5625 57.4943 27.5625H53.1206C53.1206 27.7232 53.1206 27.9643 53.2001 28.125C53.2797 28.2857 53.3592 28.4464 53.4387 28.6071C53.5182 28.7678 53.6773 28.8482 53.8363 28.9286C53.9954 29.0089 54.2339 29.0893 54.4725 29.0893C54.7111 29.0893 54.9496 29.0893 55.1882 29.0893C55.4268 29.0893 55.6653 29.0893 55.9039 29.0893C56.1425 29.0893 56.381 29.0893 56.5401 29.0893C56.7786 29.0893 56.9377 29.0893 57.0967 29.0089H57.2558C57.4148 29.0089 57.4943 29.0893 57.4943 29.25V30.2946C57.4943 30.375 57.4943 30.4553 57.4148 30.5357C57.3353 30.6161 57.3353 30.6161 57.1762 30.6964C56.6991 30.7768 56.3015 30.9375 55.9039 30.9375C55.5063 31.0178 54.9496 31.0178 54.393 31.0178C53.9954 31.0178 53.5978 30.9375 53.1206 30.8571C52.723 30.6964 52.3254 30.5357 52.0073 30.2946C51.6892 30.0536 51.4507 29.6518 51.2121 29.1696C50.9735 28.6875 50.894 28.125 50.894 27.4821V26.5179C50.894 25.9554 50.9735 25.4732 51.1326 24.9911C51.2916 24.5089 51.5302 24.1875 51.7687 23.8661C52.0868 23.5446 52.4049 23.3036 52.8821 23.1428C53.3592 22.9821 53.8363 22.9018 54.3134 22.9018C54.8701 22.9018 55.3472 22.9821 55.7448 23.2232C56.1424 23.3839 56.5401 23.625 56.7786 23.9464C57.0967 24.2678 57.2558 24.6696 57.4148 25.0714C57.5738 25.4732 57.6534 26.0357 57.6534 26.5179C57.8124 26.4375 57.8124 27.2411 57.8124 27.2411ZM55.6653 26.1161C55.6653 25.6339 55.5858 25.2321 55.3472 24.9911C55.1087 24.75 54.7906 24.5893 54.4725 24.5893C54.0749 24.5893 53.7568 24.75 53.5182 24.9911C53.2797 25.2321 53.2001 25.6339 53.2001 26.1161V26.1964L55.6653 26.1161C55.6653 26.1964 55.6653 26.1161 55.6653 26.1161ZM62.9018 24.6696V30.5357C62.9018 30.6161 62.9018 30.6964 62.8223 30.7768C62.7428 30.8571 62.6632 30.8571 62.5837 30.8571H60.9138C60.8342 30.8571 60.7547 30.8571 60.7547 30.7768C60.7547 30.6964 60.6752 30.6161 60.6752 30.5357V24.6696H58.9257C58.8462 24.6696 58.7667 24.6696 58.6872 24.5893C58.6076 24.5089 58.6076 24.4286 58.6076 24.4286V23.2232C58.6076 23.1429 58.6076 23.0625 58.6872 22.9821C58.7667 22.9018 58.8462 22.9018 58.9257 22.9018H64.5718C64.6513 22.9018 64.7308 22.9018 64.8103 22.9821C64.8899 23.0625 64.8899 23.1429 64.8899 23.2232V24.4286C64.8899 24.5089 64.8899 24.5893 64.8103 24.5893C64.7308 24.6696 64.6513 24.6696 64.5718 24.6696H62.9018ZM72.4444 27.2411C72.4444 27.4821 72.3649 27.5625 72.1263 27.5625H67.7526C67.7526 27.7232 67.7526 27.9643 67.8322 28.125C67.9117 28.2857 67.9912 28.4464 68.0707 28.6071C68.1502 28.7678 68.3093 28.8482 68.4683 28.9286C68.6274 29.0089 68.8659 29.0893 69.1045 29.0893C69.3431 29.0893 69.5816 29.0893 69.8202 29.0893C70.0588 29.0893 70.2973 29.0893 70.5359 29.0893C70.7745 29.0893 71.013 29.0893 71.1721 29.0893C71.4106 29.0893 71.5697 29.0893 71.7287 29.0089H71.8083C71.9673 29.0089 72.0468 29.0893 72.0468 29.25V30.2946C72.0468 30.375 72.0468 30.4553 71.9673 30.5357C71.9673 30.6161 71.8878 30.6161 71.7287 30.6964C71.2516 30.7768 70.854 30.9375 70.4564 30.9375C70.0588 31.0178 69.5021 31.0178 68.9455 31.0178C68.5479 31.0178 68.1502 30.9375 67.6731 30.8571C67.2755 30.6964 66.8779 30.5357 66.5598 30.2946C66.2417 30.0536 66.0032 29.6518 65.7646 29.1696C65.526 28.6875 65.4465 28.125 65.4465 27.4821V26.5179C65.4465 25.9554 65.526 25.4732 65.6851 24.9911C65.8441 24.5089 66.0827 24.1875 66.3212 23.8661C66.6393 23.5446 66.9574 23.3036 67.4346 23.1428C67.9117 22.9821 68.3888 22.9018 68.8659 22.9018C69.4226 22.9018 69.8997 22.9821 70.2973 23.2232C70.6949 23.4643 71.0926 23.625 71.3311 23.9464C71.6492 24.2678 71.8083 24.6696 71.9673 25.0714C72.1263 25.4732 72.2059 26.0357 72.2059 26.5179L72.4444 27.2411ZM70.2973 26.1161C70.2973 25.6339 70.2178 25.2321 69.9792 24.9911C69.7407 24.75 69.4226 24.5893 69.1045 24.5893C68.7069 24.5893 68.3888 24.75 68.1502 24.9911C67.9117 25.2321 67.8322 25.6339 67.8322 26.1161V26.1964L70.2973 26.1161ZM81.0328 27.4018C81.0328 28.4464 80.7942 29.3303 80.158 29.9732C79.5219 30.6161 78.7267 30.9375 77.5338 30.9375C77.3748 30.9375 77.2157 30.9375 76.9772 30.9375C76.7386 30.9375 76.5796 30.9375 76.341 30.8571V33.2679C76.341 33.3482 76.341 33.4286 76.2615 33.4286C76.182 33.5089 76.1024 33.5089 76.1024 33.5089H74.4325C74.3529 33.5089 74.2734 33.5089 74.1939 33.4286C74.1144 33.3482 74.1144 33.2679 74.1144 33.2679V23.5446C74.1144 23.4643 74.1144 23.3839 74.1939 23.3036C74.2734 23.2232 74.3529 23.2232 74.512 23.1428C74.9096 23.0625 75.3867 22.9821 75.8639 22.9018C76.341 22.8214 76.8977 22.8214 77.4543 22.8214C78.5676 22.8214 79.4423 23.1428 79.999 23.7857C80.5557 24.4286 80.8737 25.2321 80.8737 26.4375L81.0328 27.4018ZM78.8062 26.3571C78.8062 26.1161 78.8062 25.875 78.7267 25.7143C78.6471 25.5536 78.6471 25.3125 78.5676 25.1518C78.4881 24.9911 78.329 24.9107 78.17 24.8304C78.011 24.75 77.8519 24.6696 77.5338 24.6696C77.2953 24.6696 77.0567 24.6696 76.8976 24.6696C76.7386 24.6696 76.5796 24.6696 76.4205 24.75V29.0089C76.5796 29.0089 76.7386 29.0089 76.9772 29.0893C77.2157 29.0893 77.3748 29.0893 77.5338 29.0893C77.7724 29.0893 78.011 29.0089 78.17 28.9286C78.329 28.8482 78.4086 28.6875 78.5676 28.6071C78.6471 28.4464 78.7267 28.2857 78.7267 28.0446C78.7267 27.8036 78.8062 27.6428 78.8062 27.4018V26.3571ZM83.0208 30.7768C82.9413 30.7768 82.8618 30.7768 82.7823 30.6964C82.7027 30.6964 82.7027 30.5357 82.7027 30.4554V23.1428C82.7027 23.0625 82.7027 22.9821 82.7823 22.9018C82.8618 22.8214 82.9413 22.8214 82.9413 22.8214H84.4522C84.5317 22.8214 84.6113 22.8214 84.6908 22.9018C84.7703 22.9821 84.7703 22.9821 84.7703 23.1428V26.9196C84.7703 27 84.7703 27 84.8498 27C84.8498 27 84.9294 27 84.9294 26.9196L87.2355 23.2232C87.315 23.1429 87.3945 23.0625 87.4741 22.9821C87.5536 22.9018 87.6331 22.9018 87.7126 22.9018H89.2235C89.3031 22.9018 89.3826 22.9018 89.3826 22.9821C89.3826 23.0625 89.4621 23.0625 89.4621 23.1428V30.5357C89.4621 30.6161 89.4621 30.6964 89.3826 30.7768C89.3031 30.8571 89.2235 30.8571 89.144 30.8571H87.6331C87.5536 30.8571 87.4741 30.8571 87.4741 30.7768C87.4741 30.6964 87.4741 30.6161 87.4741 30.5357V27C87.4741 26.9196 87.4741 26.9196 87.3945 26.9196C87.3945 26.9196 87.315 26.9196 87.315 27L85.0884 30.5357C85.0089 30.6964 84.9294 30.7768 84.8498 30.7768C84.7703 30.7768 84.6908 30.8571 84.5317 30.8571L83.0208 30.7768ZM98.289 30.5357C98.289 30.6161 98.289 30.6964 98.2095 30.7768C98.13 30.8571 98.13 30.8571 98.0505 30.8571H96.3805C96.301 30.8571 96.2215 30.8571 96.1419 30.7768C96.0624 30.6964 96.0624 30.6161 96.0624 30.5357V27.6429H93.6768V30.5357C93.6768 30.6161 93.6768 30.6964 93.5972 30.7768C93.5177 30.8571 93.4382 30.8571 93.3587 30.8571H91.6887C91.6092 30.8571 91.5297 30.8571 91.4501 30.7768C91.3706 30.6964 91.3706 30.6161 91.3706 30.5357V23.2232C91.3706 23.1429 91.3706 23.0625 91.4501 22.9821C91.5297 22.9821 91.6092 22.9018 91.6887 22.9018H93.3587C93.4382 22.9018 93.5177 22.9018 93.5972 22.9821C93.6768 22.9821 93.6768 23.0625 93.6768 23.2232V25.7946H96.0624V23.2232C96.0624 23.1429 96.0624 23.0625 96.1419 22.9821C96.2215 22.9821 96.301 22.9018 96.3805 22.9018H98.0505C98.13 22.9018 98.2095 22.9018 98.2095 22.9821C98.289 22.9821 98.289 23.0625 98.289 23.2232V30.5357ZM106.321 30.5357C106.321 30.6161 106.321 30.6964 106.241 30.6964C106.162 30.7768 106.162 30.7768 106.082 30.7768H104.571C104.492 30.7768 104.412 30.7768 104.412 30.6964C104.412 30.6161 104.333 30.5357 104.333 30.5357V30.2946C104.094 30.4554 103.776 30.6161 103.458 30.7768C103.14 30.9375 102.822 30.9375 102.424 30.9375C102.106 30.9375 101.868 30.9375 101.549 30.8571C101.231 30.7768 100.993 30.6161 100.834 30.4554C100.595 30.2946 100.436 30.0536 100.277 29.7321C100.118 29.4107 100.039 29.0893 100.039 28.6071V28.5268C100.039 27.7232 100.277 27.1607 100.834 26.7589C101.39 26.3571 102.186 26.1964 103.378 26.1964H104.094V25.7143C104.094 25.3125 104.015 25.0714 103.856 24.9107C103.697 24.75 103.378 24.75 103.14 24.75C102.901 24.75 102.663 24.75 102.504 24.75C102.265 24.75 102.027 24.75 101.868 24.75C101.708 24.75 101.47 24.75 101.311 24.75C101.152 24.75 100.993 24.75 100.913 24.75H100.834C100.754 24.75 100.675 24.75 100.675 24.6696C100.595 24.6696 100.595 24.5893 100.595 24.5089V23.3839C100.595 23.2232 100.675 23.1429 100.834 23.0625C101.072 22.9821 101.47 22.9018 101.868 22.9018C102.265 22.8214 102.742 22.8214 103.219 22.8214C103.697 22.8214 104.174 22.9018 104.571 22.9821C104.969 23.0625 105.287 23.2232 105.605 23.4643C105.844 23.7054 106.082 23.9464 106.241 24.3482C106.4 24.6696 106.48 25.1518 106.48 25.6339L106.321 30.5357ZM104.174 27.4018H103.378C103.14 27.4018 102.901 27.4018 102.822 27.4821C102.663 27.4821 102.504 27.5625 102.424 27.6429C102.345 27.7232 102.265 27.8036 102.265 27.9643C102.265 28.125 102.186 28.2053 102.186 28.3661V28.5268C102.186 28.8482 102.265 29.0089 102.424 29.0893C102.583 29.1696 102.742 29.25 103.06 29.25C103.299 29.25 103.458 29.25 103.697 29.1696C103.856 29.0893 104.094 29.0089 104.253 28.9286L104.174 27.4018ZM115.068 27.4018C115.068 28.4464 114.75 29.3303 114.193 29.9732C113.637 30.6161 112.762 30.9375 111.569 30.9375C111.41 30.9375 111.251 30.9375 111.092 30.9375C110.853 30.9375 110.694 30.9375 110.456 30.8571V33.2679C110.456 33.3482 110.456 33.4286 110.376 33.4286C110.297 33.5089 110.297 33.5089 110.217 33.5089H108.547C108.468 33.5089 108.388 33.5089 108.309 33.4286C108.229 33.3482 108.229 33.2679 108.229 33.2679V23.5446C108.229 23.4643 108.229 23.3839 108.309 23.3036C108.388 23.2232 108.468 23.2232 108.627 23.1428C109.024 23.0625 109.502 22.9821 109.979 22.9018C110.456 22.8214 111.013 22.8214 111.569 22.8214C112.682 22.8214 113.557 23.1428 114.114 23.7857C114.671 24.4286 114.989 25.2321 114.989 26.4375L115.068 27.4018ZM112.842 26.3571C112.842 26.1161 112.842 25.875 112.762 25.7143C112.762 25.4732 112.682 25.3125 112.603 25.1518C112.523 24.9911 112.364 24.9107 112.205 24.8304C112.046 24.75 111.887 24.6696 111.569 24.6696C111.331 24.6696 111.092 24.6696 110.933 24.6696C110.774 24.6696 110.615 24.6696 110.456 24.75V29.0089C110.615 29.0089 110.774 29.0089 111.013 29.0893C111.251 29.0893 111.41 29.0893 111.569 29.0893C111.808 29.0893 112.046 29.0089 112.205 28.9286C112.364 28.8482 112.523 28.6875 112.603 28.6071C112.682 28.4464 112.762 28.2857 112.762 28.0446C112.842 27.8036 112.842 27.6428 112.842 27.4018V26.3571ZM123.577 30.5357C123.577 30.6161 123.577 30.6964 123.497 30.7768C123.418 30.8571 123.418 30.8571 123.338 30.8571H121.668C121.589 30.8571 121.509 30.8571 121.43 30.7768C121.35 30.6964 121.35 30.6161 121.35 30.5357V27.6429H118.965V30.5357C118.965 30.6161 118.965 30.6964 118.885 30.7768C118.806 30.8571 118.806 30.8571 118.726 30.8571H117.056C116.977 30.8571 116.897 30.8571 116.818 30.7768C116.738 30.6964 116.738 30.6161 116.738 30.5357V23.2232C116.738 23.1429 116.738 23.0625 116.818 22.9821C116.897 22.9821 116.977 22.9018 117.056 22.9018H118.726C118.806 22.9018 118.885 22.9018 118.885 22.9821C118.885 23.0625 118.965 23.0625 118.965 23.2232V25.7946H121.35V23.2232C121.35 23.1429 121.35 23.0625 121.43 22.9821C121.509 22.9821 121.589 22.9018 121.668 22.9018H123.338C123.418 22.9018 123.497 22.9018 123.497 22.9821C123.497 23.0625 123.577 23.0625 123.577 23.2232V30.5357ZM135.187 30.5357C135.187 30.6161 135.187 30.6964 135.108 30.6964C135.028 30.7768 135.028 30.7768 134.949 30.7768H133.279C133.199 30.7768 133.12 30.7768 133.12 30.6964C133.04 30.6161 133.04 30.5357 133.04 30.5357V23.1428C133.04 23.0625 133.04 22.9821 133.12 22.9821C133.199 22.9018 133.199 22.9018 133.279 22.9018H134.949C135.028 22.9018 135.108 22.9018 135.108 22.9821C135.187 23.0625 135.187 23.0625 135.187 23.1428V30.5357ZM132.006 28.2857C132.006 28.8482 131.927 29.3304 131.688 29.6518C131.529 29.9732 131.211 30.2946 130.893 30.4554C130.575 30.6161 130.177 30.7768 129.78 30.8571C129.303 30.9375 128.905 30.9375 128.348 30.9375C127.951 30.9375 127.553 30.9375 127.155 30.9375C126.758 30.9375 126.281 30.8571 125.883 30.7768C125.724 30.7768 125.645 30.6964 125.565 30.6161C125.485 30.5357 125.485 30.375 125.485 30.2143V23.2232C125.485 23.1429 125.485 23.0625 125.565 22.9821C125.645 22.9821 125.724 22.9018 125.804 22.9018H127.474C127.553 22.9018 127.633 22.9018 127.712 22.9821C127.792 23.0625 127.792 23.0625 127.792 23.2232V25.5536C127.871 25.5536 127.951 25.5536 128.11 25.5536H128.428C128.905 25.5536 129.382 25.5536 129.859 25.6339C130.336 25.7143 130.654 25.875 130.972 26.0357C131.291 26.2768 131.529 26.5179 131.768 26.8393C131.927 27.1607 132.086 27.6428 132.086 28.2053L132.006 28.2857ZM128.428 27.1607C128.348 27.1607 128.269 27.1607 128.11 27.1607C127.951 27.1607 127.871 27.1607 127.871 27.1607V29.1696C127.951 29.1696 127.951 29.1696 128.03 29.1696C128.11 29.1696 128.269 29.1696 128.428 29.1696C128.984 29.1696 129.382 29.0893 129.541 28.9286C129.7 28.7678 129.859 28.5268 129.859 28.2053V28.125C129.859 27.8036 129.78 27.5625 129.541 27.4018C129.382 27.2411 128.984 27.1607 128.428 27.1607ZM142.901 20.0893C142.98 20.0893 143.06 20.1696 143.06 20.25C142.98 20.4911 142.901 20.8125 142.742 21.0536C142.583 21.2946 142.424 21.5357 142.265 21.6964C142.026 21.8571 141.787 22.0179 141.549 22.0982C141.231 22.1786 140.913 22.2589 140.595 22.2589C140.197 22.2589 139.879 22.1786 139.64 22.0982C139.322 22.0179 139.084 21.8571 138.925 21.6964C138.686 21.5357 138.527 21.2946 138.448 21.0536C138.289 20.8125 138.209 20.5714 138.129 20.25C138.129 20.1696 138.129 20.0893 138.288 20.0893H139.481C139.561 20.0893 139.64 20.1696 139.64 20.25C139.72 20.5714 139.879 20.7321 140.038 20.8929C140.197 20.9732 140.436 21.0536 140.674 21.0536C140.913 21.0536 141.151 20.9732 141.31 20.8929C141.469 20.8125 141.628 20.5714 141.708 20.25C141.708 20.1696 141.708 20.1696 141.787 20.1696C141.787 20.1696 141.867 20.1696 141.947 20.1696C141.708 20.0893 142.901 20.0893 142.901 20.0893ZM137.493 30.7768C137.414 30.7768 137.334 30.7768 137.255 30.6964C137.175 30.6964 137.175 30.5357 137.175 30.4554V23.1428C137.175 23.0625 137.175 22.9821 137.255 22.9018C137.334 22.8214 137.334 22.8214 137.414 22.8214H138.925C139.004 22.8214 139.084 22.8214 139.163 22.9018C139.243 22.9821 139.243 22.9821 139.243 23.1428V26.9196C139.243 27 139.243 27 139.322 27C139.322 27 139.402 27 139.402 26.9196L141.708 23.2232C141.787 23.1429 141.867 23.0625 141.947 22.9821C142.026 22.9018 142.106 22.9018 142.185 22.9018H143.696C143.776 22.9018 143.855 22.9018 143.855 22.9821C143.855 23.0625 143.935 23.0625 143.935 23.1428V30.5357C143.935 30.6161 143.935 30.6964 143.855 30.7768C143.776 30.8571 143.696 30.8571 143.616 30.8571H142.106C142.026 30.8571 141.947 30.8571 141.947 30.7768C141.947 30.6964 141.867 30.6161 141.867 30.5357V27C141.867 26.9196 141.867 26.9196 141.787 26.9196C141.708 26.9196 141.708 26.9196 141.708 27L139.481 30.5357C139.402 30.6964 139.322 30.7768 139.243 30.7768C139.163 30.7768 139.084 30.8571 138.925 30.8571" fill="#183D50"/>
<path fill-rule="evenodd" clip-rule="evenodd" d="M44.6912 36.0804C44.6912 36 44.6116 36 44.6116 36C44.6116 36 44.5321 36 44.4526 36.0804L43.7369 38.9732V39.0536C43.7369 39.0536 43.7369 39.0536 43.6574 39.0536H43.3393C43.2598 39.0536 43.2598 39.0536 43.2598 38.9732C43.2598 38.9732 43.2598 38.9732 43.2598 38.8929L44.055 35.9196C44.055 35.8393 44.1345 35.7589 44.1345 35.6786C44.214 35.5982 44.214 35.5982 44.2935 35.5179C44.3731 35.4375 44.3731 35.4375 44.4526 35.4375C44.5321 35.4375 44.6116 35.4375 44.6116 35.4375C44.6116 35.4375 44.6912 35.4375 44.7707 35.4375C44.8502 35.4375 44.8502 35.4375 44.9297 35.5179C45.0092 35.5179 45.0092 35.5982 45.0888 35.6786C45.1683 35.7589 45.1683 35.8393 45.1683 35.9196L45.9635 38.8929C45.9635 38.8929 45.9635 38.8929 45.9635 38.9732C45.9635 39.0536 45.9635 39.0536 45.884 39.0536H45.5659H45.4864C45.4864 39.0536 45.4864 39.0536 45.4864 38.9732L44.6912 36.0804ZM48.9853 37.3661C48.9853 37.4464 48.9058 37.5268 48.9058 37.5268H46.9178V37.6071C46.9178 38.0089 46.9973 38.25 47.1563 38.4107C47.3154 38.5714 47.4744 38.6518 47.7925 38.6518C47.9516 38.6518 48.1106 38.6518 48.3492 38.6518C48.5082 38.6518 48.6673 38.6518 48.8263 38.5714H48.9058V38.6518V38.8929C48.9058 38.9732 48.9058 38.9732 48.9058 38.9732C48.9058 38.9732 48.8263 38.9732 48.8263 39.0536C48.6673 39.0536 48.5082 39.1339 48.3492 39.1339C48.1901 39.1339 48.0311 39.1339 47.7925 39.1339C47.6335 39.1339 47.4744 39.1339 47.3154 39.0536C47.1563 38.9732 46.9973 38.8929 46.9178 38.8125C46.7587 38.6518 46.6792 38.5714 46.5997 38.3304C46.5202 38.0893 46.5202 37.8482 46.5202 37.5268V36.9643C46.5202 36.4821 46.5997 36.1607 46.8382 35.8393C47.0768 35.5179 47.3949 35.4375 47.7925 35.4375C48.0311 35.4375 48.1901 35.4375 48.3492 35.5179C48.5082 35.5982 48.6673 35.6786 48.7468 35.8393C48.8263 36 48.9058 36.1607 48.9853 36.3214C49.0649 36.4821 49.0649 36.7232 49.0649 36.9643L48.9853 37.3661ZM48.4287 36.9643C48.4287 36.5625 48.3492 36.3214 48.2696 36.1607C48.1106 36 47.9516 35.9196 47.713 35.9196C47.4744 35.9196 47.2359 36 47.1563 36.1607C46.9973 36.3214 46.9178 36.5625 46.9178 36.9643V37.0446L48.4287 36.9643C48.4287 37.0446 48.4287 36.9643 48.4287 36.9643ZM52.1662 38.9732V39.0536H52.0867H51.8481H51.7686V38.9732V37.6071C51.6096 37.6071 51.53 37.6071 51.371 37.6875C51.2119 37.7679 51.0529 37.6875 50.8939 37.6875C50.7348 37.6875 50.5758 37.6875 50.4167 37.6875C50.2577 37.6875 50.1782 37.6071 50.0986 37.5268C50.0191 37.4464 49.9396 37.3661 49.8601 37.2054C49.7806 37.0446 49.7806 36.8839 49.7806 36.6429V35.5982V35.5179H49.8601H50.0986H50.1782V35.5982V36.6429C50.1782 36.7232 50.1782 36.8839 50.2577 36.8839C50.2577 36.9643 50.3372 37.0446 50.4167 37.0446C50.4963 37.125 50.5758 37.125 50.6553 37.125C50.7348 37.125 50.8939 37.125 50.9734 37.125C50.9734 37.125 51.0529 37.125 51.1324 37.125C51.212 37.125 51.2915 37.125 51.371 37.125C51.4505 37.125 51.53 37.125 51.6096 37.125C51.6891 37.125 51.7686 37.125 51.7686 37.125V35.5982V35.5179H51.8481H52.0867H52.1662V35.5982V38.9732ZM55.5857 37.3661C55.5857 37.4464 55.5061 37.5268 55.5061 37.5268H53.5181V37.6071C53.5181 38.0089 53.5976 38.25 53.7566 38.4107C53.9157 38.5714 54.0747 38.6518 54.3928 38.6518C54.5519 38.6518 54.7109 38.6518 54.9495 38.6518C55.1085 38.6518 55.2676 38.6518 55.4266 38.5714H55.5061L55.5857 38.6518V38.8929C55.5857 38.9732 55.5857 38.9732 55.5857 38.9732C55.5857 38.9732 55.5061 38.9732 55.5061 39.0536C55.3471 39.0536 55.188 39.1339 55.029 39.1339C54.87 39.1339 54.7109 39.1339 54.4723 39.1339C54.3133 39.1339 54.1543 39.1339 53.9952 39.0536C53.8362 38.9732 53.6771 38.8929 53.5976 38.8125C53.4386 38.6518 53.359 38.5714 53.2795 38.3304C53.2 38.0893 53.2 37.8482 53.2 37.5268V36.9643C53.2 36.4821 53.2795 36.1607 53.5181 35.8393C53.7566 35.5179 54.0747 35.4375 54.4723 35.4375C54.7109 35.4375 54.87 35.4375 55.029 35.5179C55.188 35.5982 55.3471 35.6786 55.4266 35.8393C55.5061 36 55.5856 36.1607 55.6652 36.3214C55.7447 36.4821 55.7447 36.7232 55.7447 36.9643L55.5857 37.3661ZM55.1085 36.9643C55.1085 36.5625 55.029 36.3214 54.9495 36.1607C54.7904 36 54.6314 35.9196 54.3928 35.9196C54.1543 35.9196 53.9157 36 53.8362 36.1607C53.6771 36.3214 53.5976 36.5625 53.5976 36.9643V37.0446L55.1085 36.9643C55.1085 37.0446 55.1085 36.9643 55.1085 36.9643ZM58.9256 37.5268C58.9256 38.0089 58.846 38.4107 58.6075 38.7321C58.3689 39.0536 58.0508 39.1339 57.6532 39.1339C57.2556 39.1339 56.9375 38.9732 56.699 38.7321C56.4604 38.4911 56.3809 38.0893 56.3809 37.5268V37.2054C56.3809 36.8839 56.3809 36.5625 56.3809 36.2411C56.3809 35.9196 56.4604 35.6786 56.5399 35.5179C56.6194 35.3571 56.7785 35.1161 56.9375 34.9554C57.0966 34.7946 57.3351 34.7143 57.6532 34.6339L58.0508 34.5536C58.2099 34.5536 58.2894 34.4732 58.3689 34.3929C58.4484 34.3125 58.4484 34.2321 58.4484 34.1518C58.4484 34.0714 58.4484 34.0714 58.528 34.0714H58.846C58.9256 34.0714 58.9256 34.0714 58.9256 34.1518C58.9256 34.3125 58.9256 34.3929 58.846 34.4732C58.7665 34.5536 58.7665 34.6339 58.687 34.7143C58.6075 34.7946 58.528 34.7946 58.4484 34.875C58.3689 34.875 58.2894 34.9554 58.2099 34.9554L57.7327 35.0357C57.4942 35.1161 57.3351 35.1161 57.2556 35.2768C57.0966 35.3571 57.017 35.5179 57.017 35.7589C57.0966 35.6786 57.1761 35.5982 57.3351 35.5982C57.4942 35.5179 57.5737 35.5179 57.7327 35.5179C58.1303 35.5179 58.4484 35.6786 58.687 35.9196C58.9256 36.1607 59.0051 36.6429 59.0051 37.125L58.9256 37.5268ZM58.4484 37.2054C58.4484 36.8036 58.3689 36.5625 58.2894 36.3214C58.1304 36.0804 57.9713 36 57.6532 36C57.3351 36 57.1761 36.0804 57.017 36.3214C56.858 36.4821 56.858 36.8036 56.858 37.2054V37.5268C56.858 37.9286 56.9375 38.1696 57.017 38.3304C57.1761 38.4911 57.3351 38.6518 57.6532 38.6518C57.9713 38.6518 58.1304 38.5714 58.2894 38.3304C58.4484 38.0893 58.4484 37.8482 58.4484 37.5268V37.2054ZM62.345 38.9732V39.0536H62.2655H61.9474H61.8679V38.9732V37.5268H60.357V38.9732V39.0536H60.2774H60.0389H59.9594L59.8798 38.9732V35.5982C59.8798 35.5982 59.8798 35.5179 59.9594 35.5179H60.0389H60.2774H60.357V35.5982V36.9643H61.8679V35.5982V35.5179H61.9474H62.186H62.2655V35.5982L62.345 38.9732ZM65.7644 37.5268C65.7644 37.7679 65.7644 38.0089 65.6849 38.1696C65.6054 38.3304 65.5259 38.5714 65.4464 38.6518C65.3668 38.7321 65.2078 38.8929 65.0488 38.9732C64.8897 39.0536 64.7307 39.0536 64.4921 39.0536C64.2535 39.0536 64.0945 39.0536 63.9354 38.9732C63.7764 38.8929 63.6174 38.8125 63.5378 38.6518C63.4583 38.4911 63.3788 38.3304 63.2993 38.1696C63.2197 37.9286 63.2197 37.7679 63.2197 37.5268V37.0446C63.2197 36.8036 63.2197 36.5625 63.2993 36.4018C63.3788 36.2411 63.4583 36 63.5378 35.9196C63.6174 35.7589 63.7764 35.6786 63.9354 35.5982C64.0945 35.5179 64.2535 35.5179 64.4921 35.5179C64.7307 35.5179 64.8897 35.5179 65.0488 35.5982C65.2078 35.6786 65.3668 35.7589 65.4464 35.9196C65.5259 36.0804 65.6054 36.2411 65.6849 36.4018C65.7644 36.6429 65.7644 36.8036 65.7644 37.0446V37.5268ZM65.2873 37.0446C65.2873 36.7232 65.2078 36.4018 65.1283 36.2411C64.9692 36 64.8102 35.9196 64.4921 35.9196C64.2535 35.9196 64.015 36 63.8559 36.2411C63.6969 36.4821 63.6969 36.7232 63.6969 37.0446V37.5268C63.6969 37.8482 63.7764 38.1696 63.8559 38.3304C64.015 38.4911 64.174 38.6518 64.4921 38.6518C64.7307 38.6518 64.9692 38.5714 65.1283 38.3304C65.2873 38.0893 65.2873 37.8482 65.2873 37.5268V37.0446ZM67.9115 37.2857C67.9115 37.3661 67.9115 37.3661 67.832 37.3661H66.6392C66.5597 37.3661 66.5597 37.3661 66.5597 37.2857V37.0446V36.9643H66.6392H67.832C67.9115 36.9643 67.9115 36.9643 67.9115 37.125V37.2857ZM71.5695 38.5714C71.5695 38.5714 71.6491 38.5714 71.5695 38.5714C71.6491 38.6518 71.6491 38.6518 71.6491 38.7321V39.6964V39.7768H71.5695H71.331H71.2515V39.6964V39.1339H69.0248V39.6964V39.7768H68.9453H68.7068H68.6272V39.6964V38.7321V38.6518H68.7068H68.9453L69.661 36C69.661 35.9196 69.7405 35.8393 69.7405 35.7589C69.8201 35.6786 69.8201 35.6786 69.8996 35.5982C69.9791 35.5179 69.9791 35.5179 70.0586 35.5179C70.1381 35.5179 70.2177 35.5179 70.2177 35.5179C70.2177 35.5179 70.2972 35.5179 70.3767 35.5179C70.4562 35.5179 70.4562 35.5179 70.5358 35.5982C70.6153 35.5982 70.6153 35.6786 70.6948 35.7589C70.7743 35.8393 70.7743 35.9196 70.7743 36L71.4105 38.6518C71.331 38.5714 71.5695 38.5714 71.5695 38.5714ZM69.3429 38.5714H70.7743L70.1381 36.0804C70.1381 36 70.0586 36 70.0586 36C69.9791 36 69.9791 36 69.8996 36.0804L69.3429 38.5714ZM72.3648 35.5982C72.3648 35.5179 72.3648 35.4375 72.4443 35.4375H72.7624H72.8419V35.5179V38.0893L74.1938 35.5179C74.1938 35.4375 74.2733 35.4375 74.2733 35.4375C74.2733 35.4375 74.3528 35.4375 74.4323 35.4375H74.7504C74.8299 35.4375 74.8299 35.4375 74.8299 35.4375C74.8299 35.4375 74.8299 35.5179 74.8299 35.5982V38.8929V38.9732H74.7504H74.4323H74.3528V38.8929V36.3214L73.0009 38.8929C73.0009 38.9732 72.9214 38.9732 72.9214 38.9732H72.8419H72.5238C72.4443 38.9732 72.4443 38.9732 72.3648 38.8929C72.2852 38.8125 72.3648 38.9732 72.3648 38.8929V35.5982ZM78.0903 38.9732V39.0536H78.0108H77.7722H77.6927V38.9732V38.8125C77.5337 38.8929 77.3746 38.9732 77.2951 39.0536C77.1361 39.1339 76.977 39.1339 76.818 39.1339C76.6589 39.1339 76.5794 39.1339 76.4999 39.0536C76.4204 39.0536 76.2613 38.9732 76.1818 38.8929C76.1023 38.8125 76.0228 38.7321 75.9432 38.5714C75.8637 38.4107 75.8637 38.25 75.8637 38.0893V38.0089C75.8637 37.8482 75.8637 37.6875 75.9432 37.5268C76.0228 37.3661 76.1023 37.2857 76.1818 37.2054C76.2613 37.125 76.4204 37.0446 76.6589 36.9643C76.8975 36.8839 77.0565 36.8839 77.2951 36.8839H77.6927V36.6429C77.6927 36.4018 77.6132 36.1607 77.5337 36.0804C77.4542 36 77.2951 35.9196 77.0565 35.9196C76.8975 35.9196 76.7385 35.9196 76.5794 35.9196C76.4204 35.9196 76.3409 35.9196 76.1818 35.9196H76.1023C76.1023 35.9196 76.0228 35.9196 76.0228 35.8393V35.5982C76.0228 35.5179 76.1023 35.5179 76.1818 35.4375C76.3409 35.4375 76.4204 35.4375 76.5794 35.3571C76.7385 35.2768 76.8975 35.3571 77.0565 35.3571C77.4542 35.3571 77.7722 35.4375 77.9313 35.6786C78.0903 35.9196 78.1699 36.2411 78.1699 36.5625L78.0903 38.9732ZM77.6132 37.3661H77.1361C76.977 37.3661 76.818 37.3661 76.6589 37.3661C76.5794 37.3661 76.4204 37.4464 76.4204 37.4464C76.3409 37.5268 76.3409 37.5268 76.2613 37.6071C76.2613 37.6875 76.1818 37.7679 76.1818 37.9286V38.0089C76.1818 38.25 76.2613 38.4107 76.3409 38.4911C76.4204 38.5714 76.5794 38.6518 76.7385 38.6518C76.8975 38.6518 76.977 38.6518 77.1361 38.5714C77.2951 38.5714 77.3746 38.4911 77.5337 38.4107L77.6132 37.3661ZM79.7603 36C79.6808 36 79.6012 36 79.6012 36.0804C79.6012 36.1607 79.5217 36.1607 79.5217 36.3214V39.0536V39.1339H79.4422H79.2036H79.1241V39.0536V36.3214C79.1241 36.1607 79.1241 36 79.2036 35.9196C79.2832 35.8393 79.3627 35.7589 79.3627 35.6786C79.4422 35.5982 79.5217 35.5982 79.6012 35.5982C79.6808 35.5982 79.7603 35.5982 79.8398 35.5982H80.8736H80.9531V35.6786V35.9196V36H80.8736H79.7603ZM84.134 38.9732V39.0536H84.0545H83.8159H83.7364V38.9732V37.5268H82.2255V38.9732V39.0536H82.1459H81.9074H81.8279V38.9732V35.5982V35.5179H81.9074H82.1459H82.2255V35.5982V36.9643H83.7364V35.5982V35.5179H83.8159H84.0545H84.134V35.5982V38.9732ZM87.6329 37.5268C87.6329 37.7679 87.6329 38.0089 87.5534 38.1696C87.4739 38.3304 87.3944 38.5714 87.3149 38.6518C87.2353 38.7321 87.0763 38.8929 86.9173 38.9732C86.7582 39.0536 86.5992 39.0536 86.3606 39.0536C86.122 39.0536 85.963 39.0536 85.804 38.9732C85.6449 38.8929 85.4859 38.8125 85.4063 38.6518C85.3268 38.4911 85.2473 38.3304 85.1678 38.1696C85.0883 37.9286 85.0883 37.7679 85.0883 37.5268V37.0446C85.0883 36.8036 85.0883 36.5625 85.1678 36.4018C85.2473 36.2411 85.3268 36 85.4063 35.9196C85.4859 35.7589 85.6449 35.6786 85.804 35.5982C85.963 35.5179 86.122 35.5179 86.3606 35.5179C86.5992 35.5179 86.7582 35.5179 86.9173 35.5982C87.0763 35.6786 87.2353 35.7589 87.3149 35.9196C87.3944 36.0804 87.4739 36.2411 87.5534 36.4018C87.6329 36.6429 87.6329 36.8036 87.6329 37.0446V37.5268ZM87.0763 37.0446C87.0763 36.7232 86.9968 36.4018 86.9173 36.2411C86.7582 36 86.5992 35.9196 86.2811 35.9196C86.0425 35.9196 85.8039 36 85.6449 36.2411C85.4859 36.4821 85.4859 36.7232 85.4859 37.0446V37.5268C85.4859 37.8482 85.5654 38.1696 85.6449 38.3304C85.8039 38.4911 85.963 38.6518 86.2811 38.6518C86.5196 38.6518 86.7582 38.5714 86.9173 38.3304C87.0763 38.1696 87.0763 37.8482 87.0763 37.5268V37.0446ZM90.4162 38.8929V38.9732C90.4162 38.9732 90.3367 38.9732 90.3367 39.0536C90.2572 39.0536 90.0981 39.0536 90.0186 39.1339C89.8596 39.1339 89.78 39.1339 89.621 39.1339C89.3824 39.1339 89.2234 39.1339 89.0643 39.0536C88.9053 38.9732 88.7463 38.8929 88.6667 38.7321C88.5872 38.5714 88.5077 38.4107 88.4282 38.25C88.3486 38.0893 88.3486 37.8482 88.3486 37.6071V37.125C88.3486 36.8839 88.3486 36.6429 88.4282 36.4821C88.5077 36.2411 88.5872 36.0804 88.6667 36C88.7463 35.8393 88.9053 35.7589 89.0643 35.6786C89.2234 35.5982 89.3824 35.5982 89.621 35.5982C89.78 35.5982 89.8596 35.5982 90.0186 35.5982C90.1776 35.5982 90.2572 35.5982 90.3367 35.6786C90.4162 35.6786 90.4162 35.6786 90.4162 35.6786V35.7589V36C90.4162 36 90.4162 36.0804 90.3367 36.0804H90.2572C90.0981 36.0804 90.0186 36.0804 89.9391 36.0804C89.8596 36.0804 89.7005 36.0804 89.5415 36.0804C89.3029 36.0804 89.1439 36.1607 88.9848 36.3214C88.8258 36.4821 88.8258 36.8036 88.8258 37.125V37.6071C88.8258 38.0089 88.9053 38.25 88.9848 38.4107C89.1439 38.5714 89.3029 38.6518 89.5415 38.6518C89.7005 38.6518 89.78 38.6518 89.9391 38.6518C90.0186 38.6518 90.1777 38.6518 90.2572 38.6518H90.3367C90.3367 38.6518 90.4162 38.6518 90.4162 38.7321V38.8929ZM93.6766 35.8393V35.9196H93.5971H92.6428V38.8929V38.9732H92.5633H92.2452H92.1657V38.8929V35.9196H91.2114H91.1319V35.8393V35.5982V35.5179H91.2114H93.6766H93.7561V35.5982L93.6766 35.8393ZM94.4718 35.5982C94.4718 35.5179 94.4718 35.4375 94.5514 35.4375H94.8694H94.949V35.5179V38.0893L96.3008 35.5179C96.3008 35.4375 96.3804 35.4375 96.3804 35.4375C96.3804 35.4375 96.4599 35.4375 96.5394 35.4375H96.8575C96.937 35.4375 96.937 35.4375 96.937 35.4375C96.937 35.4375 96.937 35.5179 96.937 35.5982V38.8929V38.9732H96.8575H96.5394H96.4599V38.8929V36.3214L95.108 38.8929C95.108 38.9732 95.0285 38.9732 95.0285 38.9732H94.949H94.6309C94.5514 38.9732 94.5514 38.9732 94.4718 38.8929C94.3923 38.8125 94.3923 38.8125 94.3923 38.7321L94.4718 35.5982ZM100.356 38.9732V39.0536H100.277H99.9588H99.8793V38.9732V37.6071C99.7998 37.6071 99.6408 37.6071 99.4817 37.6875C99.3227 37.7679 99.1636 37.6875 99.0841 37.6875C98.9251 37.6875 98.766 37.6875 98.607 37.6875C98.4479 37.6875 98.3684 37.6071 98.2889 37.5268C98.2094 37.4464 98.1298 37.3661 98.0503 37.2054C97.9708 37.0446 97.9708 36.8839 97.9708 36.6429V35.5982V35.5179H98.0503H98.3684H98.4479V35.5982V36.6429C98.4479 36.7232 98.4479 36.8839 98.4479 36.8839C98.4479 36.9643 98.5274 37.0446 98.5274 37.0446C98.607 37.125 98.6865 37.125 98.766 37.125C98.8455 37.125 99.0046 37.125 99.0841 37.125C99.0841 37.125 99.1636 37.125 99.2431 37.125C99.3227 37.125 99.4022 37.125 99.4817 37.125C99.5612 37.125 99.6407 37.125 99.7203 37.125C99.7998 37.125 99.8793 37.125 99.8793 37.125V35.5982V35.5179H99.9588H100.277H100.356V35.5982V38.9732ZM103.776 37.3661C103.776 37.4464 103.776 37.5268 103.696 37.5268H101.708V37.6071C101.708 38.0089 101.788 38.25 101.947 38.4107C102.106 38.5714 102.265 38.6518 102.583 38.6518C102.742 38.6518 102.901 38.6518 103.14 38.6518C103.299 38.6518 103.458 38.6518 103.617 38.5714H103.696V38.6518V38.8929C103.696 38.9732 103.696 38.9732 103.696 38.9732C103.696 38.9732 103.617 38.9732 103.617 39.0536C103.458 39.0536 103.299 39.1339 103.14 39.1339C102.981 39.1339 102.822 39.1339 102.583 39.1339C102.424 39.1339 102.265 39.1339 102.106 39.0536C101.947 38.9732 101.788 38.8929 101.708 38.8125C101.629 38.6518 101.47 38.5714 101.39 38.3304C101.311 38.0893 101.311 37.8482 101.311 37.5268V36.9643C101.311 36.4821 101.39 36.1607 101.629 35.8393C101.867 35.5179 102.185 35.4375 102.583 35.4375C102.822 35.4375 102.981 35.4375 103.14 35.5179C103.299 35.5982 103.458 35.6786 103.537 35.8393C103.617 36 103.696 36.1607 103.776 36.3214C103.855 36.4821 103.855 36.7232 103.855 36.9643L103.776 37.3661ZM103.219 36.9643C103.219 36.5625 103.14 36.3214 103.06 36.1607C102.901 36 102.742 35.9196 102.504 35.9196C102.265 35.9196 102.026 36 101.947 36.1607C101.788 36.3214 101.708 36.5625 101.708 36.9643V37.0446L103.219 36.9643ZM106.639 38.8929V38.9732C106.639 38.9732 106.559 38.9732 106.559 39.0536C106.48 39.0536 106.321 39.0536 106.241 39.1339C106.082 39.1339 106.003 39.1339 105.843 39.1339C105.605 39.1339 105.446 39.1339 105.287 39.0536C105.128 38.9732 104.969 38.8929 104.889 38.7321C104.81 38.5714 104.73 38.4107 104.651 38.25C104.571 38.0893 104.571 37.8482 104.571 37.6071V37.125C104.571 36.8839 104.571 36.6429 104.651 36.4821C104.73 36.2411 104.81 36.0804 104.889 36C104.969 35.8393 105.128 35.7589 105.287 35.6786C105.446 35.5982 105.605 35.5982 105.843 35.5982C106.003 35.5982 106.082 35.5982 106.241 35.5982C106.4 35.5982 106.48 35.5982 106.559 35.6786C106.639 35.6786 106.639 35.6786 106.639 35.6786V35.7589V36C106.639 36 106.639 36.0804 106.559 36.0804H106.48C106.321 36.0804 106.241 36.0804 106.162 36.0804C106.082 36.0804 105.923 36.0804 105.764 36.0804C105.525 36.0804 105.366 36.1607 105.207 36.3214C105.048 36.4821 105.048 36.8036 105.048 37.125V37.6071C105.048 38.0089 105.128 38.25 105.207 38.4107C105.287 38.5714 105.525 38.6518 105.764 38.6518C105.923 38.6518 106.002 38.6518 106.162 38.6518C106.321 38.6518 106.4 38.6518 106.48 38.6518H106.559C106.559 38.6518 106.639 38.6518 106.639 38.7321V38.8929ZM109.66 38.9732C109.66 39.0536 109.661 39.0536 109.581 39.0536H109.183H109.104C109.104 39.0536 109.024 39.0536 109.024 38.9732L107.832 37.3661V38.9732V39.0536H107.752H107.434H107.354V38.9732V35.5982V35.5179H107.434H107.752H107.832V35.5982V36.9643L109.024 35.5179C109.024 35.5179 109.024 35.5179 109.104 35.4375H109.183H109.581C109.661 35.4375 109.66 35.4375 109.66 35.5179V35.5982L108.388 37.125L109.66 38.9732ZM110.297 35.5982C110.297 35.5179 110.297 35.4375 110.376 35.4375H110.694H110.774V35.5179V38.0893L112.126 35.5179C112.126 35.4375 112.205 35.4375 112.205 35.4375C112.205 35.4375 112.285 35.4375 112.364 35.4375H112.682C112.762 35.4375 112.762 35.4375 112.762 35.4375C112.762 35.4375 112.762 35.5179 112.762 35.5982V38.8929V38.9732H112.682H112.364H112.285V38.8929V36.3214L110.933 38.8929C110.933 38.9732 110.853 38.9732 110.853 38.9732H110.774H110.456C110.376 38.9732 110.376 38.9732 110.376 38.8929C110.376 38.8125 110.297 38.8125 110.297 38.7321" fill="#183D50"/>
<path fill-rule="evenodd" clip-rule="evenodd" d="M116.023 34.0714C116.023 34.2321 115.943 34.3929 115.943 34.4732C115.943 34.5536 115.784 34.7143 115.704 34.7946C115.625 34.875 115.545 34.9554 115.386 34.9554C115.307 34.9554 115.148 35.0357 115.068 35.0357C114.989 35.0357 114.83 35.0357 114.75 34.9554C114.671 34.9554 114.512 34.875 114.432 34.7946C114.353 34.7143 114.273 34.6339 114.194 34.4732C114.114 34.3125 114.114 34.2321 114.114 34.0714V33.9911C114.114 33.9911 114.114 33.9911 114.194 33.9911H114.432C114.512 33.9911 114.512 33.9911 114.512 34.0714C114.512 34.1518 114.512 34.2321 114.591 34.3125C114.671 34.3929 114.671 34.4732 114.75 34.4732C114.83 34.5536 114.83 34.5536 114.909 34.5536C114.989 34.5536 115.068 34.5536 115.148 34.5536C115.227 34.5536 115.307 34.5536 115.386 34.5536C115.466 34.5536 115.545 34.4732 115.545 34.4732C115.625 34.3929 115.625 34.3929 115.704 34.3125C115.704 34.2321 115.784 34.1518 115.784 34.0714C115.784 33.9911 115.784 33.9911 115.863 33.9911H116.102C116.023 33.9911 116.023 33.9911 116.023 34.0714ZM113.796 38.8929V35.5982C113.796 35.5179 113.796 35.4375 113.875 35.4375H114.194H114.273V35.5179V38.0893L115.625 35.5179C115.625 35.4375 115.704 35.4375 115.704 35.4375C115.704 35.4375 115.784 35.4375 115.863 35.4375H116.182C116.261 35.4375 116.261 35.4375 116.261 35.4375C116.261 35.4375 116.261 35.5179 116.261 35.5982V38.8929V38.9732H116.182H115.863H115.784V38.8929V36.3214L114.432 38.8929C114.432 38.9732 114.353 38.9732 114.353 38.9732H114.273H113.955C113.875 38.9732 113.875 38.9732 113.875 38.8929C113.875 38.9732 113.796 38.9732 113.796 38.8929ZM121.032 35.5982V35.5179H121.112H121.43H121.51V35.5982V38.3304C121.51 38.4107 121.51 38.4911 121.51 38.5714H121.748H121.828V38.6518V39.6161V39.6964H121.748H121.43H121.35V39.6161V39.0536H119.681C119.601 39.0536 119.521 39.0536 119.442 39.0536C119.362 39.0536 119.283 39.0536 119.203 38.9732C119.124 38.8929 119.044 38.8125 119.044 38.7322C118.965 38.6518 118.965 38.4911 118.965 38.3304V35.5982V35.5179H119.044H119.362H119.442V35.5982V38.3304C119.442 38.4107 119.442 38.4911 119.521 38.5714C119.601 38.6518 119.601 38.6518 119.681 38.6518H120.794C120.873 38.6518 120.953 38.6518 120.953 38.5714C120.953 38.5714 121.032 38.4911 121.032 38.3304V35.5982ZM125.008 37.3661C125.008 37.4464 125.008 37.5268 124.929 37.5268H122.941V37.6071C122.941 38.0089 123.02 38.25 123.179 38.4107C123.339 38.5714 123.498 38.6518 123.816 38.6518C123.975 38.6518 124.134 38.6518 124.372 38.6518C124.531 38.6518 124.69 38.6518 124.849 38.5714H124.929V38.6518V38.8929C124.929 38.9732 124.929 38.9732 124.929 38.9732C124.929 38.9732 124.849 38.9732 124.849 39.0536C124.69 39.0536 124.531 39.1339 124.372 39.1339C124.213 39.1339 124.054 39.1339 123.816 39.1339C123.657 39.1339 123.498 39.1339 123.339 39.0536C123.179 38.9732 123.02 38.8929 122.941 38.8125C122.782 38.6518 122.702 38.5714 122.623 38.3304C122.543 38.0893 122.543 37.8482 122.543 37.5268V36.9643C122.543 36.4821 122.623 36.1607 122.861 35.8393C123.1 35.5179 123.418 35.4375 123.816 35.4375C124.054 35.4375 124.213 35.4375 124.372 35.5179C124.531 35.5982 124.69 35.6786 124.77 35.8393C124.849 36 124.929 36.1607 125.008 36.3214C125.088 36.4821 125.088 36.7232 125.088 36.9643L125.008 37.3661ZM124.452 36.9643C124.452 36.5625 124.372 36.3214 124.293 36.1607C124.134 36 123.975 35.9196 123.736 35.9196C123.498 35.9196 123.259 36 123.179 36.1607C123.02 36.3214 122.941 36.5625 122.941 36.9643V37.0446L124.452 36.9643ZM128.428 38.9732V39.0536H128.348H128.03H127.951V38.9732V37.5268H126.44V38.9732V39.0536H126.36H126.042H125.963V38.9732V35.5982V35.5179H126.042H126.36H126.44V35.5982V36.9643H127.951V35.5982V35.5179H128.03H128.348H128.428V35.5982V38.9732ZM131.847 35.8393V35.9196H131.768H130.814V38.8929V38.9732H130.734H130.416H130.336V38.8929V35.9196H129.382H129.303V35.8393V35.5982V35.5179H129.382H131.847H131.927V35.5982L131.847 35.8393ZM135.028 37.5268C135.028 38.0089 134.949 38.4107 134.71 38.7322C134.472 39.0536 134.153 39.1339 133.756 39.1339C133.676 39.1339 133.517 39.1339 133.438 39.1339C133.358 39.1339 133.199 39.1339 133.12 39.0536V40.2589V40.3393H133.04H132.722H132.643V40.2589V35.7589C132.643 35.6786 132.643 35.6786 132.643 35.6786C132.643 35.6786 132.722 35.6786 132.722 35.5982C132.881 35.5982 133.04 35.5179 133.199 35.5179C133.358 35.5179 133.597 35.5179 133.756 35.5179C133.994 35.5179 134.153 35.5179 134.313 35.5982C134.472 35.6786 134.631 35.7589 134.71 35.9196C134.79 36.0804 134.869 36.2411 134.949 36.4018C135.028 36.6429 135.028 36.8036 135.028 37.0446V37.5268ZM134.551 37.0446C134.551 36.8839 134.551 36.7232 134.551 36.5625C134.551 36.4018 134.472 36.3214 134.392 36.2411C134.313 36.1607 134.233 36.0804 134.153 36C134.074 35.9196 133.915 35.9196 133.835 35.9196C133.676 35.9196 133.597 35.9196 133.438 35.9196C133.279 35.9196 133.199 35.9196 133.12 36V38.5714C133.199 38.5714 133.358 38.5714 133.438 38.6518C133.597 38.6518 133.676 38.6518 133.756 38.6518C133.915 38.6518 133.994 38.6518 134.074 38.5714C134.153 38.4911 134.233 38.4107 134.313 38.3304C134.392 38.25 134.392 38.0893 134.472 38.0089C134.551 37.9286 134.472 37.6875 134.472 37.5268L134.551 37.0446ZM141.788 37.0446C141.788 37.3661 141.708 37.6071 141.549 37.8482C141.39 38.0893 141.151 38.1696 140.913 38.1696C140.674 38.1696 140.436 38.0893 140.277 37.8482C140.118 37.6071 140.038 37.3661 140.038 37.0446V36.7232C140.038 36.4018 140.118 36.1607 140.277 35.9196C140.436 35.6786 140.674 35.5982 140.913 35.5982C141.231 35.5982 141.39 35.6786 141.549 35.9196C141.708 36.1607 141.788 36.4018 141.788 36.7232V37.0446ZM141.788 38.6518C141.788 38.6518 141.788 38.7321 141.788 38.6518C141.708 38.7321 141.708 38.7322 141.708 38.7322H140.118H140.038V38.6518V38.4911V38.4107H140.118H141.708H141.788V38.4911V38.6518ZM139.561 38.9732C139.561 38.9732 139.561 39.0536 139.481 39.0536L139.402 39.1339H139.163C139.084 39.1339 139.084 39.1339 139.004 39.0536L137.573 36V38.9732V39.0536C137.573 39.0536 137.573 39.0536 137.493 39.0536H137.255H137.175C137.175 39.0536 137.175 39.0536 137.175 38.9732V35.3571C137.175 35.3571 137.175 35.2768 137.255 35.2768H137.334H137.573C137.652 35.2768 137.652 35.2768 137.732 35.2768C137.811 35.2768 137.811 35.2768 137.811 35.3571L139.243 38.3304V35.2768V35.1964C139.243 35.1964 139.243 35.1964 139.322 35.1964H139.561H139.641C139.641 35.1964 139.641 35.1964 139.641 35.2768L139.561 38.9732ZM141.39 36.7232C141.39 36.4821 141.31 36.3214 141.31 36.1607C141.231 36 141.072 36 140.913 36C140.754 36 140.595 36.0804 140.515 36.1607C140.436 36.3214 140.436 36.4821 140.436 36.7232V37.0446C140.436 37.2857 140.515 37.4464 140.515 37.6071C140.595 37.7679 140.754 37.7679 140.913 37.7679C141.072 37.7679 141.231 37.6875 141.31 37.6071C141.39 37.4464 141.39 37.2857 141.39 37.0446V36.7232ZM142.662 39.1339C142.662 39.1339 142.662 39.0536 142.662 39.1339C142.583 39.1339 142.583 39.0536 142.583 39.0536V38.8125V38.7322H142.662H143.378V35.8393L142.662 36.1607H142.583C142.583 36.1607 142.583 36.1607 142.583 36.0804V35.8393L143.378 35.4375C143.458 35.4375 143.458 35.4375 143.458 35.4375H143.617H143.696C143.696 35.4375 143.696 35.4375 143.696 35.5179V38.8125H144.412H144.491C144.491 38.8125 144.491 38.8125 144.491 38.8929V39.1339V39.2143H144.412" fill="#183D50"/>
<path fill-rule="evenodd" clip-rule="evenodd" d="M45.3275 17.2768C45.3275 17.3571 45.3276 17.4375 45.248 17.4375C45.1685 17.4375 45.089 17.5179 45.089 17.5179H43.26C43.1805 17.5179 43.1009 17.5179 43.0214 17.4375C42.9419 17.3571 42.9419 17.3571 42.9419 17.2768V10.125C42.9419 9.48214 43.0214 9 43.1805 8.59821C43.3395 8.19642 43.5781 7.875 43.8962 7.71428C44.2142 7.47321 44.5323 7.39285 44.9299 7.3125C45.3275 7.23214 45.7252 7.23214 46.2023 7.23214C46.5999 7.23214 46.918 7.23214 47.1566 7.23214C47.3951 7.23214 47.7132 7.23214 47.8722 7.3125C48.1108 7.3125 48.2699 7.39285 48.4289 7.39285C48.5879 7.39285 48.747 7.39285 48.8265 7.47321C48.9856 7.47321 49.0651 7.55357 49.0651 7.79464V9.08035C49.0651 9.16071 49.0651 9.24107 48.9856 9.24107C48.906 9.24107 48.8265 9.32142 48.8265 9.32142H46.0432C45.7252 9.32142 45.4866 9.40178 45.4071 9.5625C45.248 9.72321 45.1685 9.96428 45.1685 10.2857L45.3275 17.2768ZM56.3811 14.1429C56.3811 14.7054 56.3016 15.1875 56.1425 15.6696C55.9835 16.0714 55.7449 16.4732 55.5063 16.7946C55.1883 17.1161 54.8702 17.3571 54.4726 17.5179C54.0749 17.6786 53.5183 17.7589 53.0412 17.7589C52.564 17.7589 52.0074 17.6786 51.6098 17.5179C51.2122 17.3571 50.8146 17.1161 50.576 16.7946C50.3374 16.4732 50.0193 16.0714 49.9398 15.6696C49.7808 15.2679 49.7012 14.7054 49.7012 14.1429V13.1786C49.7012 12.6161 49.7808 12.1339 49.9398 11.6518C50.0989 11.25 50.3374 10.8482 50.576 10.5268C50.8941 10.2054 51.2122 9.96428 51.6098 9.80357C52.0074 9.64285 52.564 9.5625 53.0412 9.5625C53.5183 9.5625 54.0749 9.64285 54.4726 9.80357C54.8702 9.96428 55.2678 10.2054 55.5063 10.5268C55.8244 10.8482 55.9835 11.25 56.1425 11.6518C56.3016 12.0536 56.3811 12.6161 56.3811 13.1786V14.1429ZM54.1545 13.1786C54.1545 12.0536 53.7569 11.4911 52.9616 11.4911C52.564 11.4911 52.2459 11.6518 52.0074 11.8929C51.7688 12.2143 51.6893 12.6161 51.6893 13.1786V14.1429C51.6893 14.7054 51.7688 15.1071 52.0074 15.4286C52.2459 15.75 52.4845 15.8304 52.9616 15.8304C53.7569 15.8304 54.1545 15.2679 54.1545 14.1429V13.1786ZM64.8899 14.1429C64.8899 15.2679 64.5718 16.0714 64.0152 16.7143C63.4585 17.3571 62.5838 17.6786 61.391 17.6786C61.2319 17.6786 61.0729 17.6786 60.9138 17.6786C60.6753 17.6786 60.5162 17.6786 60.2777 17.5982V20.0089C60.2777 20.0893 60.2776 20.1696 60.1981 20.1696C60.1186 20.1696 60.0391 20.25 60.0391 20.25H58.3691C58.2896 20.25 58.2101 20.25 58.1306 20.1696C58.051 20.0893 58.051 20.0893 58.051 20.0089V10.3661C58.051 10.2857 58.051 10.2054 58.1306 10.125C58.2101 10.0446 58.2896 10.0446 58.4487 9.96428C58.8463 9.88392 59.3234 9.80357 59.8005 9.72321C60.2776 9.64285 60.8343 9.64285 61.391 9.64285C62.5043 9.64285 63.379 9.96428 63.9357 10.6071C64.4923 11.25 64.8104 12.1339 64.8104 13.2589L64.8899 14.1429ZM62.7428 13.0982C62.7428 12.8571 62.7428 12.6161 62.6633 12.4554C62.6633 12.2143 62.5838 12.0536 62.5043 11.8929C62.4247 11.7321 62.2657 11.6518 62.1067 11.5714C61.9476 11.4911 61.7886 11.4107 61.4705 11.4107C61.2319 11.4107 60.9933 11.4107 60.8343 11.4107C60.6753 11.4107 60.5162 11.4107 60.3572 11.4911V15.75C60.5162 15.75 60.6753 15.75 60.9138 15.8304C61.1524 15.8304 61.3114 15.8304 61.4705 15.8304C61.709 15.8304 61.9476 15.8304 62.1067 15.6696C62.2657 15.5893 62.3452 15.4286 62.5043 15.3482C62.5838 15.1875 62.6633 15.0268 62.6633 14.7857C62.7428 14.5446 62.7428 14.3839 62.7428 14.1429V13.0982ZM73.3192 14.1429C73.3192 14.7054 73.2397 15.1875 73.0807 15.6696C72.9216 16.0714 72.6831 16.4732 72.4445 16.7946C72.2059 17.1161 71.8083 17.3571 71.4107 17.5179C71.0131 17.6786 70.4564 17.7589 69.9793 17.7589C69.5022 17.7589 68.9455 17.6786 68.5479 17.5179C68.1503 17.3571 67.7527 17.1161 67.5141 16.7946C67.1961 16.4732 66.9575 16.0714 66.878 15.6696C66.7189 15.2679 66.6394 14.7054 66.6394 14.1429V13.1786C66.6394 12.6161 66.7189 12.1339 66.878 11.6518C67.037 11.25 67.2756 10.8482 67.5141 10.5268C67.8322 10.2054 68.1503 9.96428 68.5479 9.80357C68.9455 9.64285 69.5022 9.5625 69.9793 9.5625C70.4564 9.5625 71.0131 9.64285 71.4107 9.80357C71.8083 9.96428 72.2059 10.2054 72.4445 10.5268C72.7626 10.8482 72.9216 11.25 73.0807 11.6518C73.2397 12.0536 73.3192 12.6161 73.3192 13.1786V14.1429ZM71.0926 13.1786C71.0926 12.0536 70.695 11.4911 69.8998 11.4911C69.5022 11.4911 69.1841 11.6518 68.9455 11.8929C68.707 12.2143 68.6274 12.6161 68.6274 13.1786V14.1429C68.6274 14.7054 68.707 15.1071 68.9455 15.4286C69.1841 15.75 69.4227 15.8304 69.8998 15.8304C70.695 15.8304 71.0926 15.2679 71.0926 14.1429V13.1786ZM80.8738 17.5982H76.6591V18.9643C76.6591 19.0446 76.6591 19.125 76.5796 19.125C76.5001 19.2054 76.4206 19.2054 76.4206 19.2054H74.8301C74.7506 19.2054 74.6711 19.2054 74.6711 19.125C74.6711 19.0446 74.5916 19.0446 74.5916 18.9643V15.9911C74.5916 15.9107 74.5916 15.8304 74.6711 15.8304C74.7506 15.8304 74.8301 15.75 74.8301 15.75H75.5458L76.8182 10.8482C76.8977 10.6071 76.9772 10.3661 77.1363 10.2054C77.2953 10.0446 77.4544 9.88392 77.6134 9.80357C77.7725 9.72321 78.011 9.64285 78.1701 9.64285C78.3291 9.64285 78.5677 9.5625 78.8062 9.5625C79.0448 9.5625 79.2038 9.5625 79.4424 9.64285C79.681 9.64285 79.84 9.72321 79.9991 9.80357C80.1581 9.88392 80.3172 10.0446 80.4762 10.2054C80.6352 10.3661 80.7148 10.6071 80.7943 10.8482L82.0666 15.75H82.7823C82.8618 15.75 82.9414 15.75 82.9414 15.8304C83.0209 15.9107 83.0209 15.9107 83.0209 15.9911V18.9643C83.0209 19.0446 83.0209 19.125 82.9414 19.125C82.8619 19.2054 82.7823 19.2054 82.7823 19.2054H81.1919C81.1124 19.2054 81.0328 19.2054 81.0328 19.125C81.0328 19.0446 80.9533 19.0446 80.9533 18.9643V17.5982H80.8738ZM77.7725 15.75H79.7605L78.8062 11.5714C78.8062 11.4911 78.7267 11.4911 78.7267 11.4911C78.7267 11.4911 78.6472 11.4911 78.6472 11.5714L77.7725 15.75ZM89.0646 17.1964C89.0646 17.2768 89.0646 17.3571 88.985 17.4375C88.9055 17.4375 88.826 17.5179 88.7465 17.5179C88.5874 17.5982 88.2693 17.5982 88.0308 17.6786C87.7127 17.7589 87.3946 17.7589 86.997 17.7589C86.0427 17.7589 85.2475 17.4375 84.6909 16.875C84.1342 16.2321 83.8161 15.4286 83.8161 14.3036V13.1786C83.8161 12.0536 84.1342 11.1696 84.6909 10.6071C85.2475 10.0446 86.0427 9.72321 86.997 9.72321C87.3946 9.72321 87.7922 9.72321 88.0308 9.80357C88.2693 9.88392 88.5874 9.88392 88.7465 9.96428C88.826 9.96428 88.9055 10.0446 88.985 10.0446C89.0646 10.0446 89.0646 10.125 89.0646 10.2857V11.4911C89.0646 11.5714 89.0646 11.6518 88.985 11.6518C88.9055 11.6518 88.9055 11.7321 88.826 11.7321C88.5874 11.7321 88.3489 11.6518 88.1103 11.6518C87.8717 11.6518 87.5536 11.6518 87.156 11.6518C86.997 11.6518 86.8379 11.6518 86.6789 11.7321C86.5199 11.8125 86.4403 11.8929 86.3608 11.9732C86.2813 12.0536 86.2018 12.2946 86.1222 12.4554C86.0427 12.6161 86.0427 12.9375 86.0427 13.2589V14.3839C86.0427 14.7054 86.0427 14.9464 86.1222 15.1875C86.2018 15.4286 86.2813 15.5893 86.3608 15.6696C86.4403 15.8304 86.5994 15.9107 86.6789 15.9107C86.8379 15.9911 86.9175 15.9911 87.156 15.9911C87.5536 15.9911 87.8717 15.9911 88.1103 15.9911C88.3489 15.9911 88.5874 15.9911 88.826 15.9107C88.9055 15.9107 88.985 15.9107 88.985 15.9911C89.0646 15.9911 89.0646 16.0714 89.0646 16.1518V17.1964ZM97.6529 9.80357C97.6529 9.88392 97.6529 9.88392 97.5734 9.96428L95.0287 13.5L97.5734 17.3571V17.4375C97.5734 17.5179 97.4939 17.5982 97.4143 17.5982H95.3468C95.2673 17.5982 95.1877 17.5982 95.1877 17.5982C95.1082 17.5982 95.1082 17.5179 95.0287 17.4375L93.0406 14.2232V17.3571C93.0406 17.4375 93.0406 17.5179 92.9611 17.5982C92.8816 17.6786 92.8021 17.6786 92.8021 17.6786H91.1321C91.0526 17.6786 90.9731 17.6786 90.8936 17.5982C90.814 17.5179 90.814 17.4375 90.814 17.3571V10.0446C90.814 9.96428 90.814 9.88392 90.8936 9.88392C90.9731 9.88392 91.0526 9.80357 91.1321 9.80357H92.8021C92.8816 9.80357 92.9611 9.80357 92.9611 9.88392C93.0406 9.96428 93.0406 9.96428 93.0406 10.0446V13.1786L95.1082 10.0446C95.1877 9.96428 95.1877 9.88392 95.2673 9.88392C95.3468 9.88392 95.4263 9.80357 95.4263 9.80357H97.4143C97.5734 9.64285 97.6529 9.72321 97.6529 9.80357ZM105.287 14.1429C105.287 14.7054 105.207 15.1875 105.048 15.6696C104.889 16.0714 104.651 16.4732 104.412 16.7946C104.094 17.1161 103.776 17.3571 103.299 17.5179C102.901 17.6786 102.424 17.7589 101.788 17.7589C101.231 17.7589 100.754 17.6786 100.277 17.5179C99.8795 17.3571 99.4819 17.1161 99.1638 16.7946C98.8457 16.4732 98.6867 16.0714 98.5276 15.6696C98.3686 15.2679 98.2891 14.7054 98.2891 14.1429V13.1786C98.2891 12.6161 98.3686 12.1339 98.5276 11.6518C98.6867 11.25 98.9253 10.8482 99.1638 10.5268C99.4819 10.2054 99.8 9.96428 100.277 9.80357C100.754 9.64285 101.152 9.5625 101.788 9.5625C102.345 9.5625 102.822 9.64285 103.299 9.80357C103.697 9.96428 104.094 10.2054 104.412 10.5268C104.73 10.8482 104.889 11.25 105.048 11.6518C105.207 12.0536 105.287 12.6161 105.287 13.1786V14.1429ZM103.06 13.1786C103.06 12.0536 102.663 11.4911 101.868 11.4911C101.47 11.4911 101.152 11.6518 100.993 11.8929C100.754 12.2143 100.675 12.6161 100.675 13.1786V14.1429C100.675 14.7054 100.754 15.1071 100.993 15.4286C101.231 15.75 101.47 15.8304 101.868 15.8304C102.663 15.8304 103.06 15.2679 103.06 14.1429V13.1786ZM112.762 6.83035C112.842 6.83035 112.921 6.91071 112.842 6.99107C112.762 7.23214 112.683 7.55357 112.523 7.79464C112.364 8.03571 112.205 8.27678 112.046 8.4375C111.808 8.59821 111.569 8.75892 111.331 8.83928C111.092 8.91964 110.694 9 110.376 9C109.979 9 109.661 8.91964 109.422 8.83928C109.184 8.75892 108.865 8.59821 108.706 8.4375C108.547 8.27678 108.309 8.03571 108.229 7.79464C108.07 7.55357 107.991 7.3125 107.911 6.99107C107.911 6.91071 107.911 6.83035 107.991 6.83035H109.184C109.263 6.83035 109.343 6.91071 109.343 6.99107C109.422 7.3125 109.581 7.47321 109.74 7.63392C109.899 7.71428 110.138 7.79464 110.376 7.79464C110.615 7.79464 110.854 7.71428 111.013 7.63392C111.172 7.55357 111.331 7.3125 111.41 6.99107C111.41 6.91071 111.41 6.91071 111.49 6.91071C111.569 6.91071 111.569 6.83035 111.649 6.83035C111.569 6.83035 112.762 6.83035 112.762 6.83035ZM107.355 17.5982C107.275 17.5982 107.196 17.5982 107.116 17.5179C107.036 17.5179 107.036 17.4375 107.036 17.2768V9.96428C107.036 9.88392 107.036 9.80357 107.116 9.72321C107.196 9.64285 107.196 9.64285 107.275 9.64285H108.786C108.865 9.64285 108.945 9.64285 109.025 9.72321C109.104 9.80357 109.104 9.80357 109.104 9.96428V13.6607C109.104 13.7411 109.104 13.7411 109.184 13.7411C109.184 13.7411 109.263 13.7411 109.263 13.6607L111.569 9.96428C111.649 9.88392 111.728 9.80357 111.808 9.72321C111.887 9.64285 111.967 9.64285 112.046 9.64285H113.557C113.637 9.64285 113.716 9.64285 113.716 9.72321C113.796 9.80357 113.796 9.80357 113.796 9.88392V17.1964C113.796 17.2768 113.796 17.3571 113.716 17.4375C113.637 17.5179 113.557 17.5179 113.478 17.5179H111.967C111.887 17.5179 111.808 17.5179 111.808 17.4375C111.808 17.3571 111.728 17.2768 111.728 17.1964V13.6607C111.728 13.5804 111.728 13.5804 111.649 13.5804C111.649 13.5804 111.569 13.5804 111.569 13.6607L109.343 17.1964C109.263 17.3571 109.184 17.4375 109.104 17.5179C109.025 17.5179 108.945 17.5982 108.786 17.5982" fill="#00AB88"/>
<path d="M141.867 7.07142C141.708 6.1875 141.39 5.30357 140.913 4.5C140.356 3.45535 139.641 2.65178 138.686 1.92857C137.812 1.28571 136.857 0.72321 135.744 0.401781C134.631 0.0803528 133.597 -4.35114e-06 132.484 0.16071C131.37 0.321424 130.257 0.642853 129.223 1.20535C128.189 1.76785 127.315 2.49107 126.678 3.45535C125.963 4.33928 125.486 5.30357 125.168 6.42857C124.849 7.55357 124.77 8.59821 124.849 9.72321C124.929 10.8482 125.327 11.9732 125.883 13.0179C126.44 14.0625 127.156 14.9464 128.11 15.5893C128.985 16.3125 129.939 16.7946 131.052 17.1161C131.847 17.3571 132.563 17.4375 133.358 17.4375C133.438 17.4375 133.438 17.4375 133.517 17.4375V16.3125C132.802 16.3125 132.006 16.2321 131.291 15.9911C130.337 15.75 129.541 15.2679 128.746 14.7054C127.951 14.0625 127.315 13.3393 126.838 12.4554C126.36 11.5714 126.042 10.6071 125.963 9.64285C125.883 8.67857 125.963 7.71428 126.201 6.75C126.44 5.78571 126.917 4.98214 127.474 4.17857C128.11 3.375 128.826 2.73214 129.7 2.25C130.575 1.76785 131.529 1.44642 132.484 1.36607C133.438 1.28571 134.392 1.36607 135.346 1.60714C136.301 1.84821 137.096 2.33035 137.891 2.89285C138.686 3.53571 139.322 4.25892 139.8 5.14285C140.118 5.78571 140.436 6.50892 140.595 7.23214H139.004L141.151 11.0089L143.299 7.23214L141.867 7.07142Z" fill="#00AB88"/>
<path d="M133.518 10.3661C133.438 10.3661 133.358 10.3661 133.279 10.2857L129.064 7.95535C128.826 7.79463 128.746 7.47321 128.826 7.23213C128.905 6.99106 129.303 6.91071 129.541 6.99106L133.438 9.16071L137.891 4.98213C138.13 4.74106 138.448 4.82142 138.686 4.98213C138.925 5.22321 138.845 5.54463 138.686 5.78571L133.915 10.2857C133.836 10.2857 133.677 10.3661 133.518 10.3661Z" fill="#183D50"/>
<path d="M136.619 12.7768C136.619 12.375 136.46 12.2143 136.142 12.2143C135.983 12.2143 135.824 12.2946 135.744 12.375C135.665 12.5357 135.585 12.6964 135.585 13.0178H134.472C134.472 12.4553 134.71 11.9732 135.028 11.6518C135.346 11.3303 135.744 11.1696 136.221 11.1696C136.698 11.1696 137.096 11.3303 137.414 11.5714C137.732 11.8125 137.812 12.2143 137.812 12.6161C137.812 13.0982 137.653 13.5803 137.255 13.9821C136.857 14.3839 136.46 14.7857 135.983 15.1071H137.891V16.0714H134.472V15.2678C135.903 14.2232 136.619 13.4196 136.619 12.7768Z" fill="#00AB88"/>
<path d="M137.971 15.2678V14.3036L140.118 11.25H141.39V14.3036H141.947V15.2678H141.39V16.1518H140.197V15.2678C140.277 15.2678 137.971 15.2678 137.971 15.2678ZM140.356 12.6161L139.164 14.3036H140.356V12.6161Z" fill="#00AB88"/>
</svg>
