<svg width="170" height="52" viewBox="0 0 170 52" fill="none" xmlns="http://www.w3.org/2000/svg">
<g clip-path="url(#clip0)">
<path fill-rule="evenodd" clip-rule="evenodd" d="M3.76764 33.5203C2.48115 23.8632 9.18926 14.856 18.8379 13.6489C28.3028 12.4417 37.2163 19.2203 38.4109 28.8774C39.6055 38.4417 32.8974 47.4489 23.3406 48.656C13.8757 49.8632 4.96223 43.0846 3.76764 33.5203ZM41.1676 32.8703C41.4433 29.9917 41.6271 13.3703 41.1676 11.1417C40.5244 7.89174 35.3784 10.3989 33.4487 11.0489C28.0271 12.906 30.6001 12.4417 25.4541 11.2346C21.9622 10.3989 19.1136 10.5846 15.7136 11.4203C11.4866 12.5346 14.519 12.9989 7.81088 10.7703C-0.643175 7.98459 0.735203 8.82031 0.735203 23.0274C0.735203 29.9917 6.78301e-05 35.7489 3.76764 41.9703C6.61628 46.6132 11.2109 49.956 16.4487 51.1632C28.6703 53.7632 40.0649 45.3132 41.1676 32.8703Z" fill="#697E96"/>
<path fill-rule="evenodd" clip-rule="evenodd" d="M17.4594 27.299C15.6215 27.299 13.4161 27.2062 11.5783 27.299C9.18911 27.4848 9.3729 29.0633 9.3729 31.0133C9.3729 35.9348 9.83236 35.1919 17.5513 35.099C17.5513 37.049 17.4594 39.1848 17.5513 41.0419C17.6432 43.4562 19.481 43.2705 21.4107 43.2705C26.1891 43.2705 25.2702 42.5276 25.2702 35.0062C32.8972 35.0062 33.4486 35.8419 33.4486 31.1062C33.4486 29.3419 33.7243 27.3919 31.427 27.2062C29.681 27.0205 27.108 27.2062 25.2702 27.2062C25.2702 19.5919 26.0972 18.9419 21.4107 18.9419C16.6324 19.1276 17.4594 19.8705 17.4594 27.299Z" fill="#697E96"/>
<path fill-rule="evenodd" clip-rule="evenodd" d="M3.76764 33.5203C2.48115 23.8632 9.18926 14.856 18.8379 13.6489C28.3028 12.4417 37.2163 19.2203 38.4109 28.8774C39.6055 38.4417 32.8974 47.4489 23.3406 48.656C13.8757 49.8632 4.96223 43.0846 3.76764 33.5203ZM41.1676 32.8703C41.4433 29.9917 41.6271 13.3703 41.1676 11.1417C40.5244 7.89174 35.3784 10.3989 33.4487 11.0489C28.0271 12.906 30.6001 12.4417 25.4541 11.2346C21.9622 10.3989 19.1136 10.5846 15.7136 11.4203C11.4866 12.5346 14.519 12.9989 7.81088 10.7703C-0.643175 7.98459 0.735203 8.82031 0.735203 23.0274C0.735203 29.9917 6.78301e-05 35.7489 3.76764 41.9703C6.61628 46.6132 11.2109 49.956 16.4487 51.1632C28.6703 53.7632 40.0649 45.3132 41.1676 32.8703Z" fill="#697E96"/>
<path fill-rule="evenodd" clip-rule="evenodd" d="M17.4594 27.299C15.6215 27.299 13.4161 27.2062 11.5783 27.299C9.18911 27.4848 9.3729 29.0633 9.3729 31.0133C9.3729 35.9348 9.83236 35.1919 17.5513 35.099C17.5513 37.049 17.4594 39.1848 17.5513 41.0419C17.6432 43.4562 19.481 43.2705 21.4107 43.2705C26.1891 43.2705 25.2702 42.5276 25.2702 35.0062C32.8972 35.0062 33.4486 35.8419 33.4486 31.1062C33.4486 29.3419 33.7243 27.3919 31.427 27.2062C29.681 27.0205 27.108 27.2062 25.2702 27.2062C25.2702 19.5919 26.0972 18.9419 21.4107 18.9419C16.6324 19.1276 17.4594 19.8705 17.4594 27.299Z" fill="#00AB88"/>
<path fill-rule="evenodd" clip-rule="evenodd" d="M57.0649 32.8705C57.0649 33.4277 56.973 33.892 56.6973 34.2634C56.5136 34.6348 56.146 34.9134 55.7784 35.0991C55.4109 35.2848 54.9514 35.4705 54.4919 35.5634C54.0325 35.6562 53.4811 35.7491 52.8379 35.7491C52.3784 35.7491 51.919 35.7491 51.4595 35.7491C51.0001 35.7491 50.5406 35.6562 49.9892 35.5634C49.8055 35.5634 49.7136 35.4705 49.6217 35.3777C49.6217 35.2848 49.5298 35.0991 49.5298 34.9134V27.0205C49.5298 26.8348 49.6217 26.742 49.7136 26.6491C49.8055 26.5562 49.8974 26.5562 50.0811 26.5562C50.4487 26.4634 50.9082 26.4634 51.3676 26.4634C51.8271 26.4634 52.3784 26.3705 52.8379 26.3705C53.3892 26.3705 53.9406 26.3705 54.4919 26.4634C54.9514 26.5562 55.4109 26.6491 55.7784 26.9277C56.146 27.1134 56.4217 27.392 56.6055 27.7634C56.7892 28.1348 56.8811 28.5991 56.8811 29.0634V29.2491C56.8811 30.0848 56.5136 30.642 55.8703 31.0134C56.2379 31.1062 56.5136 31.3848 56.6973 31.6634C56.8811 31.9419 56.973 32.4062 56.973 32.8705H57.0649ZM54.5838 32.6848C54.5838 32.4062 54.4919 32.2205 54.3082 32.0348C54.1244 31.8491 53.8487 31.7562 53.3892 31.7562H52.1946V33.7062C52.2865 33.7062 52.3784 33.7062 52.4703 33.7062C52.5622 33.7062 52.746 33.7062 53.1136 33.7062C53.6649 33.7062 54.1244 33.6134 54.3082 33.4277C54.4919 33.242 54.5838 33.0562 54.5838 32.7777V32.6848ZM54.5838 29.0634C54.5838 28.7848 54.4919 28.5062 54.2163 28.4134C53.9406 28.3205 53.573 28.2277 53.0217 28.2277H52.6541C52.4703 28.2277 52.3784 28.2277 52.2865 28.2277V30.0848H53.4811C53.9406 30.0848 54.2163 29.9919 54.4001 29.8062C54.5838 29.6205 54.5838 29.4348 54.5838 29.1562V29.0634ZM66.8055 31.4777C66.8055 31.7562 66.7136 31.8491 66.4379 31.8491H61.3838C61.3838 32.0348 61.3838 32.3134 61.4757 32.4991C61.5676 32.6848 61.6595 32.8705 61.7514 33.0562C61.8433 33.2419 62.0271 33.3348 62.2109 33.4277C62.3946 33.5205 62.6703 33.6134 62.946 33.6134C63.2217 33.6134 63.4974 33.6134 63.773 33.6134C64.0487 33.6134 64.3244 33.6134 64.6001 33.6134C64.8757 33.6134 65.1514 33.6134 65.3352 33.6134C65.6109 33.6134 65.7947 33.6134 65.9784 33.5205H66.1622C66.346 33.5205 66.4379 33.6134 66.4379 33.7991V35.0062C66.4379 35.0991 66.4379 35.1919 66.346 35.2848C66.2541 35.3777 66.2541 35.3777 66.0703 35.4705C65.519 35.5634 65.0595 35.7491 64.6001 35.7491C64.1406 35.842 63.4974 35.8419 62.8541 35.8419C62.3947 35.8419 61.9352 35.7491 61.3838 35.6562C60.9244 35.4705 60.4649 35.2848 60.0974 35.0062C59.7298 34.7277 59.4541 34.2634 59.1784 33.7062C58.9028 33.1491 58.8109 32.4991 58.8109 31.7562V30.642C58.8109 29.992 58.9028 29.4348 59.0865 28.8777C59.2703 28.3205 59.546 27.9491 59.8217 27.5777C60.1892 27.2062 60.5568 26.9277 61.1082 26.7419C61.6595 26.5562 62.2109 26.4634 62.7622 26.4634C63.4055 26.4634 63.9568 26.5562 64.4163 26.8348C64.8757 27.0205 65.3352 27.2991 65.6109 27.6705C65.9784 28.0419 66.1622 28.5062 66.346 28.9705C66.5298 29.4348 66.6217 30.0848 66.6217 30.642C66.8055 30.5491 66.8055 31.4777 66.8055 31.4777ZM64.3244 30.1777C64.3244 29.6205 64.2325 29.1562 63.9568 28.8777C63.6811 28.5991 63.3136 28.4134 62.946 28.4134C62.4865 28.4134 62.119 28.5991 61.8433 28.8777C61.5676 29.1562 61.4757 29.6205 61.4757 30.1777V30.2705L64.3244 30.1777C64.3244 30.2705 64.3244 30.1777 64.3244 30.1777ZM72.6865 28.5062V35.2848C72.6865 35.3777 72.6865 35.4705 72.5947 35.5634C72.5028 35.6562 72.4109 35.6562 72.319 35.6562H70.3892C70.2974 35.6562 70.2055 35.6562 70.2055 35.5634C70.2055 35.4705 70.1136 35.3777 70.1136 35.2848V28.5062H68.0919C68.0001 28.5062 67.9082 28.5062 67.8163 28.4134C67.7244 28.3205 67.7244 28.2277 67.7244 28.2277V26.8348C67.7244 26.7419 67.7244 26.6491 67.8163 26.5562C67.9082 26.4634 68.0001 26.4634 68.0919 26.4634H74.6163C74.7082 26.4634 74.8001 26.4634 74.8919 26.5562C74.9838 26.6491 74.9838 26.7419 74.9838 26.8348V28.2277C74.9838 28.3205 74.9838 28.4134 74.8919 28.4134C74.8001 28.5062 74.7082 28.5062 74.6163 28.5062H72.6865ZM83.7136 31.4777C83.7136 31.7562 83.6217 31.8491 83.346 31.8491H78.2919C78.2919 32.0348 78.292 32.3134 78.3838 32.4991C78.4757 32.6848 78.5676 32.8705 78.6595 33.0562C78.7514 33.2419 78.9352 33.3348 79.119 33.4277C79.3028 33.5205 79.5784 33.6134 79.8541 33.6134C80.1298 33.6134 80.4055 33.6134 80.6811 33.6134C80.9568 33.6134 81.2325 33.6134 81.5082 33.6134C81.7838 33.6134 82.0595 33.6134 82.2433 33.6134C82.519 33.6134 82.7028 33.6134 82.8865 33.5205H82.9784C83.1622 33.5205 83.2541 33.6134 83.2541 33.7991V35.0062C83.2541 35.0991 83.2541 35.1919 83.1622 35.2848C83.1622 35.3777 83.0703 35.3777 82.8865 35.4705C82.3352 35.5634 81.8757 35.7491 81.4163 35.7491C80.9568 35.842 80.3136 35.8419 79.6703 35.8419C79.2109 35.8419 78.7514 35.7491 78.2001 35.6562C77.7406 35.4705 77.2811 35.2848 76.9136 35.0062C76.546 34.7277 76.2703 34.2634 75.9946 33.7062C75.719 33.1491 75.6271 32.4991 75.6271 31.7562V30.642C75.6271 29.992 75.719 29.4348 75.9028 28.8777C76.0865 28.3205 76.3622 27.9491 76.6379 27.5777C77.0055 27.2062 77.373 26.9277 77.9244 26.7419C78.4757 26.5562 79.0271 26.4634 79.5784 26.4634C80.2217 26.4634 80.773 26.5562 81.2325 26.8348C81.6919 27.1134 82.1514 27.2991 82.4271 27.6705C82.7946 28.0419 82.9784 28.5062 83.1622 28.9705C83.346 29.4348 83.4379 30.0848 83.4379 30.642L83.7136 31.4777ZM81.2325 30.1777C81.2325 29.6205 81.1406 29.1562 80.8649 28.8777C80.5892 28.5991 80.2217 28.4134 79.8541 28.4134C79.3947 28.4134 79.0271 28.5991 78.7514 28.8777C78.4757 29.1562 78.3838 29.6205 78.3838 30.1777V30.2705L81.2325 30.1777ZM93.6379 31.6634C93.6379 32.8705 93.3622 33.8919 92.6271 34.6348C91.892 35.3777 90.973 35.7491 89.5947 35.7491C89.4109 35.7491 89.2271 35.7491 88.9514 35.7491C88.6757 35.7491 88.4919 35.7491 88.2163 35.6562V38.442C88.2163 38.5348 88.2163 38.6277 88.1244 38.6277C88.0325 38.7205 87.9406 38.7205 87.9406 38.7205H86.0109C85.919 38.7205 85.8271 38.7205 85.7352 38.6277C85.6433 38.5348 85.6433 38.442 85.6433 38.442V27.2062C85.6433 27.1134 85.6433 27.0205 85.7352 26.9277C85.8271 26.8348 85.919 26.8348 86.1028 26.7419C86.5622 26.6491 87.1136 26.5562 87.6649 26.4634C88.2163 26.3705 88.8595 26.3705 89.5028 26.3705C90.7892 26.3705 91.8001 26.7419 92.4433 27.4848C93.0865 28.2277 93.4541 29.1562 93.4541 30.5491L93.6379 31.6634ZM91.0649 30.4562C91.0649 30.1777 91.0649 29.8991 90.973 29.7134C90.8811 29.5277 90.8811 29.2491 90.7892 29.0634C90.6974 28.8777 90.5136 28.7848 90.3298 28.692C90.146 28.5991 89.9622 28.5062 89.5947 28.5062C89.319 28.5062 89.0433 28.5062 88.8595 28.5062C88.6757 28.5062 88.4919 28.5062 88.3082 28.5991V33.5205C88.4919 33.5205 88.6757 33.5205 88.9514 33.6134C89.2271 33.6134 89.4109 33.6134 89.5947 33.6134C89.8703 33.6134 90.146 33.5205 90.3298 33.4277C90.5136 33.3348 90.6055 33.1491 90.7892 33.0562C90.8811 32.8705 90.973 32.6848 90.973 32.4062C90.973 32.1277 91.0649 31.9419 91.0649 31.6634V30.4562ZM95.9352 35.5634C95.8433 35.5634 95.7514 35.5634 95.6595 35.4705C95.5676 35.4705 95.5676 35.2848 95.5676 35.192V26.7419C95.5676 26.6491 95.5676 26.5562 95.6595 26.4634C95.7514 26.3705 95.8433 26.3705 95.8433 26.3705H97.5892C97.6811 26.3705 97.773 26.3705 97.8649 26.4634C97.9568 26.5562 97.9568 26.5562 97.9568 26.7419V31.1062C97.9568 31.1991 97.9568 31.1991 98.0487 31.1991C98.0487 31.1991 98.1406 31.1991 98.1406 31.1062L100.805 26.8348C100.897 26.7419 100.989 26.6491 101.081 26.5562C101.173 26.4634 101.265 26.4634 101.357 26.4634H103.103C103.195 26.4634 103.287 26.4634 103.287 26.5562C103.287 26.6491 103.378 26.6491 103.378 26.7419V35.2848C103.378 35.3777 103.378 35.4705 103.287 35.5634C103.195 35.6562 103.103 35.6562 103.011 35.6562H101.265C101.173 35.6562 101.081 35.6562 101.081 35.5634C101.081 35.4705 101.081 35.3777 101.081 35.2848V31.1991C101.081 31.1062 101.081 31.1062 100.989 31.1062C100.989 31.1062 100.897 31.1062 100.897 31.1991L98.3244 35.2848C98.2325 35.4705 98.1406 35.5634 98.0487 35.5634C97.9568 35.5634 97.8649 35.6562 97.6811 35.6562L95.9352 35.5634ZM113.578 35.2848C113.578 35.3777 113.578 35.4705 113.487 35.5634C113.395 35.6562 113.395 35.6562 113.303 35.6562H111.373C111.281 35.6562 111.189 35.6562 111.097 35.5634C111.005 35.4705 111.005 35.3777 111.005 35.2848V31.942H108.249V35.2848C108.249 35.3777 108.249 35.4705 108.157 35.5634C108.065 35.6562 107.973 35.6562 107.881 35.6562H105.951C105.86 35.6562 105.768 35.6562 105.676 35.5634C105.584 35.4705 105.584 35.3777 105.584 35.2848V26.8348C105.584 26.7419 105.584 26.6491 105.676 26.5562C105.768 26.5562 105.86 26.4634 105.951 26.4634H107.881C107.973 26.4634 108.065 26.4634 108.157 26.5562C108.249 26.5562 108.249 26.6491 108.249 26.8348V29.8062H111.005V26.8348C111.005 26.7419 111.005 26.6491 111.097 26.5562C111.189 26.5562 111.281 26.4634 111.373 26.4634H113.303C113.395 26.4634 113.487 26.4634 113.487 26.5562C113.578 26.5562 113.578 26.6491 113.578 26.8348V35.2848ZM122.86 35.2848C122.86 35.3777 122.86 35.4705 122.768 35.4705C122.676 35.5634 122.676 35.5634 122.584 35.5634H120.838C120.746 35.5634 120.654 35.5634 120.654 35.4705C120.654 35.3777 120.562 35.2848 120.562 35.2848V35.0062C120.287 35.192 119.919 35.3777 119.551 35.5634C119.184 35.7491 118.816 35.7491 118.357 35.7491C117.989 35.7491 117.714 35.7491 117.346 35.6562C116.978 35.5634 116.703 35.3777 116.519 35.192C116.243 35.0062 116.06 34.7277 115.876 34.3562C115.692 33.9848 115.6 33.6134 115.6 33.0562V32.9634C115.6 32.0348 115.876 31.3848 116.519 30.9205C117.162 30.4562 118.081 30.2705 119.46 30.2705H120.287V29.7134C120.287 29.2491 120.195 28.9705 120.011 28.7848C119.827 28.5991 119.46 28.5991 119.184 28.5991C118.908 28.5991 118.632 28.5991 118.449 28.5991C118.173 28.5991 117.897 28.5991 117.714 28.5991C117.53 28.5991 117.254 28.5991 117.07 28.5991C116.887 28.5991 116.703 28.5991 116.611 28.5991H116.519C116.427 28.5991 116.335 28.5991 116.335 28.5062C116.243 28.5062 116.243 28.4134 116.243 28.3205V27.0205C116.243 26.8348 116.335 26.742 116.519 26.6491C116.795 26.5562 117.254 26.4634 117.714 26.4634C118.173 26.3705 118.724 26.3705 119.276 26.3705C119.827 26.3705 120.378 26.4634 120.838 26.5562C121.297 26.6491 121.665 26.8348 122.032 27.1134C122.308 27.392 122.584 27.6705 122.768 28.1348C122.951 28.5062 123.043 29.0634 123.043 29.6205L122.86 35.2848ZM120.378 31.6634H119.46C119.184 31.6634 118.908 31.6634 118.816 31.7562C118.632 31.7562 118.449 31.8491 118.357 31.942C118.265 32.0348 118.173 32.1277 118.173 32.3134C118.173 32.4991 118.081 32.5919 118.081 32.7777V32.9634C118.081 33.3348 118.173 33.5205 118.357 33.6134C118.541 33.7062 118.724 33.7991 119.092 33.7991C119.368 33.7991 119.551 33.7991 119.827 33.7062C120.011 33.6134 120.287 33.5205 120.47 33.4277L120.378 31.6634ZM132.968 31.6634C132.968 32.8705 132.6 33.8919 131.957 34.6348C131.314 35.3777 130.303 35.7491 128.924 35.7491C128.741 35.7491 128.557 35.7491 128.373 35.7491C128.097 35.7491 127.914 35.7491 127.638 35.6562V38.442C127.638 38.5348 127.638 38.6277 127.546 38.6277C127.454 38.7205 127.454 38.7205 127.362 38.7205H125.432C125.341 38.7205 125.249 38.7205 125.157 38.6277C125.065 38.5348 125.065 38.442 125.065 38.442V27.2062C125.065 27.1134 125.065 27.0205 125.157 26.9277C125.249 26.8348 125.341 26.8348 125.524 26.7419C125.984 26.6491 126.535 26.5562 127.087 26.4634C127.638 26.3705 128.281 26.3705 128.924 26.3705C130.211 26.3705 131.222 26.7419 131.865 27.4848C132.508 28.2277 132.876 29.1562 132.876 30.5491L132.968 31.6634ZM130.395 30.4562C130.395 30.1777 130.395 29.8991 130.303 29.7134C130.303 29.4348 130.211 29.2491 130.119 29.0634C130.027 28.8777 129.843 28.7848 129.66 28.692C129.476 28.5991 129.292 28.5062 128.924 28.5062C128.649 28.5062 128.373 28.5062 128.189 28.5062C128.005 28.5062 127.822 28.5062 127.638 28.5991V33.5205C127.822 33.5205 128.005 33.5205 128.281 33.6134C128.557 33.6134 128.741 33.6134 128.924 33.6134C129.2 33.6134 129.476 33.5205 129.66 33.4277C129.843 33.3348 130.027 33.1491 130.119 33.0562C130.211 32.8705 130.303 32.6848 130.303 32.4062C130.395 32.1277 130.395 31.9419 130.395 31.6634V30.4562ZM142.8 35.2848C142.8 35.3777 142.8 35.4705 142.708 35.5634C142.616 35.6562 142.616 35.6562 142.524 35.6562H140.595C140.503 35.6562 140.411 35.6562 140.319 35.5634C140.227 35.4705 140.227 35.3777 140.227 35.2848V31.942H137.47V35.2848C137.47 35.3777 137.47 35.4705 137.378 35.5634C137.287 35.6562 137.287 35.6562 137.195 35.6562H135.265C135.173 35.6562 135.081 35.6562 134.989 35.5634C134.897 35.4705 134.897 35.3777 134.897 35.2848V26.8348C134.897 26.7419 134.897 26.6491 134.989 26.5562C135.081 26.5562 135.173 26.4634 135.265 26.4634H137.195C137.287 26.4634 137.378 26.4634 137.378 26.5562C137.378 26.6491 137.47 26.6491 137.47 26.8348V29.8062H140.227V26.8348C140.227 26.7419 140.227 26.6491 140.319 26.5562C140.411 26.5562 140.503 26.4634 140.595 26.4634H142.524C142.616 26.4634 142.708 26.4634 142.708 26.5562C142.708 26.6491 142.8 26.6491 142.8 26.8348V35.2848ZM156.216 35.2848C156.216 35.3777 156.216 35.4705 156.124 35.4705C156.032 35.5634 156.032 35.5634 155.941 35.5634H154.011C153.919 35.5634 153.827 35.5634 153.827 35.4705C153.735 35.3777 153.735 35.2848 153.735 35.2848V26.7419C153.735 26.6491 153.735 26.5562 153.827 26.5562C153.919 26.4634 153.919 26.4634 154.011 26.4634H155.941C156.032 26.4634 156.124 26.4634 156.124 26.5562C156.216 26.6491 156.216 26.6491 156.216 26.7419V35.2848ZM152.541 32.6848C152.541 33.3348 152.449 33.892 152.173 34.2634C151.989 34.6348 151.622 35.0062 151.254 35.192C150.887 35.3777 150.427 35.5634 149.968 35.6562C149.416 35.7491 148.957 35.7491 148.314 35.7491C147.854 35.7491 147.395 35.7491 146.935 35.7491C146.476 35.7491 145.924 35.6562 145.465 35.5634C145.281 35.5634 145.189 35.4705 145.097 35.3777C145.005 35.2848 145.005 35.0991 145.005 34.9134V26.8348C145.005 26.7419 145.005 26.6491 145.097 26.5562C145.189 26.5562 145.281 26.4634 145.373 26.4634H147.303C147.395 26.4634 147.487 26.4634 147.578 26.5562C147.67 26.6491 147.67 26.6491 147.67 26.8348V29.5277C147.762 29.5277 147.854 29.5277 148.038 29.5277H148.405C148.957 29.5277 149.508 29.5277 150.06 29.6205C150.611 29.7134 150.978 29.8991 151.346 30.0848C151.714 30.3634 151.989 30.642 152.265 31.0134C152.449 31.3848 152.632 31.9419 152.632 32.5919L152.541 32.6848ZM148.405 31.3848C148.314 31.3848 148.222 31.3848 148.038 31.3848C147.854 31.3848 147.762 31.3848 147.762 31.3848V33.7062C147.854 33.7062 147.854 33.7062 147.946 33.7062C148.038 33.7062 148.222 33.7062 148.405 33.7062C149.049 33.7062 149.508 33.6134 149.692 33.4277C149.876 33.242 150.06 32.9634 150.06 32.5919V32.4991C150.06 32.1277 149.968 31.8491 149.692 31.6634C149.508 31.4777 149.049 31.3848 148.405 31.3848ZM165.13 23.2134C165.222 23.2134 165.314 23.3062 165.314 23.3991C165.222 23.6777 165.13 24.0491 164.946 24.3277C164.762 24.6062 164.578 24.8848 164.395 25.0705C164.119 25.2562 163.843 25.442 163.568 25.5348C163.2 25.6277 162.832 25.7205 162.465 25.7205C162.005 25.7205 161.638 25.6277 161.362 25.5348C160.995 25.442 160.719 25.2562 160.535 25.0705C160.26 24.8848 160.076 24.6062 159.984 24.3277C159.8 24.0491 159.708 23.7705 159.616 23.3991C159.616 23.3062 159.616 23.2134 159.8 23.2134H161.178C161.27 23.2134 161.362 23.3062 161.362 23.3991C161.454 23.7705 161.638 23.9562 161.822 24.142C162.005 24.2348 162.281 24.3277 162.557 24.3277C162.832 24.3277 163.108 24.2348 163.292 24.142C163.476 24.0491 163.66 23.7705 163.751 23.3991C163.751 23.3062 163.751 23.3062 163.843 23.3062C163.843 23.3062 163.935 23.3062 164.027 23.3062C163.751 23.2134 165.13 23.2134 165.13 23.2134ZM158.881 35.5634C158.789 35.5634 158.697 35.5634 158.605 35.4705C158.514 35.4705 158.514 35.2848 158.514 35.192V26.7419C158.514 26.6491 158.514 26.5562 158.605 26.4634C158.697 26.3705 158.697 26.3705 158.789 26.3705H160.535C160.627 26.3705 160.719 26.3705 160.811 26.4634C160.903 26.5562 160.903 26.5562 160.903 26.7419V31.1062C160.903 31.1991 160.903 31.1991 160.995 31.1991C160.995 31.1991 161.087 31.1991 161.087 31.1062L163.751 26.8348C163.843 26.7419 163.935 26.6491 164.027 26.5562C164.119 26.4634 164.211 26.4634 164.303 26.4634H166.049C166.141 26.4634 166.232 26.4634 166.232 26.5562C166.232 26.6491 166.324 26.6491 166.324 26.7419V35.2848C166.324 35.3777 166.324 35.4705 166.232 35.5634C166.141 35.6562 166.049 35.6562 165.957 35.6562H164.211C164.119 35.6562 164.027 35.6562 164.027 35.5634C164.027 35.4705 163.935 35.3777 163.935 35.2848V31.1991C163.935 31.1062 163.935 31.1062 163.843 31.1062C163.751 31.1062 163.751 31.1062 163.751 31.1991L161.178 35.2848C161.087 35.4705 160.995 35.5634 160.903 35.5634C160.811 35.5634 160.719 35.6562 160.535 35.6562" fill="#697E96"/>
<path fill-rule="evenodd" clip-rule="evenodd" d="M51.6433 41.692C51.6433 41.5992 51.5514 41.5992 51.5514 41.5992C51.5514 41.5992 51.4595 41.5992 51.3676 41.692L50.5406 45.0349V45.1277C50.5406 45.1277 50.5406 45.1277 50.4487 45.1277H50.0811C49.9893 45.1277 49.9893 45.1277 49.9893 45.0349C49.9893 45.0349 49.9893 45.0349 49.9893 44.942L50.9082 41.5063C50.9082 41.4135 51.0001 41.3206 51.0001 41.2277C51.092 41.1349 51.092 41.1349 51.1839 41.042C51.2757 40.9492 51.2757 40.9492 51.3676 40.9492C51.4595 40.9492 51.5514 40.9492 51.5514 40.9492C51.5514 40.9492 51.6433 40.9492 51.7352 40.9492C51.8271 40.9492 51.8271 40.9492 51.919 41.042C52.0109 41.042 52.0109 41.1349 52.1028 41.2277C52.1947 41.3206 52.1947 41.4135 52.1947 41.5063L53.1136 44.942C53.1136 44.942 53.1136 44.942 53.1136 45.0349C53.1136 45.1277 53.1136 45.1277 53.0217 45.1277H52.6541H52.5622C52.5622 45.1277 52.5622 45.1277 52.5622 45.0349L51.6433 41.692ZM56.6055 43.1777C56.6055 43.2706 56.5136 43.3635 56.5136 43.3635H54.2163V43.4563C54.2163 43.9206 54.3082 44.1992 54.492 44.3849C54.6757 44.5706 54.8595 44.6635 55.2271 44.6635C55.4109 44.6635 55.5947 44.6635 55.8703 44.6635C56.0541 44.6635 56.2379 44.6635 56.4217 44.5706H56.5136V44.6635V44.942C56.5136 45.0349 56.5136 45.0349 56.5136 45.0349C56.5136 45.0349 56.4217 45.0349 56.4217 45.1277C56.2379 45.1277 56.0541 45.2206 55.8703 45.2206C55.6866 45.2206 55.5028 45.2206 55.2271 45.2206C55.0433 45.2206 54.8595 45.2206 54.6757 45.1277C54.492 45.0349 54.3082 44.942 54.2163 44.8492C54.0325 44.6635 53.9406 44.5706 53.8487 44.292C53.7568 44.0135 53.7568 43.7349 53.7568 43.3635V42.7135C53.7568 42.1563 53.8487 41.7849 54.1244 41.4135C54.4001 41.042 54.7676 40.9492 55.2271 40.9492C55.5028 40.9492 55.6866 40.9492 55.8703 41.042C56.0541 41.1349 56.2379 41.2277 56.3298 41.4135C56.4217 41.5992 56.5136 41.7849 56.6055 41.9706C56.6974 42.1563 56.6974 42.4349 56.6974 42.7135L56.6055 43.1777ZM55.9622 42.7135C55.9622 42.2492 55.8703 41.9706 55.7784 41.7849C55.5947 41.5992 55.4109 41.5063 55.1352 41.5063C54.8595 41.5063 54.5839 41.5992 54.492 41.7849C54.3082 41.9706 54.2163 42.2492 54.2163 42.7135V42.8063L55.9622 42.7135C55.9622 42.8063 55.9622 42.7135 55.9622 42.7135ZM60.2811 45.0349V45.1277H60.1893H59.9136H59.8217V45.0349V43.4563C59.6379 43.4563 59.546 43.4563 59.3622 43.5492C59.1784 43.642 58.9947 43.5492 58.8109 43.5492C58.6271 43.5492 58.4433 43.5492 58.2595 43.5492C58.0757 43.5492 57.9839 43.4563 57.892 43.3635C57.8001 43.2706 57.7082 43.1777 57.6163 42.992C57.5244 42.8063 57.5244 42.6206 57.5244 42.342V41.1349V41.042H57.6163H57.892H57.9838V41.1349V42.342C57.9838 42.4349 57.9838 42.6206 58.0757 42.6206C58.0757 42.7135 58.1676 42.8063 58.2595 42.8063C58.3514 42.8992 58.4433 42.8992 58.5352 42.8992C58.6271 42.8992 58.8109 42.8992 58.9028 42.8992C58.9028 42.8992 58.9947 42.8992 59.0866 42.8992C59.1784 42.8992 59.2703 42.8992 59.3622 42.8992C59.4541 42.8992 59.546 42.8992 59.6379 42.8992C59.7298 42.8992 59.8217 42.8992 59.8217 42.8992V41.1349V41.042H59.9136H60.1893H60.2811V41.1349V45.0349ZM64.2325 43.1777C64.2325 43.2706 64.1406 43.3635 64.1406 43.3635H61.8433V43.4563C61.8433 43.9206 61.9352 44.1992 62.119 44.3849C62.3028 44.5706 62.4866 44.6635 62.8541 44.6635C63.0379 44.6635 63.2217 44.6635 63.4974 44.6635C63.6811 44.6635 63.8649 44.6635 64.0487 44.5706H64.1406L64.2325 44.6635V44.942C64.2325 45.0349 64.2325 45.0349 64.2325 45.0349C64.2325 45.0349 64.1406 45.0349 64.1406 45.1277C63.9568 45.1277 63.773 45.2206 63.5893 45.2206C63.4055 45.2206 63.2217 45.2206 62.946 45.2206C62.7622 45.2206 62.5784 45.2206 62.3947 45.1277C62.2109 45.0349 62.0271 44.942 61.9352 44.8492C61.7514 44.6635 61.6595 44.5706 61.5676 44.292C61.4757 44.0135 61.4757 43.7349 61.4757 43.3635V42.7135C61.4757 42.1563 61.5676 41.7849 61.8433 41.4135C62.119 41.042 62.4866 40.9492 62.946 40.9492C63.2217 40.9492 63.4055 40.9492 63.5893 41.042C63.773 41.1349 63.9568 41.2277 64.0487 41.4135C64.1406 41.5992 64.2325 41.7849 64.3244 41.9706C64.4163 42.1563 64.4163 42.4349 64.4163 42.7135L64.2325 43.1777ZM63.6812 42.7135C63.6812 42.2492 63.5893 41.9706 63.4974 41.7849C63.3136 41.5992 63.1298 41.5063 62.8541 41.5063C62.5784 41.5063 62.3028 41.5992 62.2109 41.7849C62.0271 41.9706 61.9352 42.2492 61.9352 42.7135V42.8063L63.6812 42.7135C63.6812 42.8063 63.6812 42.7135 63.6812 42.7135ZM68.092 43.3635C68.092 43.9206 68.0001 44.3849 67.7244 44.7563C67.4487 45.1277 67.0811 45.2206 66.6217 45.2206C66.1622 45.2206 65.7947 45.0349 65.519 44.7563C65.2433 44.4777 65.1514 44.0135 65.1514 43.3635V42.992C65.1514 42.6206 65.1514 42.2492 65.1514 41.8777C65.1514 41.5063 65.2433 41.2277 65.3352 41.042C65.4271 40.8563 65.6109 40.5777 65.7947 40.392C65.9784 40.2063 66.2541 40.1135 66.6217 40.0206L67.0811 39.9277C67.2649 39.9277 67.3568 39.8349 67.4487 39.742C67.5406 39.6492 67.5406 39.5563 67.5406 39.4635C67.5406 39.3706 67.5406 39.3706 67.6325 39.3706H68.0001C68.092 39.3706 68.092 39.3706 68.092 39.4635C68.092 39.6492 68.092 39.742 68.0001 39.8349C67.9082 39.9277 67.9082 40.0206 67.8163 40.1135C67.7244 40.2063 67.6325 40.2063 67.5406 40.2992C67.4487 40.2992 67.3568 40.392 67.2649 40.392L66.7136 40.4849C66.4379 40.5777 66.2541 40.5777 66.1622 40.7635C65.9784 40.8563 65.8866 41.042 65.8866 41.3206C65.9784 41.2277 66.0703 41.1349 66.2541 41.1349C66.4379 41.042 66.5298 41.042 66.7136 41.042C67.173 41.042 67.5406 41.2277 67.8163 41.5063C68.092 41.7849 68.1838 42.342 68.1838 42.8992L68.092 43.3635ZM67.5406 42.992C67.5406 42.5277 67.4487 42.2492 67.3568 41.9706C67.173 41.692 66.9893 41.5992 66.6217 41.5992C66.2541 41.5992 66.0703 41.692 65.8866 41.9706C65.7028 42.1563 65.7028 42.5277 65.7028 42.992V43.3635C65.7028 43.8277 65.7947 44.1063 65.8866 44.292C66.0703 44.4777 66.2541 44.6635 66.6217 44.6635C66.9893 44.6635 67.173 44.5706 67.3568 44.292C67.5406 44.0135 67.5406 43.7349 67.5406 43.3635V42.992ZM72.0433 45.0349V45.1277H71.9514H71.5839H71.492V45.0349V43.3635H69.746V45.0349V45.1277H69.6541H69.3784H69.2866L69.1947 45.0349V41.1349C69.1947 41.1349 69.1947 41.042 69.2866 41.042H69.3784H69.6541H69.746V41.1349V42.7135H71.492V41.1349V41.042H71.5839H71.8595H71.9514V41.1349L72.0433 45.0349ZM75.9947 43.3635C75.9947 43.642 75.9947 43.9206 75.9028 44.1063C75.8109 44.292 75.719 44.5706 75.6271 44.6635C75.5352 44.7563 75.3514 44.942 75.1676 45.0349C74.9839 45.1277 74.8001 45.1277 74.5244 45.1277C74.2487 45.1277 74.0649 45.1277 73.8811 45.0349C73.6974 44.942 73.5136 44.8492 73.4217 44.6635C73.3298 44.4777 73.2379 44.292 73.146 44.1063C73.0541 43.8277 73.0541 43.642 73.0541 43.3635V42.8063C73.0541 42.5277 73.0541 42.2492 73.146 42.0635C73.2379 41.8777 73.3298 41.5992 73.4217 41.5063C73.5136 41.3206 73.6974 41.2277 73.8811 41.1349C74.0649 41.042 74.2487 41.042 74.5244 41.042C74.8001 41.042 74.9839 41.042 75.1676 41.1349C75.3514 41.2277 75.5352 41.3206 75.6271 41.5063C75.719 41.692 75.8109 41.8777 75.9028 42.0635C75.9947 42.342 75.9947 42.5277 75.9947 42.8063V43.3635ZM75.4433 42.8063C75.4433 42.4349 75.3514 42.0635 75.2595 41.8777C75.0757 41.5992 74.892 41.5063 74.5244 41.5063C74.2487 41.5063 73.973 41.5992 73.7893 41.8777C73.6055 42.1563 73.6055 42.4349 73.6055 42.8063V43.3635C73.6055 43.7349 73.6974 44.1063 73.7893 44.292C73.973 44.4777 74.1568 44.6635 74.5244 44.6635C74.8001 44.6635 75.0757 44.5706 75.2595 44.292C75.4433 44.0135 75.4433 43.7349 75.4433 43.3635V42.8063ZM78.4757 43.0849C78.4757 43.1777 78.4757 43.1777 78.3839 43.1777H77.0055C76.9136 43.1777 76.9136 43.1777 76.9136 43.0849V42.8063V42.7135H77.0055H78.3839C78.4757 42.7135 78.4757 42.7135 78.4757 42.8992V43.0849ZM82.7028 44.5706C82.7028 44.5706 82.7947 44.5706 82.7028 44.5706C82.7947 44.6635 82.7947 44.6635 82.7947 44.7563V45.8706V45.9635H82.7028H82.4271H82.3352V45.8706V45.2206H79.7622V45.8706V45.9635H79.6703H79.3947H79.3028V45.8706V44.7563V44.6635H79.3947H79.6703L80.4974 41.5992C80.4974 41.5063 80.5893 41.4135 80.5893 41.3206C80.6811 41.2277 80.6811 41.2277 80.773 41.1349C80.8649 41.042 80.8649 41.042 80.9568 41.042C81.0487 41.042 81.1406 41.042 81.1406 41.042C81.1406 41.042 81.2325 41.042 81.3244 41.042C81.4163 41.042 81.4163 41.042 81.5082 41.1349C81.6001 41.1349 81.6001 41.2277 81.692 41.3206C81.7839 41.4135 81.7838 41.5063 81.7838 41.5992L82.519 44.6635C82.4271 44.5706 82.7028 44.5706 82.7028 44.5706ZM80.1298 44.5706H81.7838L81.0487 41.692C81.0487 41.5992 80.9568 41.5992 80.9568 41.5992C80.8649 41.5992 80.8649 41.5992 80.773 41.692L80.1298 44.5706ZM83.6217 41.1349C83.6217 41.042 83.6217 40.9492 83.7136 40.9492H84.0811H84.173V41.042V44.0135L85.7352 41.042C85.7352 40.9492 85.8271 40.9492 85.8271 40.9492C85.8271 40.9492 85.919 40.9492 86.0109 40.9492H86.3784C86.4703 40.9492 86.4703 40.9492 86.4703 40.9492C86.4703 40.9492 86.4703 41.042 86.4703 41.1349V44.942V45.0349H86.3784H86.0109H85.919V44.942V41.9706L84.3568 44.942C84.3568 45.0349 84.2649 45.0349 84.2649 45.0349H84.173H83.8055C83.7136 45.0349 83.7136 45.0349 83.6217 44.942C83.5298 44.8492 83.6217 45.0349 83.6217 44.942V41.1349ZM90.2379 45.0349V45.1277H90.146H89.8703H89.7784V45.0349V44.8492C89.5947 44.942 89.4109 45.0349 89.319 45.1277C89.1352 45.2206 88.9514 45.2206 88.7676 45.2206C88.5839 45.2206 88.492 45.2206 88.4001 45.1277C88.3082 45.1277 88.1244 45.0349 88.0325 44.942C87.9406 44.8492 87.8487 44.7563 87.7568 44.5706C87.6649 44.3849 87.6649 44.1992 87.6649 44.0135V43.9206C87.6649 43.7349 87.6649 43.5492 87.7568 43.3635C87.8487 43.1777 87.9406 43.0849 88.0325 42.992C88.1244 42.8992 88.3082 42.8063 88.5839 42.7135C88.8595 42.6206 89.0433 42.6206 89.319 42.6206H89.7784V42.342C89.7784 42.0635 89.6866 41.7849 89.5947 41.692C89.5028 41.5992 89.319 41.5063 89.0433 41.5063C88.8595 41.5063 88.6757 41.5063 88.492 41.5063C88.3082 41.5063 88.2163 41.5063 88.0325 41.5063H87.9406C87.9406 41.5063 87.8487 41.5063 87.8487 41.4135V41.1349C87.8487 41.042 87.9406 41.042 88.0325 40.9492C88.2163 40.9492 88.3082 40.9492 88.492 40.8563C88.6757 40.7635 88.8595 40.8563 89.0433 40.8563C89.5028 40.8563 89.8703 40.9492 90.0541 41.2277C90.2379 41.5063 90.3298 41.8777 90.3298 42.2492L90.2379 45.0349ZM89.6866 43.1777H89.1352C88.9514 43.1777 88.7676 43.1777 88.5839 43.1777C88.492 43.1777 88.3082 43.2706 88.3082 43.2706C88.2163 43.3635 88.2163 43.3635 88.1244 43.4563C88.1244 43.5492 88.0325 43.642 88.0325 43.8277V43.9206C88.0325 44.1992 88.1244 44.3849 88.2163 44.4777C88.3082 44.5706 88.492 44.6635 88.6757 44.6635C88.8595 44.6635 88.9514 44.6635 89.1352 44.5706C89.319 44.5706 89.4109 44.4777 89.5947 44.3849L89.6866 43.1777ZM92.1676 41.5992C92.0757 41.5992 91.9838 41.5992 91.9838 41.692C91.9838 41.7849 91.892 41.7849 91.892 41.9706V45.1277V45.2206H91.8001H91.5244H91.4325V45.1277V41.9706C91.4325 41.7849 91.4325 41.5992 91.5244 41.5063C91.6163 41.4135 91.7082 41.3206 91.7082 41.2277C91.8001 41.1349 91.892 41.1349 91.9838 41.1349C92.0757 41.1349 92.1676 41.1349 92.2595 41.1349H93.4541H93.546V41.2277V41.5063V41.5992H93.4541H92.1676ZM97.2217 45.0349V45.1277H97.1298H96.8541H96.7622V45.0349V43.3635H95.0163V45.0349V45.1277H94.9244H94.6487H94.5568V45.0349V41.1349V41.042H94.6487H94.9244H95.0163V41.1349V42.7135H96.7622V41.1349V41.042H96.8541H97.1298H97.2217V41.1349V45.0349ZM101.265 43.3635C101.265 43.642 101.265 43.9206 101.173 44.1063C101.081 44.292 100.989 44.5706 100.897 44.6635C100.805 44.7563 100.622 44.942 100.438 45.0349C100.254 45.1277 100.07 45.1277 99.7947 45.1277C99.519 45.1277 99.3352 45.1277 99.1514 45.0349C98.9676 44.942 98.7839 44.8492 98.692 44.6635C98.6001 44.4777 98.5082 44.292 98.4163 44.1063C98.3244 43.8277 98.3244 43.642 98.3244 43.3635V42.8063C98.3244 42.5277 98.3244 42.2492 98.4163 42.0635C98.5082 41.8777 98.6001 41.5992 98.692 41.5063C98.7839 41.3206 98.9676 41.2277 99.1514 41.1349C99.3352 41.042 99.519 41.042 99.7947 41.042C100.07 41.042 100.254 41.042 100.438 41.1349C100.622 41.2277 100.805 41.3206 100.897 41.5063C100.989 41.692 101.081 41.8777 101.173 42.0635C101.265 42.342 101.265 42.5277 101.265 42.8063V43.3635ZM100.622 42.8063C100.622 42.4349 100.53 42.0635 100.438 41.8777C100.254 41.5992 100.07 41.5063 99.7028 41.5063C99.4271 41.5063 99.1514 41.5992 98.9676 41.8777C98.7838 42.1563 98.7839 42.4349 98.7839 42.8063V43.3635C98.7839 43.7349 98.8757 44.1063 98.9676 44.292C99.1514 44.4777 99.3352 44.6635 99.7028 44.6635C99.9784 44.6635 100.254 44.5706 100.438 44.292C100.622 44.1063 100.622 43.7349 100.622 43.3635V42.8063ZM104.481 44.942V45.0349C104.481 45.0349 104.389 45.0349 104.389 45.1277C104.297 45.1277 104.114 45.1277 104.022 45.2206C103.838 45.2206 103.746 45.2206 103.562 45.2206C103.287 45.2206 103.103 45.2206 102.919 45.1277C102.735 45.0349 102.551 44.942 102.46 44.7563C102.368 44.5706 102.276 44.3849 102.184 44.1992C102.092 44.0135 102.092 43.7349 102.092 43.4563V42.8992C102.092 42.6206 102.092 42.342 102.184 42.1563C102.276 41.8777 102.368 41.692 102.46 41.5992C102.551 41.4135 102.735 41.3206 102.919 41.2277C103.103 41.1349 103.287 41.1349 103.562 41.1349C103.746 41.1349 103.838 41.1349 104.022 41.1349C104.205 41.1349 104.297 41.1349 104.389 41.2277C104.481 41.2277 104.481 41.2277 104.481 41.2277V41.3206V41.5992C104.481 41.5992 104.481 41.692 104.389 41.692H104.297C104.114 41.692 104.022 41.692 103.93 41.692C103.838 41.692 103.654 41.692 103.47 41.692C103.195 41.692 103.011 41.7849 102.827 41.9706C102.643 42.1563 102.643 42.5277 102.643 42.8992V43.4563C102.643 43.9206 102.735 44.1992 102.827 44.3849C103.011 44.5706 103.195 44.6635 103.47 44.6635C103.654 44.6635 103.746 44.6635 103.93 44.6635C104.022 44.6635 104.205 44.6635 104.297 44.6635H104.389C104.389 44.6635 104.481 44.6635 104.481 44.7563V44.942ZM108.249 41.4135V41.5063H108.157H107.054V44.942V45.0349H106.962H106.595H106.503V44.942V41.5063H105.4H105.308V41.4135V41.1349V41.042H105.4H108.249H108.341V41.1349L108.249 41.4135ZM109.168 41.1349C109.168 41.042 109.168 40.9492 109.26 40.9492H109.627H109.719V41.042V44.0135L111.281 41.042C111.281 40.9492 111.373 40.9492 111.373 40.9492C111.373 40.9492 111.465 40.9492 111.557 40.9492H111.924C112.016 40.9492 112.016 40.9492 112.016 40.9492C112.016 40.9492 112.016 41.042 112.016 41.1349V44.942V45.0349H111.924H111.557H111.465V44.942V41.9706L109.903 44.942C109.903 45.0349 109.811 45.0349 109.811 45.0349H109.719H109.351C109.26 45.0349 109.26 45.0349 109.168 44.942C109.076 44.8492 109.076 44.8492 109.076 44.7563L109.168 41.1349ZM115.968 45.0349V45.1277H115.876H115.508H115.416V45.0349V43.4563C115.324 43.4563 115.141 43.4563 114.957 43.5492C114.773 43.642 114.589 43.5492 114.497 43.5492C114.314 43.5492 114.13 43.5492 113.946 43.5492C113.762 43.5492 113.67 43.4563 113.578 43.3635C113.487 43.2706 113.395 43.1777 113.303 42.992C113.211 42.8063 113.211 42.6206 113.211 42.342V41.1349V41.042H113.303H113.67H113.762V41.1349V42.342C113.762 42.4349 113.762 42.6206 113.762 42.6206C113.762 42.7135 113.854 42.8063 113.854 42.8063C113.946 42.8992 114.038 42.8992 114.13 42.8992C114.222 42.8992 114.405 42.8992 114.497 42.8992C114.497 42.8992 114.589 42.8992 114.681 42.8992C114.773 42.8992 114.865 42.8992 114.957 42.8992C115.049 42.8992 115.141 42.8992 115.232 42.8992C115.324 42.8992 115.416 42.8992 115.416 42.8992V41.1349V41.042H115.508H115.876H115.968V41.1349V45.0349ZM119.919 43.1777C119.919 43.2706 119.919 43.3635 119.827 43.3635H117.53V43.4563C117.53 43.9206 117.622 44.1992 117.805 44.3849C117.989 44.5706 118.173 44.6635 118.541 44.6635C118.724 44.6635 118.908 44.6635 119.184 44.6635C119.368 44.6635 119.551 44.6635 119.735 44.5706H119.827V44.6635V44.942C119.827 45.0349 119.827 45.0349 119.827 45.0349C119.827 45.0349 119.735 45.0349 119.735 45.1277C119.551 45.1277 119.368 45.2206 119.184 45.2206C119 45.2206 118.816 45.2206 118.541 45.2206C118.357 45.2206 118.173 45.2206 117.989 45.1277C117.805 45.0349 117.622 44.942 117.53 44.8492C117.438 44.6635 117.254 44.5706 117.162 44.292C117.07 44.0135 117.07 43.7349 117.07 43.3635V42.7135C117.07 42.1563 117.162 41.7849 117.438 41.4135C117.714 41.042 118.081 40.9492 118.541 40.9492C118.816 40.9492 119 40.9492 119.184 41.042C119.368 41.1349 119.551 41.2277 119.643 41.4135C119.735 41.5992 119.827 41.7849 119.919 41.9706C120.011 42.1563 120.011 42.4349 120.011 42.7135L119.919 43.1777ZM119.276 42.7135C119.276 42.2492 119.184 41.9706 119.092 41.7849C118.908 41.5992 118.724 41.5063 118.449 41.5063C118.173 41.5063 117.897 41.5992 117.805 41.7849C117.622 41.9706 117.53 42.2492 117.53 42.7135V42.8063L119.276 42.7135ZM123.227 44.942V45.0349C123.227 45.0349 123.135 45.0349 123.135 45.1277C123.043 45.1277 122.86 45.1277 122.768 45.2206C122.584 45.2206 122.492 45.2206 122.308 45.2206C122.033 45.2206 121.849 45.2206 121.665 45.1277C121.481 45.0349 121.297 44.942 121.205 44.7563C121.114 44.5706 121.022 44.3849 120.93 44.1992C120.838 44.0135 120.838 43.7349 120.838 43.4563V42.8992C120.838 42.6206 120.838 42.342 120.93 42.1563C121.022 41.8777 121.114 41.692 121.205 41.5992C121.297 41.4135 121.481 41.3206 121.665 41.2277C121.849 41.1349 122.033 41.1349 122.308 41.1349C122.492 41.1349 122.584 41.1349 122.768 41.1349C122.951 41.1349 123.043 41.1349 123.135 41.2277C123.227 41.2277 123.227 41.2277 123.227 41.2277V41.3206V41.5992C123.227 41.5992 123.227 41.692 123.135 41.692H123.043C122.86 41.692 122.768 41.692 122.676 41.692C122.584 41.692 122.4 41.692 122.216 41.692C121.941 41.692 121.757 41.7849 121.573 41.9706C121.389 42.1563 121.389 42.5277 121.389 42.8992V43.4563C121.389 43.9206 121.481 44.1992 121.573 44.3849C121.665 44.5706 121.941 44.6635 122.216 44.6635C122.4 44.6635 122.492 44.6635 122.676 44.6635C122.86 44.6635 122.951 44.6635 123.043 44.6635H123.135C123.135 44.6635 123.227 44.6635 123.227 44.7563V44.942ZM126.719 45.0349C126.719 45.1277 126.719 45.1277 126.627 45.1277H126.168H126.076C126.076 45.1277 125.984 45.1277 125.984 45.0349L124.605 43.1777V45.0349V45.1277H124.514H124.146H124.054V45.0349V41.1349V41.042H124.146H124.514H124.605V41.1349V42.7135L125.984 41.042C125.984 41.042 125.984 41.042 126.076 40.9492H126.168H126.627C126.719 40.9492 126.719 40.9492 126.719 41.042V41.1349L125.249 42.8992L126.719 45.0349ZM127.454 41.1349C127.454 41.042 127.454 40.9492 127.546 40.9492H127.914H128.005V41.042V44.0135L129.568 41.042C129.568 40.9492 129.66 40.9492 129.66 40.9492C129.66 40.9492 129.751 40.9492 129.843 40.9492H130.211C130.303 40.9492 130.303 40.9492 130.303 40.9492C130.303 40.9492 130.303 41.042 130.303 41.1349V44.942V45.0349H130.211H129.843H129.751V44.942V41.9706L128.189 44.942C128.189 45.0349 128.097 45.0349 128.097 45.0349H128.005H127.638C127.546 45.0349 127.546 45.0349 127.546 44.942C127.546 44.8492 127.454 44.8492 127.454 44.7563" fill="#697E96"/>
<path fill-rule="evenodd" clip-rule="evenodd" d="M134.07 39.3707C134.07 39.5564 133.978 39.7421 133.978 39.835C133.978 39.9278 133.794 40.1135 133.702 40.2064C133.611 40.2993 133.519 40.3921 133.335 40.3921C133.243 40.3921 133.059 40.485 132.967 40.485C132.875 40.485 132.692 40.485 132.6 40.3921C132.508 40.3921 132.324 40.2993 132.232 40.2064C132.14 40.1135 132.048 40.0207 131.957 39.835C131.865 39.6493 131.865 39.5564 131.865 39.3707V39.2778C131.865 39.2778 131.865 39.2778 131.957 39.2778H132.232C132.324 39.2778 132.324 39.2778 132.324 39.3707C132.324 39.4635 132.324 39.5564 132.416 39.6493C132.508 39.7421 132.508 39.835 132.6 39.835C132.692 39.9278 132.692 39.9278 132.784 39.9278C132.875 39.9278 132.967 39.9278 133.059 39.9278C133.151 39.9278 133.243 39.9278 133.335 39.9278C133.427 39.9278 133.519 39.835 133.519 39.835C133.611 39.7421 133.611 39.7421 133.702 39.6493C133.702 39.5564 133.794 39.4635 133.794 39.3707C133.794 39.2778 133.794 39.2778 133.886 39.2778H134.162C134.07 39.2778 134.07 39.2778 134.07 39.3707ZM131.497 44.9421V41.135C131.497 41.0421 131.497 40.9493 131.589 40.9493H131.957H132.048V41.0421V44.0135L133.611 41.0421C133.611 40.9493 133.702 40.9493 133.702 40.9493C133.702 40.9493 133.794 40.9493 133.886 40.9493H134.254C134.346 40.9493 134.346 40.9493 134.346 40.9493C134.346 40.9493 134.346 41.0421 134.346 41.135V44.9421V45.035H134.254H133.886H133.794V44.9421V41.9707L132.232 44.9421C132.232 45.035 132.14 45.035 132.14 45.035H132.048H131.681C131.589 45.035 131.589 45.035 131.589 44.9421C131.589 45.035 131.497 45.035 131.497 44.9421ZM139.859 41.135V41.0421H139.951H140.319H140.411V41.135V44.2921C140.411 44.385 140.411 44.4778 140.411 44.5707H140.686H140.778V44.6635V45.7778V45.8707H140.686H140.319H140.227V45.7778V45.1278H138.297C138.205 45.1278 138.113 45.1278 138.021 45.1278C137.929 45.1278 137.838 45.1278 137.746 45.035C137.654 44.9421 137.562 44.8493 137.562 44.7564C137.47 44.6635 137.47 44.4778 137.47 44.2921V41.135V41.0421H137.562H137.93H138.021V41.135V44.2921C138.021 44.385 138.021 44.4778 138.113 44.5707C138.205 44.6635 138.205 44.6635 138.297 44.6635H139.584C139.675 44.6635 139.767 44.6635 139.767 44.5707C139.767 44.5707 139.859 44.4778 139.859 44.2921V41.135ZM144.454 43.1778C144.454 43.2707 144.454 43.3635 144.362 43.3635H142.065V43.4564C142.065 43.9207 142.157 44.1993 142.34 44.385C142.524 44.5707 142.708 44.6635 143.075 44.6635C143.259 44.6635 143.443 44.6635 143.719 44.6635C143.902 44.6635 144.086 44.6635 144.27 44.5707H144.362V44.6635V44.9421C144.362 45.035 144.362 45.035 144.362 45.035C144.362 45.035 144.27 45.035 144.27 45.1278C144.086 45.1278 143.902 45.2207 143.719 45.2207C143.535 45.2207 143.351 45.2207 143.075 45.2207C142.892 45.2207 142.708 45.2207 142.524 45.1278C142.34 45.035 142.157 44.9421 142.065 44.8493C141.881 44.6635 141.789 44.5707 141.697 44.2921C141.605 44.0135 141.605 43.735 141.605 43.3635V42.7135C141.605 42.1564 141.697 41.785 141.973 41.4135C142.248 41.0421 142.616 40.9493 143.075 40.9493C143.351 40.9493 143.535 40.9493 143.719 41.0421C143.902 41.135 144.086 41.2278 144.178 41.4135C144.27 41.5993 144.362 41.785 144.454 41.9707C144.546 42.1564 144.546 42.435 144.546 42.7135L144.454 43.1778ZM143.811 42.7135C143.811 42.2493 143.719 41.9707 143.627 41.785C143.443 41.5993 143.259 41.5064 142.984 41.5064C142.708 41.5064 142.432 41.5993 142.34 41.785C142.157 41.9707 142.065 42.2493 142.065 42.7135V42.8064L143.811 42.7135ZM148.405 45.035V45.1278H148.313H147.946H147.854V45.035V43.3635H146.108V45.035V45.1278H146.016H145.648H145.557V45.035V41.135V41.0421H145.648H146.016H146.108V41.135V42.7135H147.854V41.135V41.0421H147.946H148.313H148.405V41.135V45.035ZM152.357 41.4135V41.5064H152.265H151.162V44.9421V45.035H151.07H150.702H150.611V44.9421V41.5064H149.508H149.416V41.4135V41.135V41.0421H149.508H152.357H152.448V41.135L152.357 41.4135ZM156.032 43.3635C156.032 43.9207 155.94 44.385 155.665 44.7564C155.389 45.1278 155.021 45.2207 154.562 45.2207C154.47 45.2207 154.286 45.2207 154.194 45.2207C154.102 45.2207 153.919 45.2207 153.827 45.1278V46.5207V46.6135H153.735H153.367H153.275V46.5207V41.3207C153.275 41.2278 153.275 41.2278 153.275 41.2278C153.275 41.2278 153.367 41.2278 153.367 41.135C153.551 41.135 153.735 41.0421 153.919 41.0421C154.102 41.0421 154.378 41.0421 154.562 41.0421C154.838 41.0421 155.021 41.0421 155.205 41.135C155.389 41.2278 155.573 41.3207 155.665 41.5064C155.757 41.6921 155.848 41.8778 155.94 42.0635C156.032 42.3421 156.032 42.5278 156.032 42.8064V43.3635ZM155.481 42.8064C155.481 42.6207 155.481 42.435 155.481 42.2493C155.481 42.0635 155.389 41.9707 155.297 41.8778C155.205 41.785 155.113 41.6921 155.021 41.5993C154.929 41.5064 154.746 41.5064 154.654 41.5064C154.47 41.5064 154.378 41.5064 154.194 41.5064C154.011 41.5064 153.919 41.5064 153.827 41.5993V44.5707C153.919 44.5707 154.102 44.5707 154.194 44.6635C154.378 44.6635 154.47 44.6635 154.562 44.6635C154.746 44.6635 154.838 44.6635 154.93 44.5707C155.021 44.4778 155.113 44.385 155.205 44.2921C155.297 44.1993 155.297 44.0135 155.389 43.9207C155.481 43.8278 155.389 43.5493 155.389 43.3635L155.481 42.8064ZM163.843 42.8064C163.843 43.1778 163.751 43.4564 163.567 43.735C163.384 44.0135 163.108 44.1064 162.832 44.1064C162.557 44.1064 162.281 44.0135 162.097 43.735C161.913 43.4564 161.821 43.1778 161.821 42.8064V42.435C161.821 42.0635 161.913 41.785 162.097 41.5064C162.281 41.2278 162.557 41.135 162.832 41.135C163.2 41.135 163.384 41.2278 163.567 41.5064C163.751 41.785 163.843 42.0635 163.843 42.435V42.8064ZM163.843 44.6635C163.843 44.6635 163.843 44.7564 163.843 44.6635C163.751 44.7564 163.751 44.7564 163.751 44.7564H161.913H161.821V44.6635V44.4778V44.385H161.913H163.751H163.843V44.4778V44.6635ZM161.27 45.035C161.27 45.035 161.27 45.1278 161.178 45.1278L161.086 45.2207H160.811C160.719 45.2207 160.719 45.2207 160.627 45.1278L158.973 41.5993V45.035V45.1278C158.973 45.1278 158.973 45.1278 158.881 45.1278H158.605H158.513C158.513 45.1278 158.513 45.1278 158.513 45.035V40.8564C158.513 40.8564 158.513 40.7635 158.605 40.7635H158.697H158.973C159.065 40.7635 159.065 40.7635 159.157 40.7635C159.248 40.7635 159.248 40.7635 159.248 40.8564L160.902 44.2921V40.7635V40.6707C160.902 40.6707 160.902 40.6707 160.994 40.6707H161.27H161.362C161.362 40.6707 161.362 40.6707 161.362 40.7635L161.27 45.035ZM163.384 42.435C163.384 42.1564 163.292 41.9707 163.292 41.785C163.2 41.5993 163.016 41.5993 162.832 41.5993C162.648 41.5993 162.465 41.6921 162.373 41.785C162.281 41.9707 162.281 42.1564 162.281 42.435V42.8064C162.281 43.085 162.373 43.2707 162.373 43.4564C162.465 43.6421 162.648 43.6421 162.832 43.6421C163.016 43.6421 163.2 43.5493 163.292 43.4564C163.384 43.2707 163.384 43.085 163.384 42.8064V42.435ZM164.854 45.2207C164.854 45.2207 164.854 45.1278 164.854 45.2207C164.762 45.2207 164.762 45.1278 164.762 45.1278V44.8493V44.7564H164.854H165.681V41.4135L164.854 41.785H164.762C164.762 41.785 164.762 41.785 164.762 41.6921V41.4135L165.681 40.9493C165.773 40.9493 165.773 40.9493 165.773 40.9493H165.957H166.048C166.048 40.9493 166.048 40.9493 166.048 41.0421V44.8493H166.875H166.967C166.967 44.8493 166.967 44.8493 166.967 44.9421V45.2207V45.3135H166.875" fill="#697E96"/>
<path fill-rule="evenodd" clip-rule="evenodd" d="M52.3783 19.9635C52.3783 20.0564 52.3783 20.1492 52.2864 20.1492C52.1946 20.1492 52.1027 20.2421 52.1027 20.2421H49.9892C49.8973 20.2421 49.8054 20.2421 49.7135 20.1492C49.6216 20.0564 49.6216 20.0564 49.6216 19.9635V11.6992C49.6216 10.9564 49.7135 10.3992 49.8973 9.93495C50.081 9.47066 50.3567 9.09923 50.7243 8.91352C51.0919 8.63495 51.4594 8.54209 51.9189 8.44923C52.3783 8.35638 52.8378 8.35638 53.3891 8.35638C53.8486 8.35638 54.2162 8.35638 54.4919 8.35638C54.7675 8.35638 55.1351 8.35638 55.3189 8.44923C55.5946 8.44923 55.7783 8.54209 55.9621 8.54209C56.1459 8.54209 56.3297 8.54209 56.4216 8.63495C56.6054 8.63495 56.6973 8.7278 56.6973 9.00638V10.4921C56.6973 10.5849 56.6973 10.6778 56.6054 10.6778C56.5135 10.6778 56.4216 10.7707 56.4216 10.7707H53.2054C52.8378 10.7707 52.5621 10.8635 52.4702 11.0492C52.2864 11.2349 52.1946 11.5135 52.1946 11.8849L52.3783 19.9635ZM65.1513 16.3421C65.1513 16.9921 65.0594 17.5492 64.8756 18.1064C64.6919 18.5707 64.4162 19.0349 64.1405 19.4064C63.7729 19.7778 63.4054 20.0564 62.9459 20.2421C62.4864 20.4278 61.8432 20.5207 61.2918 20.5207C60.7405 20.5207 60.0973 20.4278 59.6378 20.2421C59.1783 20.0564 58.7189 19.7778 58.4432 19.4064C58.1675 19.0349 57.8 18.5707 57.7081 18.1064C57.5243 17.6421 57.4324 16.9921 57.4324 16.3421V15.2278C57.4324 14.5778 57.5243 14.0207 57.7081 13.4635C57.8919 12.9992 58.1675 12.5349 58.4432 12.1635C58.8108 11.7921 59.1783 11.5135 59.6378 11.3278C60.0973 11.1421 60.7405 11.0492 61.2918 11.0492C61.8432 11.0492 62.4864 11.1421 62.9459 11.3278C63.4054 11.5135 63.8648 11.7921 64.1405 12.1635C64.5081 12.5349 64.6919 12.9992 64.8756 13.4635C65.0594 13.9278 65.1513 14.5778 65.1513 15.2278V16.3421ZM62.5783 15.2278C62.5783 13.9278 62.1189 13.2778 61.2 13.2778C60.7405 13.2778 60.3729 13.4635 60.0973 13.7421C59.8216 14.1135 59.7297 14.5778 59.7297 15.2278V16.3421C59.7297 16.9921 59.8216 17.4564 60.0973 17.8278C60.3729 18.1992 60.6486 18.2921 61.2 18.2921C62.1189 18.2921 62.5783 17.6421 62.5783 16.3421V15.2278ZM74.9837 16.3421C74.9837 17.6421 74.6162 18.5707 73.9729 19.3135C73.3297 20.0564 72.3189 20.4278 70.9405 20.4278C70.7567 20.4278 70.5729 20.4278 70.3891 20.4278C70.1135 20.4278 69.9297 20.4278 69.654 20.3349V23.1207C69.654 23.2135 69.654 23.3064 69.5621 23.3064C69.4702 23.3064 69.3783 23.3992 69.3783 23.3992H67.4486C67.3567 23.3992 67.2648 23.3992 67.1729 23.3064C67.081 23.2135 67.081 23.2135 67.081 23.1207V11.9778C67.081 11.8849 67.081 11.7921 67.1729 11.6992C67.2648 11.6064 67.3567 11.6064 67.5405 11.5135C68 11.4207 68.5513 11.3278 69.1027 11.2349C69.654 11.1421 70.2973 11.1421 70.9405 11.1421C72.227 11.1421 73.2378 11.5135 73.881 12.2564C74.5243 12.9992 74.8919 14.0207 74.8919 15.3207L74.9837 16.3421ZM72.5027 15.1349C72.5027 14.8564 72.5027 14.5778 72.4108 14.3921C72.4108 14.1135 72.3189 13.9278 72.227 13.7421C72.1351 13.5564 71.9513 13.4635 71.7675 13.3707C71.5837 13.2778 71.4 13.1849 71.0324 13.1849C70.7567 13.1849 70.481 13.1849 70.2973 13.1849C70.1135 13.1849 69.9297 13.1849 69.7459 13.2778V18.1992C69.9297 18.1992 70.1135 18.1992 70.3891 18.2921C70.6648 18.2921 70.8486 18.2921 71.0324 18.2921C71.3081 18.2921 71.5837 18.2921 71.7675 18.1064C71.9513 18.0135 72.0432 17.8278 72.227 17.7349C72.3189 17.5492 72.4108 17.3635 72.4108 17.0849C72.5027 16.8064 72.5027 16.6207 72.5027 16.3421V15.1349ZM84.7243 16.3421C84.7243 16.9921 84.6324 17.5492 84.4486 18.1064C84.2648 18.5707 83.9891 19.0349 83.7135 19.4064C83.4378 19.7778 82.9783 20.0564 82.5189 20.2421C82.0594 20.4278 81.4162 20.5207 80.8648 20.5207C80.3135 20.5207 79.6702 20.4278 79.2108 20.2421C78.7513 20.0564 78.2919 19.7778 78.0162 19.4064C77.6486 19.0349 77.3729 18.5707 77.281 18.1064C77.0973 17.6421 77.0054 16.9921 77.0054 16.3421V15.2278C77.0054 14.5778 77.0973 14.0207 77.281 13.4635C77.4648 12.9992 77.7405 12.5349 78.0162 12.1635C78.3837 11.7921 78.7513 11.5135 79.2108 11.3278C79.6702 11.1421 80.3135 11.0492 80.8648 11.0492C81.4162 11.0492 82.0594 11.1421 82.5189 11.3278C82.9783 11.5135 83.4378 11.7921 83.7135 12.1635C84.081 12.5349 84.2648 12.9992 84.4486 13.4635C84.6324 13.9278 84.7243 14.5778 84.7243 15.2278V16.3421ZM82.1513 15.2278C82.1513 13.9278 81.6919 13.2778 80.7729 13.2778C80.3135 13.2778 79.9459 13.4635 79.6702 13.7421C79.3946 14.1135 79.3027 14.5778 79.3027 15.2278V16.3421C79.3027 16.9921 79.3946 17.4564 79.6702 17.8278C79.9459 18.1992 80.2216 18.2921 80.7729 18.2921C81.6919 18.2921 82.1513 17.6421 82.1513 16.3421V15.2278ZM93.454 20.3349H88.5837V21.9135C88.5837 22.0064 88.5837 22.0992 88.4919 22.0992C88.4 22.1921 88.3081 22.1921 88.3081 22.1921H86.4702C86.3783 22.1921 86.2864 22.1921 86.2864 22.0992C86.2864 22.0064 86.1946 22.0064 86.1946 21.9135V18.4778C86.1946 18.3849 86.1946 18.2921 86.2864 18.2921C86.3783 18.2921 86.4702 18.1992 86.4702 18.1992H87.2973L88.7675 12.5349C88.8594 12.2564 88.9513 11.9778 89.1351 11.7921C89.3189 11.6064 89.5027 11.4207 89.6864 11.3278C89.8702 11.2349 90.1459 11.1421 90.3297 11.1421C90.5135 11.1421 90.7891 11.0492 91.0648 11.0492C91.3405 11.0492 91.5243 11.0492 91.8 11.1421C92.0756 11.1421 92.2594 11.2349 92.4432 11.3278C92.627 11.4207 92.8108 11.6064 92.9946 11.7921C93.1783 11.9778 93.2702 12.2564 93.3621 12.5349L94.8324 18.1992H95.6594C95.7513 18.1992 95.8432 18.1992 95.8432 18.2921C95.9351 18.3849 95.9351 18.3849 95.9351 18.4778V21.9135C95.9351 22.0064 95.9351 22.0992 95.8432 22.0992C95.7513 22.1921 95.6594 22.1921 95.6594 22.1921H93.8216C93.7297 22.1921 93.6378 22.1921 93.6378 22.0992C93.6378 22.0064 93.5459 22.0064 93.5459 21.9135V20.3349H93.454ZM89.8702 18.1992H92.1675L91.0648 13.3707C91.0648 13.2778 90.9729 13.2778 90.9729 13.2778C90.9729 13.2778 90.881 13.2778 90.881 13.3707L89.8702 18.1992ZM102.919 19.8707C102.919 19.9635 102.919 20.0564 102.827 20.1492C102.735 20.1492 102.643 20.2421 102.551 20.2421C102.368 20.3349 102 20.3349 101.724 20.4278C101.357 20.5207 100.989 20.5207 100.53 20.5207C99.427 20.5207 98.5081 20.1492 97.8648 19.4992C97.2216 18.7564 96.854 17.8278 96.854 16.5278V15.2278C96.854 13.9278 97.2216 12.9064 97.8648 12.2564C98.5081 11.6064 99.427 11.2349 100.53 11.2349C100.989 11.2349 101.449 11.2349 101.724 11.3278C102 11.4207 102.368 11.4207 102.551 11.5135C102.643 11.5135 102.735 11.6064 102.827 11.6064C102.919 11.6064 102.919 11.6992 102.919 11.8849V13.2778C102.919 13.3707 102.919 13.4635 102.827 13.4635C102.735 13.4635 102.735 13.5564 102.643 13.5564C102.368 13.5564 102.092 13.4635 101.816 13.4635C101.541 13.4635 101.173 13.4635 100.713 13.4635C100.53 13.4635 100.346 13.4635 100.162 13.5564C99.9783 13.6492 99.8864 13.7421 99.7946 13.8349C99.7027 13.9278 99.6108 14.2064 99.5189 14.3921C99.427 14.5778 99.427 14.9492 99.427 15.3207V16.6207C99.427 16.9921 99.427 17.2707 99.5189 17.5492C99.6108 17.8278 99.7027 18.0135 99.7946 18.1064C99.8864 18.2921 100.07 18.3849 100.162 18.3849C100.346 18.4778 100.438 18.4778 100.713 18.4778C101.173 18.4778 101.541 18.4778 101.816 18.4778C102.092 18.4778 102.368 18.4778 102.643 18.3849C102.735 18.3849 102.827 18.3849 102.827 18.4778C102.919 18.4778 102.919 18.5707 102.919 18.6635V19.8707ZM112.843 11.3278C112.843 11.4207 112.843 11.4207 112.751 11.5135L109.811 15.5992L112.751 20.0564V20.1492C112.751 20.2421 112.659 20.3349 112.568 20.3349H110.178C110.086 20.3349 109.995 20.3349 109.995 20.3349C109.903 20.3349 109.903 20.2421 109.811 20.1492L107.513 16.4349V20.0564C107.513 20.1492 107.513 20.2421 107.422 20.3349C107.33 20.4278 107.238 20.4278 107.238 20.4278H105.308C105.216 20.4278 105.124 20.4278 105.032 20.3349C104.941 20.2421 104.94 20.1492 104.94 20.0564V11.6064C104.94 11.5135 104.941 11.4207 105.032 11.4207C105.124 11.4207 105.216 11.3278 105.308 11.3278H107.238C107.33 11.3278 107.422 11.3278 107.422 11.4207C107.513 11.5135 107.513 11.5135 107.513 11.6064V15.2278L109.903 11.6064C109.995 11.5135 109.995 11.4207 110.086 11.4207C110.178 11.4207 110.27 11.3278 110.27 11.3278H112.568C112.751 11.1421 112.843 11.2349 112.843 11.3278ZM121.665 16.3421C121.665 16.9921 121.573 17.5492 121.389 18.1064C121.205 18.5707 120.93 19.0349 120.654 19.4064C120.286 19.7778 119.919 20.0564 119.368 20.2421C118.908 20.4278 118.357 20.5207 117.622 20.5207C116.978 20.5207 116.427 20.4278 115.876 20.2421C115.416 20.0564 114.957 19.7778 114.589 19.4064C114.222 19.0349 114.038 18.5707 113.854 18.1064C113.67 17.6421 113.578 16.9921 113.578 16.3421V15.2278C113.578 14.5778 113.67 14.0207 113.854 13.4635C114.038 12.9992 114.313 12.5349 114.589 12.1635C114.957 11.7921 115.324 11.5135 115.876 11.3278C116.427 11.1421 116.886 11.0492 117.622 11.0492C118.265 11.0492 118.816 11.1421 119.368 11.3278C119.827 11.5135 120.286 11.7921 120.654 12.1635C121.022 12.5349 121.205 12.9992 121.389 13.4635C121.573 13.9278 121.665 14.5778 121.665 15.2278V16.3421ZM119.092 15.2278C119.092 13.9278 118.632 13.2778 117.713 13.2778C117.254 13.2778 116.886 13.4635 116.703 13.7421C116.427 14.1135 116.335 14.5778 116.335 15.2278V16.3421C116.335 16.9921 116.427 17.4564 116.703 17.8278C116.978 18.1992 117.254 18.2921 117.713 18.2921C118.632 18.2921 119.092 17.6421 119.092 16.3421V15.2278ZM130.303 7.89209C130.395 7.89209 130.486 7.98495 130.395 8.0778C130.303 8.35638 130.211 8.7278 130.027 9.00638C129.843 9.28495 129.659 9.56352 129.476 9.74923C129.2 9.93495 128.924 10.1207 128.649 10.2135C128.373 10.3064 127.913 10.3992 127.546 10.3992C127.086 10.3992 126.719 10.3064 126.443 10.2135C126.168 10.1207 125.8 9.93495 125.616 9.74923C125.432 9.56352 125.157 9.28495 125.065 9.00638C124.881 8.7278 124.789 8.44923 124.697 8.0778C124.697 7.98495 124.697 7.89209 124.789 7.89209H126.168C126.259 7.89209 126.351 7.98495 126.351 8.0778C126.443 8.44923 126.627 8.63495 126.811 8.82066C126.995 8.91352 127.27 9.00638 127.546 9.00638C127.822 9.00638 128.097 8.91352 128.281 8.82066C128.465 8.7278 128.649 8.44923 128.741 8.0778C128.741 7.98495 128.74 7.98495 128.832 7.98495C128.924 7.98495 128.924 7.89209 129.016 7.89209C128.924 7.89209 130.303 7.89209 130.303 7.89209ZM124.054 20.3349C123.962 20.3349 123.87 20.3349 123.778 20.2421C123.686 20.2421 123.686 20.1492 123.686 19.9635V11.5135C123.686 11.4207 123.686 11.3278 123.778 11.2349C123.87 11.1421 123.87 11.1421 123.962 11.1421H125.708C125.8 11.1421 125.892 11.1421 125.984 11.2349C126.076 11.3278 126.076 11.3278 126.076 11.5135V15.7849C126.076 15.8778 126.076 15.8778 126.168 15.8778C126.168 15.8778 126.259 15.8778 126.259 15.7849L128.924 11.5135C129.016 11.4207 129.108 11.3278 129.2 11.2349C129.292 11.1421 129.384 11.1421 129.476 11.1421H131.222C131.313 11.1421 131.405 11.1421 131.405 11.2349C131.497 11.3278 131.497 11.3278 131.497 11.4207V19.8707C131.497 19.9635 131.497 20.0564 131.405 20.1492C131.313 20.2421 131.222 20.2421 131.13 20.2421H129.384C129.292 20.2421 129.2 20.2421 129.2 20.1492C129.2 20.0564 129.108 19.9635 129.108 19.8707V15.7849C129.108 15.6921 129.108 15.6921 129.016 15.6921C129.016 15.6921 128.924 15.6921 128.924 15.7849L126.351 19.8707C126.259 20.0564 126.168 20.1492 126.076 20.2421C125.984 20.2421 125.892 20.3349 125.708 20.3349" fill="#00AB88"/>
<path d="M163.935 8.17037C163.752 7.14894 163.384 6.12751 162.833 5.19894C162.189 3.9918 161.362 3.06323 160.26 2.22751C159.249 1.48465 158.146 0.834654 156.86 0.463225C155.573 0.0917968 154.379 -0.00106026 153.092 0.184654C151.806 0.370368 150.519 0.741797 149.325 1.3918C148.13 2.0418 147.119 2.87751 146.384 3.9918C145.557 5.01323 145.006 6.12751 144.638 7.42751C144.27 8.72751 144.179 9.93465 144.27 11.2347C144.362 12.5347 144.822 13.8347 145.465 15.0418C146.108 16.2489 146.935 17.2704 148.038 18.0132C149.049 18.8489 150.152 19.4061 151.438 19.7775C152.357 20.0561 153.184 20.1489 154.103 20.1489C154.195 20.1489 154.195 20.1489 154.287 20.1489V18.8489C153.46 18.8489 152.541 18.7561 151.714 18.4775C150.611 18.1989 149.692 17.6418 148.773 16.9918C147.854 16.2489 147.119 15.4132 146.568 14.3918C146.016 13.3704 145.649 12.2561 145.557 11.1418C145.465 10.0275 145.557 8.91323 145.833 7.79894C146.108 6.68465 146.66 5.75608 147.303 4.82751C148.038 3.89894 148.865 3.15608 149.876 2.59894C150.887 2.0418 151.989 1.67037 153.092 1.57751C154.195 1.48465 155.297 1.57751 156.4 1.85608C157.503 2.13465 158.422 2.6918 159.341 3.3418C160.26 4.08465 160.995 4.92037 161.546 5.9418C161.914 6.68465 162.281 7.52037 162.465 8.35608H160.627L163.108 12.7204L165.589 8.35608L163.935 8.17037Z" fill="#00AB88"/>
<path d="M154.287 11.9773C154.195 11.9773 154.103 11.9773 154.011 11.8845L149.141 9.19161C148.865 9.00589 148.773 8.63446 148.865 8.35589C148.957 8.07732 149.416 7.98446 149.692 8.07732L154.195 10.5845L159.341 5.75589C159.616 5.47732 159.984 5.57018 160.26 5.75589C160.535 6.03446 160.443 6.40589 160.26 6.68446L154.746 11.8845C154.654 11.8845 154.47 11.9773 154.287 11.9773Z" fill="#697E96"/>
<path d="M157.87 14.7634C157.87 14.2991 157.686 14.1134 157.319 14.1134C157.135 14.1134 156.951 14.2063 156.859 14.2991C156.768 14.4848 156.676 14.6705 156.676 15.042H155.389C155.389 14.392 155.665 13.8348 156.032 13.4634C156.4 13.092 156.859 12.9062 157.411 12.9062C157.962 12.9062 158.422 13.092 158.789 13.3705C159.157 13.6491 159.249 14.1134 159.249 14.5777C159.249 15.1348 159.065 15.692 158.605 16.1563C158.146 16.6205 157.686 17.0848 157.135 17.4563H159.341V18.5705H155.389V17.642C157.043 16.4348 157.87 15.5063 157.87 14.7634Z" fill="#00AB88"/>
<path d="M159.433 17.6419V16.5276L161.914 12.999H163.384V16.5276H164.027V17.6419H163.384V18.6633H162.006V17.6419C162.097 17.6419 159.433 17.6419 159.433 17.6419ZM162.189 14.5776L160.811 16.5276H162.189V14.5776Z" fill="#00AB88"/>
</g>
<defs>
<clipPath id="clip0">
<rect width="170" height="52" fill="white" transform="translate(0 -0.000976562)"/>
</clipPath>
</defs>
</svg>
