<svg width="17" height="17" viewBox="0 0 17 17" fill="none" xmlns="http://www.w3.org/2000/svg">
<path d="M16.6189 13.4349L13.9935 10.8093C13.4705 10.2884 12.6046 10.3043 12.0634 10.8456L10.7407 12.168C10.6572 12.1219 10.5707 12.0738 10.4798 12.0228C9.64449 11.56 8.5013 10.9256 7.29833 9.72179C6.09179 8.5154 5.45688 7.37045 4.99266 6.53465C4.94367 6.44611 4.89674 6.36074 4.85039 6.27966L5.7381 5.39327L6.17453 4.9563C6.7165 4.41418 6.73145 3.54844 6.20974 3.0261L3.58436 0.400135C3.06266 -0.121473 2.19629 -0.105649 1.65432 0.436472L0.914394 1.18064L0.934614 1.20072C0.686508 1.5173 0.479183 1.88242 0.324899 2.27617C0.182678 2.65096 0.0941311 3.00862 0.053643 3.367C-0.293021 6.24093 1.02028 8.86749 4.58441 12.4317C9.51111 17.358 13.4814 16.9859 13.6527 16.9677C14.0257 16.9231 14.3832 16.834 14.7465 16.6929C15.1369 16.5404 15.5017 16.3334 15.8181 16.0858L15.8343 16.1002L16.5839 15.3662C17.1247 14.8241 17.1403 13.9581 16.6189 13.4349Z" fill="#14937A"/>
</svg>
