<svg width="16" height="17" viewBox="0 0 16 17" fill="none" xmlns="http://www.w3.org/2000/svg">
<path d="M15.7143 13.0202C15.7143 12.942 15.7143 12.8639 15.6808 12.7858C15.6027 12.5514 15.0558 12.3059 14.8326 12.1943C14.1964 11.8371 13.5491 11.4911 12.9241 11.1228C12.6339 10.9443 12.2768 10.6094 11.9308 10.6094C11.25 10.6094 10.2567 12.6295 9.65402 12.6295C9.35268 12.6295 8.96205 12.3505 8.6942 12.1943C6.66295 11.067 5.2567 9.66078 4.12946 7.62953C3.97321 7.36168 3.6942 6.97105 3.6942 6.66971C3.6942 6.06703 5.71429 5.07373 5.71429 4.39293C5.71429 4.04694 5.37946 3.6898 5.20089 3.39962C4.83259 2.77462 4.48661 2.1273 4.12946 1.49114C4.01786 1.26793 3.77232 0.721051 3.53795 0.642926C3.45982 0.609444 3.3817 0.609444 3.30357 0.609444C2.90179 0.609444 2.12054 0.788016 1.75223 0.955426C1.20536 1.1898 0.848214 1.8148 0.569196 2.31703C0.212054 2.97552 0 3.64516 0 4.39293C0 5.43087 0.424107 6.36837 0.770089 7.31703C1.01563 7.99784 1.31696 8.65632 1.69643 9.27016C2.8683 11.1675 5.15625 13.4554 7.05357 14.6273C7.66741 15.0068 8.32589 15.3081 9.0067 15.5536C9.95536 15.8996 10.8929 16.3237 11.9308 16.3237C12.6786 16.3237 13.3482 16.1117 14.0067 15.7545C14.5089 15.4755 15.1339 15.1184 15.3683 14.5715C15.5357 14.2032 15.7143 13.4219 15.7143 13.0202Z" fill="#00AB88"/>
</svg>
