<svg width="18" height="19" viewBox="0 0 18 19" fill="none" xmlns="http://www.w3.org/2000/svg">
<path d="M9 0.85498C10.5469 0.85498 12.0234 1.27686 13.3594 2.05029C14.6953 2.82373 15.75 3.87842 16.5234 5.21436C17.2969 6.55029 17.7188 8.02686 17.7188 9.57373C17.7188 11.1558 17.2969 12.5972 16.5234 13.9331C15.75 15.269 14.6953 16.3589 13.3594 17.1323C12.0234 17.9058 10.5469 18.2925 9 18.2925C7.41797 18.2925 5.97656 17.9058 4.64062 17.1323C3.30469 16.3589 2.21484 15.269 1.44141 13.9331C0.667969 12.5972 0.28125 11.1558 0.28125 9.57373C0.28125 8.02686 0.667969 6.55029 1.44141 5.21436C2.21484 3.87842 3.30469 2.82373 4.64062 2.05029C5.97656 1.27686 7.41797 0.85498 9 0.85498ZM11.0039 13.1597C11.0742 13.23 11.1797 13.2651 11.3203 13.23C11.4258 13.23 11.5312 13.1597 11.6016 13.0542L12.5859 11.7183C12.6562 11.6479 12.6562 11.5425 12.6562 11.4019C12.6562 11.2964 12.5859 11.1909 12.5156 11.1206L10.2656 9.50342V4.65186C10.2656 4.54639 10.1953 4.44092 10.125 4.37061C10.0547 4.30029 9.94922 4.22998 9.84375 4.22998H8.15625C8.01562 4.22998 7.91016 4.30029 7.83984 4.37061C7.76953 4.44092 7.73438 4.54639 7.73438 4.65186V10.5581C7.73438 10.6987 7.76953 10.8394 7.91016 10.9097L11.0039 13.1597Z" fill="#00AB88"/>
</svg>
