<svg width="18" height="18" viewBox="0 0 18 18" fill="none" xmlns="http://www.w3.org/2000/svg">
<path d="M9 0.53125C10.5469 0.53125 12.0234 0.953125 13.3594 1.72656C14.6953 2.5 15.75 3.55469 16.5234 4.89062C17.2969 6.22656 17.7188 7.70312 17.7188 9.25C17.7188 10.832 17.2969 12.2734 16.5234 13.6094C15.75 14.9453 14.6953 16.0352 13.3594 16.8086C12.0234 17.582 10.5469 17.9688 9 17.9688C7.41797 17.9688 5.97656 17.582 4.64062 16.8086C3.30469 16.0352 2.21484 14.9453 1.44141 13.6094C0.667969 12.2734 0.28125 10.832 0.28125 9.25C0.28125 7.70312 0.667969 6.22656 1.44141 4.89062C2.21484 3.55469 3.30469 2.5 4.64062 1.72656C5.97656 0.953125 7.41797 0.53125 9 0.53125ZM11.0039 12.8359C11.0742 12.9062 11.1797 12.9414 11.3203 12.9062C11.4258 12.9062 11.5312 12.8359 11.6016 12.7305L12.5859 11.3945C12.6562 11.3242 12.6562 11.2188 12.6562 11.0781C12.6562 10.9727 12.5859 10.8672 12.5156 10.7969L10.2656 9.17969V4.32812C10.2656 4.22266 10.1953 4.11719 10.125 4.04688C10.0547 3.97656 9.94922 3.90625 9.84375 3.90625H8.15625C8.01562 3.90625 7.91016 3.97656 7.83984 4.04688C7.76953 4.11719 7.73438 4.22266 7.73438 4.32812V10.2344C7.73438 10.375 7.76953 10.5156 7.91016 10.5859L11.0039 12.8359Z" fill="white" fill-opacity="0.5"/>
</svg>
