<svg width="16" height="20" viewBox="0 0 16 20" fill="none" xmlns="http://www.w3.org/2000/svg">
<path d="M15.7143 16.3181C15.7143 13.0893 14.9163 9.35714 11.6998 9.35714C10.7054 10.327 9.35491 10.9286 7.85715 10.9286C6.35938 10.9286 5.00893 10.327 4.01451 9.35714C0.797993 9.35714 2.46345e-06 13.0893 3.02799e-06 16.3181C3.34138e-06 18.1105 1.17858 19.5714 2.61496 19.5714L13.0993 19.5714C14.5357 19.5714 15.7143 18.1105 15.7143 16.3181ZM12.5714 5.42857C12.5714 2.82589 10.4598 0.714283 7.85714 0.714283C5.25446 0.714284 3.14286 2.82589 3.14286 5.42857C3.14286 8.03125 5.25447 10.1429 7.85714 10.1429C10.4598 10.1429 12.5714 8.03125 12.5714 5.42857Z" fill="#00AB88"/>
</svg>
